SplineFontDB: 3.2
FontName: kannada58
FullName: kannada58
FamilyName: kannada58
Weight: Book
Copyright: Copyright 2022 The Noto Project Authors (https://github.com/notofonts/kannada)
Version: 2.003
ItalicAngle: 0
UnderlinePosition: -125
UnderlineWidth: 50
Ascent: 800
Descent: 200
InvalidEm: 0
sfntRevision: 0x000200c5
LayerCount: 2
Layer: 0 1 "Back" 1
Layer: 1 1 "Fore" 0
XUID: [1021 467 -1121320856 6045849]
StyleMap: 0x0040
FSType: 0
OS2Version: 4
OS2_WeightWidthSlopeOnly: 0
OS2_UseTypoMetrics: 1
CreationTime: 1528877849
ModificationTime: 1674281983
PfmFamily: 81
TTFWeight: 400
TTFWidth: 5
LineGap: 0
VLineGap: 0
Panose: 0 0 0 0 0 0 0 0 0 0
OS2TypoAscent: 809
OS2TypoAOffset: 0
OS2TypoDescent: -540
OS2TypoDOffset: 0
OS2TypoLinegap: 0
OS2WinAscent: 809
OS2WinAOffset: 0
OS2WinDescent: 540
OS2WinDOffset: 0
HheadAscent: 809
HheadAOffset: 0
HheadDescent: -540
HheadDOffset: 0
OS2SubXSize: 650
OS2SubYSize: 600
OS2SubXOff: 0
OS2SubYOff: 75
OS2SupXSize: 650
OS2SupYSize: 600
OS2SupXOff: 0
OS2SupYOff: 350
OS2StrikeYSize: 50
OS2StrikeYPos: 331
OS2CapHeight: 690
OS2XHeight: 551
OS2Vendor: 'GOOG'
OS2CodePages: 00000093.00000000
OS2UnicodeRanges: 80408003.00002042.00000000.00000000
Lookup: 2 0 0 "Multiple Substitution lookup 0" { "Multiple Substitution lookup 0 subtable"  } []
Lookup: 1 0 0 "Single Substitution lookup 1" { "Single Substitution lookup 1 subtable"  } []
Lookup: 1 0 0 "Single Substitution lookup 2" { "Single Substitution lookup 2 subtable"  } []
Lookup: 1 0 0 "Single Substitution lookup 3" { "Single Substitution lookup 3 subtable"  } []
Lookup: 1 0 0 "Single Substitution lookup 4" { "Single Substitution lookup 4 subtable"  } []
Lookup: 1 0 0 "Single Substitution lookup 5" { "Single Substitution lookup 5 subtable"  } []
Lookup: 1 0 0 "Single Substitution lookup 6" { "Single Substitution lookup 6 subtable"  } []
Lookup: 1 0 0 "Single Substitution lookup 7" { "Single Substitution lookup 7 subtable"  } []

StartChar: exclam.knda
Encoding: 33 33 3
Width: 269
Flags: W
LayerCount: 2
Fore
SplineSet
163 196 m 1,0,-1
 106 196 l 1,1,-1
 81 696 l 1,2,-1
 188 696 l 1,3,-1
 163 196 l 1,0,-1
72 56 m 0,4,5
 72 93 72 93 90 108 c 128,-1,6
 108 123 108 123 134 123 c 0,7,8
 159 123 159 123 177.5 108 c 128,-1,9
 196 93 196 93 196 56 c 0,10,11
 196 20 196 20 177.5 4 c 128,-1,12
 159 -12 159 -12 134 -12 c 0,13,14
 108 -12 108 -12 90 4 c 128,-1,15
 72 20 72 20 72 56 c 0,4,5
EndSplineSet
EndChar

StartChar: quotedbl.knda
Encoding: 34 34 4
Width: 408
Flags: W
LayerCount: 2
Fore
SplineSet
85 536 m 1,0,-1
 65 793 l 1,1,-1
 160 793 l 1,2,-1
 140 536 l 1,3,-1
 85 536 l 1,0,-1
268 536 m 1,4,-1
 248 793 l 1,5,-1
 343 793 l 1,6,-1
 323 536 l 1,7,-1
 268 536 l 1,4,-1
EndSplineSet
EndChar

StartChar: numbersign.knda
Encoding: 35 35 5
Width: 646
Flags: W
LayerCount: 2
Fore
SplineSet
113 0 m 1,0,-1
 153 202 l 1,1,-1
 25 202 l 1,2,-1
 25 269 l 1,3,-1
 166 269 l 1,4,-1
 196 421 l 1,5,-1
 62 421 l 1,6,-1
 62 487 l 1,7,-1
 208 487 l 1,8,-1
 248 690 l 1,9,-1
 320 690 l 1,10,-1
 278 487 l 1,11,-1
 423 487 l 1,12,-1
 464 690 l 1,13,-1
 533 690 l 1,14,-1
 491 487 l 1,15,-1
 620 487 l 1,16,-1
 620 421 l 1,17,-1
 479 421 l 1,18,-1
 448 269 l 1,19,-1
 586 269 l 1,20,-1
 586 202 l 1,21,-1
 435 202 l 1,22,-1
 395 0 l 1,23,-1
 324 0 l 1,24,-1
 366 202 l 1,25,-1
 223 202 l 1,26,-1
 183 0 l 1,27,-1
 113 0 l 1,0,-1
235 269 m 1,28,-1
 378 269 l 1,29,-1
 410 421 l 1,30,-1
 267 421 l 1,31,-1
 235 269 l 1,28,-1
EndSplineSet
EndChar

StartChar: percent.knda
Encoding: 37 37 6
Width: 831
Flags: W
LayerCount: 2
Fore
SplineSet
179 0 m 1,0,-1
 575 690 l 1,1,-1
 652 690 l 1,2,-1
 256 0 l 1,3,-1
 179 0 l 1,0,-1
195 276 m 0,4,5
 124 276 124 276 86.5 333 c 128,-1,6
 49 390 49 390 49 490 c 0,7,8
 49 591 49 591 84 646.5 c 128,-1,9
 119 702 119 702 195 702 c 0,10,11
 269 702 269 702 307 646.5 c 128,-1,12
 345 591 345 591 345 490 c 0,13,14
 345 390 345 390 308.5 333 c 128,-1,15
 272 276 272 276 195 276 c 0,4,5
195 339 m 0,16,17
 234 339 234 339 253 376.5 c 128,-1,18
 272 414 272 414 272 490 c 0,19,20
 272 565 272 565 253 602.5 c 128,-1,21
 234 640 234 640 195 640 c 0,22,23
 157 640 157 640 139.5 602.5 c 128,-1,24
 122 565 122 565 122 490 c 256,25,26
 122 415 122 415 139.5 377 c 128,-1,27
 157 339 157 339 195 339 c 0,16,17
632 -12 m 0,28,29
 561 -12 561 -12 523.5 45 c 128,-1,30
 486 102 486 102 486 202 c 0,31,32
 486 303 486 303 521 358.5 c 128,-1,33
 556 414 556 414 632 414 c 0,34,35
 705 414 705 414 743.5 358.5 c 128,-1,36
 782 303 782 303 782 202 c 0,37,38
 782 102 782 102 745.5 45 c 128,-1,39
 709 -12 709 -12 632 -12 c 0,28,29
632 51 m 0,40,41
 671 51 671 51 690 88.5 c 128,-1,42
 709 126 709 126 709 202 c 0,43,44
 709 276 709 276 690 313.5 c 128,-1,45
 671 351 671 351 632 351 c 0,46,47
 594 351 594 351 576.5 313.5 c 128,-1,48
 559 276 559 276 559 202 c 0,49,50
 559 126 559 126 576.5 88.5 c 128,-1,51
 594 51 594 51 632 51 c 0,40,41
EndSplineSet
EndChar

StartChar: quotesingle.knda
Encoding: 39 39 7
Width: 225
Flags: W
LayerCount: 2
Fore
SplineSet
85 536 m 1,0,-1
 65 793 l 1,1,-1
 160 793 l 1,2,-1
 140 536 l 1,3,-1
 85 536 l 1,0,-1
EndSplineSet
EndChar

StartChar: parenleft.knda
Encoding: 40 40 8
Width: 383
Flags: W
LayerCount: 2
Fore
SplineSet
49 218 m 0,0,1
 49 325 49 325 69 426.5 c 128,-1,2
 89 528 89 528 130 620.5 c 128,-1,3
 171 713 171 713 232 793 c 1,4,-1
 317 793 l 1,5,6
 256 702 256 702 216.5 608.5 c 128,-1,7
 177 515 177 515 157.5 417.5 c 128,-1,8
 138 320 138 320 138 217 c 0,9,10
 138 59 138 59 181 -84.5 c 128,-1,11
 224 -228 224 -228 318 -368 c 1,12,-1
 232 -368 l 1,13,14
 139 -248 139 -248 94 -96.5 c 128,-1,15
 49 55 49 55 49 218 c 0,0,1
EndSplineSet
EndChar

StartChar: parenright.knda
Encoding: 41 41 9
Width: 383
Flags: W
LayerCount: 2
Fore
SplineSet
334 207 m 0,0,1
 334 100 334 100 313.5 -1.5 c 128,-1,2
 293 -103 293 -103 252.5 -195.5 c 128,-1,3
 212 -288 212 -288 150 -368 c 1,4,-1
 66 -368 l 1,5,6
 127 -277 127 -277 166.5 -183.5 c 128,-1,7
 206 -90 206 -90 225.5 7.5 c 128,-1,8
 245 105 245 105 245 208 c 0,9,10
 245 366 245 366 202 509.5 c 128,-1,11
 159 653 159 653 65 793 c 1,12,-1
 150 793 l 1,13,14
 243 673 243 673 288.5 521.5 c 128,-1,15
 334 370 334 370 334 207 c 0,0,1
EndSplineSet
EndChar

StartChar: asterisk.knda
Encoding: 42 42 10
Width: 551
Flags: W
LayerCount: 2
Fore
SplineSet
323 793 m 1,0,-1
 303 602 l 1,1,-1
 495 656 l 1,2,-1
 509 563 l 1,3,-1
 325 549 l 1,4,-1
 444 391 l 1,5,-1
 358 344 l 1,6,-1
 273 519 l 1,7,-1
 196 344 l 1,8,-1
 107 391 l 1,9,-1
 224 549 l 1,10,-1
 42 563 l 1,11,-1
 56 656 l 1,12,-1
 246 602 l 1,13,-1
 225 793 l 1,14,-1
 323 793 l 1,0,-1
EndSplineSet
EndChar

StartChar: plus.knda
Encoding: 43 43 11
Width: 572
Flags: W
LayerCount: 2
Fore
SplineSet
250 101 m 1,0,-1
 250 307 l 1,1,-1
 51 307 l 1,2,-1
 51 378 l 1,3,-1
 250 378 l 1,4,-1
 250 585 l 1,5,-1
 322 585 l 1,6,-1
 322 378 l 1,7,-1
 521 378 l 1,8,-1
 521 307 l 1,9,-1
 322 307 l 1,10,-1
 322 101 l 1,11,-1
 250 101 l 1,0,-1
EndSplineSet
EndChar

StartChar: comma.knda
Encoding: 44 44 12
Width: 268
Flags: W
LayerCount: 2
Fore
SplineSet
195 119 m 1,0,-1
 202 107 l 1,1,2
 193 72 193 72 179 31.5 c 128,-1,3
 165 -9 165 -9 148.5 -49.5 c 128,-1,4
 132 -90 132 -90 116 -126 c 1,5,-1
 51 -126 l 1,6,7
 61 -88 61 -88 70.5 -45 c 128,-1,8
 80 -2 80 -2 88 41 c 128,-1,9
 96 84 96 84 101 119 c 1,10,-1
 195 119 l 1,0,-1
EndSplineSet
EndChar

StartChar: hyphen.knda
Encoding: 45 45 13
Width: 322
Flags: W
LayerCount: 2
Fore
SplineSet
40 244 m 1,0,-1
 40 322 l 1,1,-1
 282 322 l 1,2,-1
 282 244 l 1,3,-1
 40 244 l 1,0,-1
EndSplineSet
EndChar

StartChar: period.knda
Encoding: 46 46 14
Width: 268
Flags: W
LayerCount: 2
Fore
SplineSet
72 57 m 0,0,1
 72 93 72 93 90 108.5 c 128,-1,2
 108 124 108 124 133 124 c 0,3,4
 159 124 159 124 177.5 108.5 c 128,-1,5
 196 93 196 93 196 57 c 0,6,7
 196 20 196 20 177.5 4 c 128,-1,8
 159 -12 159 -12 133 -12 c 0,9,10
 108 -12 108 -12 90 4 c 128,-1,11
 72 20 72 20 72 57 c 0,0,1
EndSplineSet
EndChar

StartChar: slash.knda
Encoding: 47 47 15
Width: 519
Flags: W
LayerCount: 2
Fore
SplineSet
445 793 m 1,0,-1
 160 -368 l 1,1,-1
 74 -368 l 1,2,-1
 359 793 l 1,3,-1
 445 793 l 1,0,-1
EndSplineSet
EndChar

StartChar: zero.knda
Encoding: 48 48 16
Width: 572
Flags: W
LayerCount: 2
Fore
SplineSet
523 345 m 0,0,1
 523 261 523 261 510 195 c 128,-1,2
 497 129 497 129 468.5 82.5 c 128,-1,3
 440 36 440 36 394.5 12 c 128,-1,4
 349 -12 349 -12 285 -12 c 0,5,6
 205 -12 205 -12 152.5 30.5 c 128,-1,7
 100 73 100 73 74.5 153 c 128,-1,8
 49 233 49 233 49 345 c 0,9,10
 49 458 49 458 72.5 537.5 c 128,-1,11
 96 617 96 617 148 659.5 c 128,-1,12
 200 702 200 702 285 702 c 0,13,14
 365 702 365 702 418 660 c 128,-1,15
 471 618 471 618 497 538 c 128,-1,16
 523 458 523 458 523 345 c 0,0,1
137 345 m 0,17,18
 137 251 137 251 151.5 188.5 c 128,-1,19
 166 126 166 126 198.5 94.5 c 128,-1,20
 231 63 231 63 285 63 c 256,21,22
 339 63 339 63 371.5 94 c 128,-1,23
 404 125 404 125 419 188 c 128,-1,24
 434 251 434 251 434 345 c 0,25,26
 434 440 434 440 419 502.5 c 128,-1,27
 404 565 404 565 371.5 596 c 128,-1,28
 339 627 339 627 285 627 c 256,29,30
 231 627 231 627 198.5 596 c 128,-1,31
 166 565 166 565 151.5 502.5 c 128,-1,32
 137 440 137 440 137 345 c 0,17,18
EndSplineSet
EndChar

StartChar: one.knda
Encoding: 49 49 17
Width: 572
Flags: W
LayerCount: 2
Fore
SplineSet
355 0 m 1,0,-1
 269 0 l 1,1,-1
 269 482 l 2,2,3
 269 511 269 511 269.5 531.5 c 128,-1,4
 270 552 270 552 271 569 c 128,-1,5
 272 586 272 586 273 605 c 1,6,7
 257 589 257 589 244 578 c 128,-1,8
 231 567 231 567 211 550 c 2,9,-1
 135 488 l 1,10,-1
 89 547 l 1,11,-1
 282 697 l 1,12,-1
 355 697 l 1,13,-1
 355 0 l 1,0,-1
EndSplineSet
EndChar

StartChar: two.knda
Encoding: 50 50 18
Width: 572
Flags: W
LayerCount: 2
Fore
SplineSet
520 0 m 1,0,-1
 48 0 l 1,1,-1
 48 73 l 1,2,-1
 213 234 l 2,3,4
 278 297 278 297 319.5 342.5 c 128,-1,5
 361 388 361 388 381 428 c 128,-1,6
 401 468 401 468 401 511 c 0,7,8
 401 549 401 549 386 575 c 128,-1,9
 371 601 371 601 343 614 c 128,-1,10
 315 627 315 627 275 627 c 0,11,12
 223 627 223 627 183.5 609 c 128,-1,13
 144 591 144 591 103 559 c 1,14,-1
 56 618 l 1,15,16
 84 642 84 642 117.5 661 c 128,-1,17
 151 680 151 680 190.5 691 c 128,-1,18
 230 702 230 702 276 702 c 0,19,20
 344 702 344 702 392 680 c 128,-1,21
 440 658 440 658 465.5 617 c 128,-1,22
 491 576 491 576 491 519 c 0,23,24
 491 464 491 464 471 417.5 c 128,-1,25
 451 371 451 371 414.5 327 c 128,-1,26
 378 283 378 283 327 233 c 2,27,-1
 172 84 l 1,28,-1
 172 80 l 1,29,-1
 520 80 l 1,30,-1
 520 0 l 1,0,-1
EndSplineSet
EndChar

StartChar: three.knda
Encoding: 51 51 19
Width: 572
Flags: W
LayerCount: 2
Fore
SplineSet
493 530 m 0,0,1
 493 484 493 484 475 449.5 c 128,-1,2
 457 415 457 415 423.5 394 c 128,-1,3
 390 373 390 373 345 364 c 1,4,-1
 345 361 l 1,5,6
 431 351 431 351 473 307.5 c 128,-1,7
 515 264 515 264 515 196 c 0,8,9
 515 135 515 135 486 88 c 128,-1,10
 457 41 457 41 396.5 14.5 c 128,-1,11
 336 -12 336 -12 241 -12 c 0,12,13
 185 -12 185 -12 137 -3.5 c 128,-1,14
 89 5 89 5 45 27 c 1,15,-1
 45 109 l 1,16,17
 90 87 90 87 142 74.5 c 128,-1,18
 194 62 194 62 242 62 c 0,19,20
 338 62 338 62 380.5 98 c 128,-1,21
 423 134 423 134 423 198 c 0,22,23
 423 241 423 241 399.5 267.5 c 128,-1,24
 376 294 376 294 331 306.5 c 128,-1,25
 286 319 286 319 223 319 c 2,26,-1
 154 319 l 1,27,-1
 154 394 l 1,28,-1
 224 394 l 2,29,30
 283 394 283 394 322.5 410 c 128,-1,31
 362 426 362 426 382.5 455 c 128,-1,32
 403 484 403 484 403 523 c 0,33,34
 403 573 403 573 368 600.5 c 128,-1,35
 333 628 333 628 273 628 c 0,36,37
 215 628 215 628 174 611 c 128,-1,38
 133 594 133 594 93 568 c 1,39,-1
 49 628 l 1,40,41
 87 658 87 658 143.5 680 c 128,-1,42
 200 702 200 702 272 702 c 0,43,44
 384 702 384 702 438.5 653 c 128,-1,45
 493 604 493 604 493 530 c 0,0,1
EndSplineSet
EndChar

StartChar: four.knda
Encoding: 52 52 20
Width: 572
Flags: W
LayerCount: 2
Fore
SplineSet
552 157 m 1,0,-1
 448 157 l 1,1,-1
 448 0 l 1,2,-1
 363 0 l 1,3,-1
 363 157 l 1,4,-1
 21 157 l 1,5,-1
 21 231 l 1,6,-1
 357 695 l 1,7,-1
 448 695 l 1,8,-1
 448 236 l 1,9,-1
 552 236 l 1,10,-1
 552 157 l 1,0,-1
363 236 m 1,11,-1
 363 443 l 2,12,13
 363 496 363 496 365 533 c 128,-1,14
 367 570 367 570 368 603 c 1,15,-1
 364 603 l 1,16,17
 356 584 356 584 342 561.5 c 128,-1,18
 328 539 328 539 317 524 c 2,19,-1
 107 236 l 1,20,-1
 363 236 l 1,11,-1
EndSplineSet
EndChar

StartChar: five.knda
Encoding: 53 53 21
Width: 572
Flags: W
LayerCount: 2
Fore
SplineSet
248 -12 m 0,0,1
 193 -12 193 -12 144.5 -2 c 128,-1,2
 96 8 96 8 63 27 c 1,3,-1
 63 110 l 1,4,5
 99 88 99 88 150.5 75.5 c 128,-1,6
 202 63 202 63 249 63 c 0,7,8
 302 63 302 63 341.5 79 c 128,-1,9
 381 95 381 95 403 128 c 128,-1,10
 425 161 425 161 425 212 c 0,11,12
 425 280 425 280 382 316.5 c 128,-1,13
 339 353 339 353 246 353 c 0,14,15
 218 353 218 353 182 348 c 128,-1,16
 146 343 146 343 124 338 c 1,17,-1
 80 366 l 1,18,-1
 106 690 l 1,19,-1
 465 690 l 1,20,-1
 465 610 l 1,21,-1
 182 610 l 1,22,-1
 165 416 l 1,23,24
 182 419 182 419 211 423 c 128,-1,25
 240 427 240 427 275 427 c 0,26,27
 348 427 348 427 402 402.5 c 128,-1,28
 456 378 456 378 485.5 332 c 128,-1,29
 515 286 515 286 515 221 c 0,30,31
 515 149 515 149 483 96.5 c 128,-1,32
 451 44 451 44 391.5 16 c 128,-1,33
 332 -12 332 -12 248 -12 c 0,0,1
EndSplineSet
EndChar

StartChar: six.knda
Encoding: 54 54 22
Width: 572
Flags: W
LayerCount: 2
Fore
SplineSet
55 295 m 0,0,1
 55 355 55 355 63.5 413.5 c 128,-1,2
 72 472 72 472 93 524 c 128,-1,3
 114 576 114 576 151 616 c 128,-1,4
 188 656 188 656 244.5 679 c 128,-1,5
 301 702 301 702 382 702 c 0,6,7
 403 702 403 702 428.5 700 c 128,-1,8
 454 698 454 698 470 693 c 1,9,-1
 470 619 l 1,10,11
 452 624 452 624 429.5 627 c 128,-1,12
 407 630 407 630 384 630 c 0,13,14
 315 630 315 630 269 608 c 128,-1,15
 223 586 223 586 196.5 547.5 c 128,-1,16
 170 509 170 509 158 459 c 128,-1,17
 146 409 146 409 143 353 c 1,18,-1
 149 353 l 1,19,20
 164 377 164 377 187 396 c 128,-1,21
 210 415 210 415 242.5 426 c 128,-1,22
 275 437 275 437 318 437 c 0,23,24
 380 437 380 437 426.5 412 c 128,-1,25
 473 387 473 387 499 339.5 c 128,-1,26
 525 292 525 292 525 224 c 0,27,28
 525 151 525 151 497 98.5 c 128,-1,29
 469 46 469 46 418.5 17.5 c 128,-1,30
 368 -11 368 -11 298 -11 c 0,31,32
 247 -11 247 -11 203 7.5 c 128,-1,33
 159 26 159 26 125.5 63.5 c 128,-1,34
 92 101 92 101 73.5 159 c 128,-1,35
 55 217 55 217 55 295 c 0,0,1
297 63 m 0,36,37
 360 63 360 63 399 102.5 c 128,-1,38
 438 142 438 142 438 224 c 0,39,40
 438 291 438 291 403.5 329.5 c 128,-1,41
 369 368 369 368 300 368 c 0,42,43
 253 368 253 368 218 349 c 128,-1,44
 183 330 183 330 163.5 301 c 128,-1,45
 144 272 144 272 144 241 c 0,46,47
 144 209 144 209 153.5 177.5 c 128,-1,48
 163 146 163 146 182.5 120 c 128,-1,49
 202 94 202 94 230.5 78.5 c 128,-1,50
 259 63 259 63 297 63 c 0,36,37
EndSplineSet
EndChar

StartChar: seven.knda
Encoding: 55 55 23
Width: 572
Flags: W
LayerCount: 2
Fore
SplineSet
142 0 m 1,0,-1
 429 610 l 1,1,-1
 44 610 l 1,2,-1
 44 690 l 1,3,-1
 523 690 l 1,4,-1
 523 623 l 1,5,-1
 238 0 l 1,6,-1
 142 0 l 1,0,-1
EndSplineSet
EndChar

StartChar: eight.knda
Encoding: 56 56 24
Width: 572
Flags: W
LayerCount: 2
Fore
SplineSet
285 702 m 0,0,1
 348 702 348 702 396 683 c 128,-1,2
 444 664 444 664 471.5 627 c 128,-1,3
 499 590 499 590 499 536 c 0,4,5
 499 495 499 495 480.5 463.5 c 128,-1,6
 462 432 462 432 431 408.5 c 128,-1,7
 400 385 400 385 363 366 c 1,8,9
 407 345 407 345 443 319.5 c 128,-1,10
 479 294 479 294 500.5 260 c 128,-1,11
 522 226 522 226 522 178 c 0,12,13
 522 120 522 120 493 77 c 128,-1,14
 464 34 464 34 411.5 11 c 128,-1,15
 359 -12 359 -12 288 -12 c 0,16,17
 211 -12 211 -12 157.5 10 c 128,-1,18
 104 32 104 32 76.5 74 c 128,-1,19
 49 116 49 116 49 175 c 0,20,21
 49 223 49 223 69.5 258 c 128,-1,22
 90 293 90 293 124 318.5 c 128,-1,23
 158 344 158 344 197 361 c 1,24,25
 162 381 162 381 133.5 405 c 128,-1,26
 105 429 105 429 88.5 461.5 c 128,-1,27
 72 494 72 494 72 537 c 0,28,29
 72 590 72 590 100 627 c 128,-1,30
 128 664 128 664 176 683 c 128,-1,31
 224 702 224 702 285 702 c 0,0,1
135 175 m 0,32,33
 135 125 135 125 172 91.5 c 128,-1,34
 209 58 209 58 286 58 c 0,35,36
 359 58 359 58 397.5 91.5 c 128,-1,37
 436 125 436 125 436 178 c 0,38,39
 436 211 436 211 417.5 236.5 c 128,-1,40
 399 262 399 262 365.5 282.5 c 128,-1,41
 332 303 332 303 286 319 c 2,42,-1
 270 325 l 1,43,44
 226 307 226 307 196 285.5 c 128,-1,45
 166 264 166 264 150.5 237 c 128,-1,46
 135 210 135 210 135 175 c 0,32,33
284 631 m 0,47,48
 229 631 229 631 193.5 605.5 c 128,-1,49
 158 580 158 580 158 532 c 0,50,51
 158 497 158 497 175.5 473 c 128,-1,52
 193 449 193 449 223 432 c 128,-1,53
 253 415 253 415 289 400 c 1,54,55
 324 414 324 414 351.5 431.5 c 128,-1,56
 379 449 379 449 395.5 473.5 c 128,-1,57
 412 498 412 498 412 532 c 0,58,59
 412 580 412 580 377 605.5 c 128,-1,60
 342 631 342 631 284 631 c 0,47,48
EndSplineSet
EndChar

StartChar: nine.knda
Encoding: 57 57 25
Width: 572
Flags: W
LayerCount: 2
Fore
SplineSet
520 396 m 0,0,1
 520 336 520 336 511.5 277 c 128,-1,2
 503 218 503 218 482 166 c 128,-1,3
 461 114 461 114 424 74 c 128,-1,4
 387 34 387 34 330 11 c 128,-1,5
 273 -12 273 -12 192 -12 c 0,6,7
 172 -12 172 -12 145.5 -9.5 c 128,-1,8
 119 -7 119 -7 102 -2 c 1,9,-1
 102 73 l 1,10,11
 120 67 120 67 144 63.5 c 128,-1,12
 168 60 168 60 190 60 c 0,13,14
 260 60 260 60 305.5 82 c 128,-1,15
 351 104 351 104 378 142 c 128,-1,16
 405 180 405 180 417 230 c 128,-1,17
 429 280 429 280 431 336 c 1,18,-1
 425 336 l 1,19,20
 410 314 410 314 387 295 c 128,-1,21
 364 276 364 276 331.5 264.5 c 128,-1,22
 299 253 299 253 255 253 c 0,23,24
 194 253 194 253 147.5 278 c 128,-1,25
 101 303 101 303 75.5 350.5 c 128,-1,26
 50 398 50 398 50 465 c 0,27,28
 50 538 50 538 78.5 591 c 128,-1,29
 107 644 107 644 158 673 c 128,-1,30
 209 702 209 702 278 702 c 0,31,32
 329 702 329 702 373 683.5 c 128,-1,33
 417 665 417 665 450 627 c 128,-1,34
 483 589 483 589 501.5 531.5 c 128,-1,35
 520 474 520 474 520 396 c 0,0,1
278 628 m 0,36,37
 216 628 216 628 176.5 588.5 c 128,-1,38
 137 549 137 549 137 466 c 0,39,40
 137 400 137 400 170.5 361.5 c 128,-1,41
 204 323 204 323 274 323 c 0,42,43
 322 323 322 323 357 341.5 c 128,-1,44
 392 360 392 360 411.5 389.5 c 128,-1,45
 431 419 431 419 431 450 c 0,46,47
 431 482 431 482 421.5 513 c 128,-1,48
 412 544 412 544 393 570.5 c 128,-1,49
 374 597 374 597 345 612.5 c 128,-1,50
 316 628 316 628 278 628 c 0,36,37
EndSplineSet
EndChar

StartChar: colon.knda
Encoding: 58 58 26
Width: 268
Flags: W
LayerCount: 2
Fore
SplineSet
72 57 m 0,0,1
 72 93 72 93 90 108.5 c 128,-1,2
 108 124 108 124 133 124 c 0,3,4
 159 124 159 124 177.5 108.5 c 128,-1,5
 196 93 196 93 196 57 c 0,6,7
 196 20 196 20 177.5 4 c 128,-1,8
 159 -12 159 -12 133 -12 c 0,9,10
 108 -12 108 -12 90 4 c 128,-1,11
 72 20 72 20 72 57 c 0,0,1
72 384 m 0,12,13
 72 422 72 422 90 437 c 128,-1,14
 108 452 108 452 133 452 c 0,15,16
 159 452 159 452 177.5 437 c 128,-1,17
 196 422 196 422 196 384 c 0,18,19
 196 348 196 348 177.5 332 c 128,-1,20
 159 316 159 316 133 316 c 0,21,22
 108 316 108 316 90 332 c 128,-1,23
 72 348 72 348 72 384 c 0,12,13
EndSplineSet
EndChar

StartChar: semicolon.knda
Encoding: 59 59 27
Width: 280
Flags: W
LayerCount: 2
Fore
SplineSet
196 119 m 1,0,-1
 203 107 l 1,1,2
 194 73 194 73 180 32 c 128,-1,3
 166 -9 166 -9 149.5 -50 c 128,-1,4
 133 -91 133 -91 117 -126 c 1,5,-1
 51 -126 l 1,6,7
 61 -89 61 -89 70.5 -45.5 c 128,-1,8
 80 -2 80 -2 88.5 41 c 128,-1,9
 97 84 97 84 102 119 c 1,10,-1
 196 119 l 1,0,-1
90 384 m 0,11,12
 90 422 90 422 108 437 c 128,-1,13
 126 452 126 452 151 452 c 0,14,15
 177 452 177 452 195.5 437 c 128,-1,16
 214 422 214 422 214 384 c 0,17,18
 214 348 214 348 195.5 332 c 128,-1,19
 177 316 177 316 151 316 c 0,20,21
 126 316 126 316 108 332 c 128,-1,22
 90 348 90 348 90 384 c 0,11,12
EndSplineSet
EndChar

StartChar: less.knda
Encoding: 60 60 28
Width: 572
Flags: W
LayerCount: 2
Fore
SplineSet
521 106 m 1,0,-1
 50 313 l 1,1,-1
 50 363 l 1,2,-1
 521 598 l 1,3,-1
 521 520 l 1,4,-1
 144 342 l 1,5,-1
 521 184 l 1,6,-1
 521 106 l 1,0,-1
EndSplineSet
EndChar

StartChar: equal.knda
Encoding: 61 61 29
Width: 572
Flags: W
LayerCount: 2
Fore
SplineSet
56 406 m 1,0,-1
 56 477 l 1,1,-1
 514 477 l 1,2,-1
 514 406 l 1,3,-1
 56 406 l 1,0,-1
56 207 m 1,4,-1
 56 278 l 1,5,-1
 514 278 l 1,6,-1
 514 207 l 1,7,-1
 56 207 l 1,4,-1
EndSplineSet
EndChar

StartChar: greater.knda
Encoding: 62 62 30
Width: 572
Flags: W
LayerCount: 2
Fore
SplineSet
50 106 m 1,0,-1
 50 184 l 1,1,-1
 427 341 l 1,2,-1
 50 520 l 1,3,-1
 50 598 l 1,4,-1
 521 363 l 1,5,-1
 521 313 l 1,6,-1
 50 106 l 1,0,-1
EndSplineSet
EndChar

StartChar: question.knda
Encoding: 63 63 31
Width: 458
Flags: W
LayerCount: 2
Fore
SplineSet
216 702 m 0,0,1
 307 702 307 702 360 653.5 c 128,-1,2
 413 605 413 605 413 519 c 0,3,4
 413 476 413 476 401 444 c 128,-1,5
 389 412 389 412 365 384 c 128,-1,6
 341 356 341 356 304 324 c 0,7,8
 272 297 272 297 255 277 c 128,-1,9
 238 257 238 257 231.5 238.5 c 128,-1,10
 225 220 225 220 225 195 c 2,11,-1
 225 186 l 1,12,-1
 157 186 l 1,13,-1
 157 204 l 2,14,15
 157 237 157 237 164 263 c 128,-1,16
 171 289 171 289 189 314 c 128,-1,17
 207 339 207 339 240 367 c 0,18,19
 271 394 271 394 290.5 415 c 128,-1,20
 310 436 310 436 319 460 c 128,-1,21
 328 484 328 484 328 518 c 0,22,23
 328 565 328 565 299.5 594.5 c 128,-1,24
 271 624 271 624 216 624 c 0,25,26
 176 624 176 624 139.5 611.5 c 128,-1,27
 103 599 103 599 68 582 c 1,28,-1
 38 653 l 1,29,30
 77 673 77 673 123 687.5 c 128,-1,31
 169 702 169 702 216 702 c 0,0,1
195 -12 m 0,32,33
 170 -12 170 -12 151.5 4 c 128,-1,34
 133 20 133 20 133 56 c 0,35,36
 133 94 133 94 151.5 109 c 128,-1,37
 170 124 170 124 195 124 c 0,38,39
 221 124 221 124 239 109 c 128,-1,40
 257 94 257 94 257 56 c 0,41,42
 257 20 257 20 239 4 c 128,-1,43
 221 -12 221 -12 195 -12 c 0,32,33
EndSplineSet
EndChar

StartChar: bracketleft.knda
Encoding: 91 91 32
Width: 383
Flags: W
LayerCount: 2
Fore
SplineSet
304 -369 m 1,0,-1
 80 -369 l 1,1,-1
 80 793 l 1,2,-1
 304 793 l 1,3,-1
 304 722 l 1,4,-1
 166 722 l 1,5,-1
 166 -296 l 1,6,-1
 304 -296 l 1,7,-1
 304 -369 l 1,0,-1
EndSplineSet
EndChar

StartChar: backslash.knda
Encoding: 92 92 33
Width: 519
Flags: W
LayerCount: 2
Fore
SplineSet
160 793 m 1,0,-1
 445 -368 l 1,1,-1
 358 -368 l 1,2,-1
 74 793 l 1,3,-1
 160 793 l 1,0,-1
EndSplineSet
EndChar

StartChar: bracketright.knda
Encoding: 93 93 34
Width: 383
Flags: W
LayerCount: 2
Fore
SplineSet
79 -297 m 1,0,-1
 217 -297 l 1,1,-1
 217 722 l 1,2,-1
 79 722 l 1,3,-1
 79 793 l 1,4,-1
 303 793 l 1,5,-1
 303 -369 l 1,6,-1
 79 -369 l 1,7,-1
 79 -297 l 1,0,-1
EndSplineSet
EndChar

StartChar: asciicircum.knda
Encoding: 94 94 35
Width: 572
Flags: W
LayerCount: 2
Fore
SplineSet
38 250 m 1,0,-1
 250 702 l 1,1,-1
 300 702 l 1,2,-1
 534 250 l 1,3,-1
 456 250 l 1,4,-1
 276 609 l 1,5,-1
 116 250 l 1,6,-1
 38 250 l 1,0,-1
EndSplineSet
EndChar

StartChar: underscore.knda
Encoding: 95 95 36
Width: 444
Flags: W
LayerCount: 2
Fore
SplineSet
-2 -154 m 1,0,-1
 -2 -90 l 1,1,-1
 446 -90 l 1,2,-1
 446 -154 l 1,3,-1
 -2 -154 l 1,0,-1
EndSplineSet
EndChar

StartChar: braceleft.knda
Encoding: 123 123 37
Width: 383
Flags: W
LayerCount: 2
Fore
SplineSet
348 -368 m 1,0,1
 287 -367 287 -367 242.5 -350 c 128,-1,2
 198 -333 198 -333 174 -297.5 c 128,-1,3
 150 -262 150 -262 150 -209 c 2,4,-1
 150 82 l 2,5,6
 150 133 150 133 118.5 154.5 c 128,-1,7
 87 176 87 176 28 176 c 1,8,-1
 28 249 l 1,9,10
 87 250 87 250 118.5 271 c 128,-1,11
 150 292 150 292 150 342 c 2,12,-1
 150 636 l 2,13,14
 150 689 150 689 175 724 c 128,-1,15
 200 759 200 759 245 776 c 128,-1,16
 290 793 290 793 348 793 c 1,17,-1
 348 722 l 1,18,19
 296 721 296 721 266.5 698.5 c 128,-1,20
 237 676 237 676 237 627 c 2,21,-1
 237 338 l 2,22,23
 237 287 237 287 210 256.5 c 128,-1,24
 183 226 183 226 128 216 c 1,25,-1
 128 210 l 1,26,27
 184 200 184 200 210.5 169.5 c 128,-1,28
 237 139 237 139 237 88 c 2,29,-1
 237 -203 l 2,30,31
 237 -235 237 -235 250 -255.5 c 128,-1,32
 263 -276 263 -276 288 -285.5 c 128,-1,33
 313 -295 313 -295 348 -296 c 1,34,-1
 348 -368 l 1,0,1
EndSplineSet
EndChar

StartChar: bar.knda
Encoding: 124 124 38
Width: 551
Flags: W
LayerCount: 2
Fore
SplineSet
239 794 m 1,0,-1
 312 794 l 1,1,-1
 312 -368 l 1,2,-1
 239 -368 l 1,3,-1
 239 794 l 1,0,-1
EndSplineSet
EndChar

StartChar: braceright.knda
Encoding: 125 125 39
Width: 382
Flags: W
LayerCount: 2
Fore
SplineSet
35 793 m 1,0,1
 96 793 96 793 140 775.5 c 128,-1,2
 184 758 184 758 208 723.5 c 128,-1,3
 232 689 232 689 232 635 c 2,4,-1
 232 343 l 2,5,6
 232 292 232 292 263.5 270.5 c 128,-1,7
 295 249 295 249 354 249 c 1,8,-1
 354 176 l 1,9,10
 295 175 295 175 263.5 154 c 128,-1,11
 232 133 232 133 232 83 c 2,12,-1
 232 -210 l 2,13,14
 232 -263 232 -263 207 -298 c 128,-1,15
 182 -333 182 -333 137.5 -350.5 c 128,-1,16
 93 -368 93 -368 35 -368 c 1,17,-1
 35 -296 l 1,18,19
 87 -294 87 -294 116.5 -272.5 c 128,-1,20
 146 -251 146 -251 146 -202 c 2,21,-1
 146 87 l 2,22,23
 146 138 146 138 173 168.5 c 128,-1,24
 200 199 200 199 254 209 c 1,25,-1
 254 215 l 1,26,27
 199 225 199 225 172.5 255.5 c 128,-1,28
 146 286 146 286 146 337 c 2,29,-1
 146 628 l 2,30,31
 146 661 146 661 133 681.5 c 128,-1,32
 120 702 120 702 95 712 c 128,-1,33
 70 722 70 722 35 722 c 1,34,-1
 35 793 l 1,0,1
EndSplineSet
EndChar

StartChar: asciitilde.knda
Encoding: 126 126 40
Width: 572
Flags: W
LayerCount: 2
Fore
SplineSet
269 309 m 0,0,1
 233 325 233 325 209.5 330.5 c 128,-1,2
 186 336 186 336 164 336 c 0,3,4
 136 336 136 336 105 319 c 128,-1,5
 74 302 74 302 50 277 c 1,6,-1
 50 355 l 1,7,8
 74 381 74 381 104 394.5 c 128,-1,9
 134 408 134 408 170 408 c 0,10,11
 199 408 199 408 227.5 402 c 128,-1,12
 256 396 256 396 302 376 c 0,13,14
 338 360 338 360 361.5 354.5 c 128,-1,15
 385 349 385 349 406 349 c 0,16,17
 435 349 435 349 466 366 c 128,-1,18
 497 383 497 383 521 408 c 1,19,-1
 521 331 l 1,20,21
 497 305 497 305 467 291 c 128,-1,22
 437 277 437 277 401 277 c 0,23,24
 373 277 373 277 343.5 283.5 c 128,-1,25
 314 290 314 290 269 309 c 0,0,1
EndSplineSet
EndChar

StartChar: uni00AD.knda
Encoding: 173 173 42
Width: 1336
Flags: W
AnchorPoint: "Anchor-0" 669 -24 basechar 0
LayerCount: 2
Fore
SplineSet
308 -12 m 0,0,1
 234 -12 234 -12 183 14 c 128,-1,2
 132 40 132 40 100.5 83 c 128,-1,3
 69 126 69 126 54.5 177 c 128,-1,4
 40 228 40 228 40 279 c 0,5,6
 40 360 40 360 73 424.5 c 128,-1,7
 106 489 106 489 166 526 c 128,-1,8
 226 563 226 563 306 563 c 0,9,10
 381 563 381 563 432 536.5 c 128,-1,11
 483 510 483 510 514 467 c 128,-1,12
 545 424 545 424 558.5 373.5 c 128,-1,13
 572 323 572 323 572 276 c 0,14,15
 572 191 572 191 539 126 c 128,-1,16
 506 61 506 61 447 24.5 c 128,-1,17
 388 -12 388 -12 308 -12 c 0,0,1
306 67 m 0,18,19
 362 67 362 67 403 91.5 c 128,-1,20
 444 116 444 116 467 163.5 c 128,-1,21
 490 211 490 211 490 279 c 0,22,23
 490 340 490 340 469 386 c 128,-1,24
 448 432 448 432 407 458 c 128,-1,25
 366 484 366 484 305 484 c 0,26,27
 253 484 253 484 211.5 461 c 128,-1,28
 170 438 170 438 146 392 c 128,-1,29
 122 346 122 346 122 277 c 0,30,31
 122 209 122 209 144 162 c 128,-1,32
 166 115 166 115 207.5 91 c 128,-1,33
 249 67 249 67 306 67 c 0,18,19
721 -12 m 0,34,35
 645 -12 645 -12 588 26.5 c 128,-1,36
 531 65 531 65 486 123 c 1,37,-1
 538 177 l 1,38,39
 579 124 579 124 623 95.5 c 128,-1,40
 667 67 667 67 722 67 c 0,41,42
 784 67 784 67 817 106 c 128,-1,43
 850 145 850 145 850 210 c 0,44,45
 850 276 850 276 824.5 329.5 c 128,-1,46
 799 383 799 383 752.5 421 c 128,-1,47
 706 459 706 459 644 477 c 1,48,-1
 782 481 l 1,49,50
 830 451 830 451 863.5 412.5 c 128,-1,51
 897 374 897 374 914.5 325 c 128,-1,52
 932 276 932 276 932 215 c 0,53,54
 932 175 932 175 921.5 134.5 c 128,-1,55
 911 94 911 94 887 61 c 128,-1,56
 863 28 863 28 822 8 c 128,-1,57
 781 -12 781 -12 721 -12 c 0,34,35
1088 -12 m 0,58,59
 1012 -12 1012 -12 955.5 26.5 c 128,-1,60
 899 65 899 65 853 123 c 1,61,-1
 904 177 l 1,62,63
 946 124 946 124 990 95.5 c 128,-1,64
 1034 67 1034 67 1091 67 c 0,65,66
 1151 67 1151 67 1184 106 c 128,-1,67
 1217 145 1217 145 1217 210 c 0,68,69
 1217 280 1217 280 1192 333 c 128,-1,70
 1167 386 1167 386 1123 424.5 c 128,-1,71
 1079 463 1079 463 1021 488 c 1,72,-1
 1064 565 l 1,73,74
 1132 532 1132 532 1185 482 c 128,-1,75
 1238 432 1238 432 1268.5 365 c 128,-1,76
 1299 298 1299 298 1299 215 c 0,77,78
 1299 150 1299 150 1276 98.5 c 128,-1,79
 1253 47 1253 47 1206.5 17.5 c 128,-1,80
 1160 -12 1160 -12 1088 -12 c 0,58,59
923 612 m 0,81,82
 923 593 923 593 915.5 565.5 c 128,-1,83
 908 538 908 538 882 516 c 0,84,85
 857 494 857 494 822.5 484 c 128,-1,86
 788 474 788 474 730 474 c 2,87,-1
 600 474 l 1,88,-1
 600 551 l 1,89,-1
 712 551 l 2,90,91
 766 551 766 551 788 556 c 128,-1,92
 810 561 810 561 820 569 c 0,93,94
 833 579 833 579 837.5 591.5 c 128,-1,95
 842 604 842 604 842 618 c 0,96,97
 842 651 842 651 826 682.5 c 128,-1,98
 810 714 810 714 777 747 c 1,99,-1
 842 790 l 1,100,101
 889 738 889 738 906 696.5 c 128,-1,102
 923 655 923 655 923 612 c 0,81,82
EndSplineSet
EndChar

StartChar: multiply.knda
Encoding: 215 215 43
Width: 361
Flags: W
LayerCount: 2
Fore
SplineSet
264 62 m 0,0,1
 284 62 284 62 305 65.5 c 128,-1,2
 326 69 326 69 339 73 c 1,3,-1
 339 6 l 1,4,5
 325 -1 325 -1 299 -5.5 c 128,-1,6
 273 -10 273 -10 249 -10 c 0,7,8
 207 -10 207 -10 171.5 4.5 c 128,-1,9
 136 19 136 19 114 55 c 128,-1,10
 92 91 92 91 92 156 c 2,11,-1
 92 468 l 1,12,-1
 16 468 l 1,13,-1
 16 510 l 1,14,-1
 93 545 l 1,15,-1
 128 659 l 1,16,-1
 180 659 l 1,17,-1
 180 536 l 1,18,-1
 335 536 l 1,19,-1
 335 468 l 1,20,-1
 180 468 l 1,21,-1
 180 158 l 2,22,23
 180 109 180 109 203.5 85.5 c 128,-1,24
 227 62 227 62 264 62 c 0,0,1
EndSplineSet
EndChar

StartChar: guillemotleft
Encoding: 171 171 44
Width: 800
Flags: W
AnchorPoint: "Anchor-0" 395 -24 basechar 0
LayerCount: 2
Fore
SplineSet
557 -12 m 0,0,1
 518 -12 518 -12 486.5 -0.5 c 128,-1,2
 455 11 455 11 429 37 c 128,-1,3
 403 63 403 63 379 105 c 1,4,-1
 411 104 l 1,5,6
 388 59 388 59 360.5 34 c 128,-1,7
 333 9 333 9 298.5 -1.5 c 128,-1,8
 264 -12 264 -12 218 -12 c 0,9,10
 162 -12 162 -12 124 9.5 c 128,-1,11
 86 31 86 31 67.5 65 c 128,-1,12
 49 99 49 99 49 136 c 0,13,14
 49 179 49 179 65.5 210 c 128,-1,15
 82 241 82 241 113 267.5 c 128,-1,16
 144 294 144 294 187 321 c 0,17,18
 225 346 225 346 248 368 c 128,-1,19
 271 390 271 390 271 422 c 0,20,21
 271 443 271 443 263 458.5 c 128,-1,22
 255 474 255 474 237.5 482 c 128,-1,23
 220 490 220 490 190 490 c 0,24,25
 147 490 147 490 127 471.5 c 128,-1,26
 107 453 107 453 107 422 c 0,27,28
 107 406 107 406 112 391.5 c 128,-1,29
 117 377 117 377 127 363 c 1,30,-1
 57 332 l 1,31,32
 41 357 41 357 33.5 381.5 c 128,-1,33
 26 406 26 406 26 431 c 0,34,35
 26 466 26 466 44 496 c 128,-1,36
 62 526 62 526 98.5 544.5 c 128,-1,37
 135 563 135 563 191 563 c 0,38,39
 253 563 253 563 288 541.5 c 128,-1,40
 323 520 323 520 337.5 488 c 128,-1,41
 352 456 352 456 352 423 c 0,42,43
 352 387 352 387 336.5 358.5 c 128,-1,44
 321 330 321 330 292.5 305 c 128,-1,45
 264 280 264 280 224 254 c 0,46,47
 178 224 178 224 154.5 201 c 128,-1,48
 131 178 131 178 131 141 c 0,49,50
 131 102 131 102 157 84.5 c 128,-1,51
 183 67 183 67 223 67 c 0,52,53
 290 67 290 67 322 102 c 128,-1,54
 354 137 354 137 358 195 c 1,55,-1
 434 195 l 1,56,57
 439 128 439 128 475.5 97.5 c 128,-1,58
 512 67 512 67 561 67 c 0,59,60
 616 67 616 67 648.5 106 c 128,-1,61
 681 145 681 145 681 210 c 0,62,63
 681 280 681 280 656.5 333 c 128,-1,64
 632 386 632 386 588 424.5 c 128,-1,65
 544 463 544 463 485 488 c 1,66,-1
 528 565 l 1,67,68
 596 532 596 532 649 482 c 128,-1,69
 702 432 702 432 732.5 365 c 128,-1,70
 763 298 763 298 763 215 c 0,71,72
 763 147 763 147 739 96 c 128,-1,73
 715 45 715 45 669 16.5 c 128,-1,74
 623 -12 623 -12 557 -12 c 0,0,1
EndSplineSet
EndChar

StartChar: guillemotright
Encoding: 187 187 45
Width: 344
Flags: W
LayerCount: 2
Fore
SplineSet
332 468 m 1,0,-1
 197 468 l 1,1,-1
 197 0 l 1,2,-1
 109 0 l 1,3,-1
 109 468 l 1,4,-1
 15 468 l 1,5,-1
 15 509 l 1,6,-1
 109 539 l 1,7,-1
 109 570 l 2,8,9
 109 639 109 639 129.5 682 c 128,-1,10
 150 725 150 725 189 745 c 128,-1,11
 228 765 228 765 283 765 c 0,12,13
 315 765 315 765 341.5 759.5 c 128,-1,14
 368 754 368 754 387 747 c 1,15,-1
 364 678 l 1,16,17
 348 683 348 683 327 688 c 128,-1,18
 306 693 306 693 284 693 c 0,19,20
 240 693 240 693 218.5 663.5 c 128,-1,21
 197 634 197 634 197 571 c 2,22,-1
 197 536 l 1,23,-1
 332 536 l 1,24,-1
 332 468 l 1,0,-1
EndSplineSet
EndChar

StartChar: A
Encoding: 65 65 46
Width: 863
Flags: W
AnchorPoint: "Anchor-0" 431 -24 basechar 0
LayerCount: 2
Fore
SplineSet
421 69 m 0,0,1
 530 69 530 69 601.5 96 c 128,-1,2
 673 123 673 123 708.5 180.5 c 128,-1,3
 744 238 744 238 744 328 c 0,4,5
 744 373 744 373 732 409.5 c 128,-1,6
 720 446 720 446 696 467.5 c 128,-1,7
 672 489 672 489 635 489 c 0,8,9
 612 489 612 489 591.5 472.5 c 128,-1,10
 571 456 571 456 571 419 c 0,11,12
 571 394 571 394 585 373.5 c 128,-1,13
 599 353 599 353 623.5 337.5 c 128,-1,14
 648 322 648 322 679 312 c 1,15,-1
 679 241 l 1,16,-1
 373 241 l 1,17,-1
 373 317 l 1,18,-1
 552 317 l 1,19,20
 534 332 534 332 521 350 c 128,-1,21
 508 368 508 368 500.5 389.5 c 128,-1,22
 493 411 493 411 493 438 c 0,23,24
 493 469 493 469 508.5 497.5 c 128,-1,25
 524 526 524 526 555.5 544.5 c 128,-1,26
 587 563 587 563 634 563 c 0,27,28
 695 563 695 563 738 533 c 128,-1,29
 781 503 781 503 803.5 450.5 c 128,-1,30
 826 398 826 398 826 330 c 0,31,32
 826 210 826 210 778 134.5 c 128,-1,33
 730 59 730 59 639.5 23.5 c 128,-1,34
 549 -12 549 -12 423 -12 c 0,35,36
 295 -12 295 -12 209 29.5 c 128,-1,37
 123 71 123 71 80 144 c 128,-1,38
 37 217 37 217 37 311 c 0,39,40
 37 392 37 392 64 448 c 128,-1,41
 91 504 91 504 137.5 533.5 c 128,-1,42
 184 563 184 563 242 563 c 0,43,44
 286 563 286 563 318 547 c 128,-1,45
 350 531 350 531 367.5 501 c 128,-1,46
 385 471 385 471 385 429 c 0,47,48
 385 386 385 386 365.5 352 c 128,-1,49
 346 318 346 318 307.5 298 c 128,-1,50
 269 278 269 278 212 278 c 0,51,52
 176 278 176 278 147 289 c 128,-1,53
 118 300 118 300 97.5 316 c 128,-1,54
 77 332 77 332 63 348 c 1,55,-1
 87 414 l 1,56,57
 96 402 96 402 112 386.5 c 128,-1,58
 128 371 128 371 151.5 359.5 c 128,-1,59
 175 348 175 348 206 348 c 0,60,61
 259 348 259 348 283 370 c 128,-1,62
 307 392 307 392 307 426 c 0,63,64
 307 458 307 458 289 475.5 c 128,-1,65
 271 493 271 493 242 493 c 0,66,67
 183 493 183 493 150 446.5 c 128,-1,68
 117 400 117 400 117 315 c 2,69,-1
 117 311 l 2,70,71
 117 265 117 265 134 221.5 c 128,-1,72
 151 178 151 178 187 143.5 c 128,-1,73
 223 109 223 109 281 89 c 128,-1,74
 339 69 339 69 421 69 c 0,0,1
EndSplineSet
EndChar

StartChar: Aacute
Encoding: 193 193 47
Width: 508
Flags: W
LayerCount: 2
Fore
SplineSet
203 0 m 1,0,-1
 0 536 l 1,1,-1
 94 536 l 1,2,-1
 208 220 l 2,3,4
 216 198 216 198 225 171 c 128,-1,5
 234 144 234 144 241 119.5 c 128,-1,6
 248 95 248 95 251 78 c 1,7,-1
 255 78 l 1,8,9
 259 95 259 95 266.5 120 c 128,-1,10
 274 145 274 145 283.5 172 c 128,-1,11
 293 199 293 199 300 220 c 2,12,-1
 414 536 l 1,13,-1
 508 536 l 1,14,-1
 304 0 l 1,15,-1
 203 0 l 1,0,-1
EndSplineSet
EndChar

StartChar: Acircumflex
Encoding: 194 194 48
Width: 479
Flags: W
LayerCount: 2
Fore
SplineSet
434 148 m 0,0,1
 434 96 434 96 408 61 c 128,-1,2
 382 26 382 26 334 8 c 128,-1,3
 286 -10 286 -10 220 -10 c 0,4,5
 164 -10 164 -10 123.5 -1 c 128,-1,6
 83 8 83 8 52 24 c 1,7,-1
 52 104 l 1,8,9
 84 88 84 88 129.5 74.5 c 128,-1,10
 175 61 175 61 222 61 c 0,11,12
 289 61 289 61 319 82.5 c 128,-1,13
 349 104 349 104 349 140 c 0,14,15
 349 160 349 160 338 176 c 128,-1,16
 327 192 327 192 298.5 208 c 128,-1,17
 270 224 270 224 217 244 c 0,18,19
 165 264 165 264 128 284 c 128,-1,20
 91 304 91 304 71 332 c 128,-1,21
 51 360 51 360 51 404 c 0,22,23
 51 472 51 472 106.5 509 c 128,-1,24
 162 546 162 546 252 546 c 0,25,26
 301 546 301 546 343.5 536.5 c 128,-1,27
 386 527 386 527 423 510 c 1,28,-1
 393 440 l 1,29,30
 359 454 359 454 322 464 c 128,-1,31
 285 474 285 474 246 474 c 0,32,33
 192 474 192 474 163.5 456.5 c 128,-1,34
 135 439 135 439 135 409 c 0,35,36
 135 387 135 387 148 371.5 c 128,-1,37
 161 356 161 356 191.5 341.5 c 128,-1,38
 222 327 222 327 273 307 c 0,39,40
 324 288 324 288 360 268 c 128,-1,41
 396 248 396 248 415 219.5 c 128,-1,42
 434 191 434 191 434 148 c 0,0,1
EndSplineSet
EndChar

StartChar: Adieresis
Encoding: 196 196 49
Width: 561
Flags: W
LayerCount: 2
Fore
SplineSet
288 545 m 0,0,1
 386 545 386 545 433 502 c 128,-1,2
 480 459 480 459 480 365 c 2,3,-1
 480 0 l 1,4,-1
 416 0 l 1,5,-1
 399 76 l 1,6,-1
 395 76 l 1,7,8
 372 47 372 47 347.5 27.5 c 128,-1,9
 323 8 323 8 291.5 -1 c 128,-1,10
 260 -10 260 -10 215 -10 c 0,11,12
 167 -10 167 -10 128.5 7 c 128,-1,13
 90 24 90 24 68 59.5 c 128,-1,14
 46 95 46 95 46 149 c 0,15,16
 46 229 46 229 109 272.5 c 128,-1,17
 172 316 172 316 303 320 c 2,18,-1
 394 323 l 1,19,-1
 394 355 l 2,20,21
 394 422 394 422 365 448 c 128,-1,22
 336 474 336 474 283 474 c 0,23,24
 241 474 241 474 203 461.5 c 128,-1,25
 165 449 165 449 132 433 c 1,26,-1
 105 499 l 1,27,28
 140 518 140 518 188 531.5 c 128,-1,29
 236 545 236 545 288 545 c 0,0,1
314 259 m 2,30,31
 214 255 214 255 175.5 227 c 128,-1,32
 137 199 137 199 137 148 c 0,33,34
 137 103 137 103 164.5 82 c 128,-1,35
 192 61 192 61 235 61 c 0,36,37
 303 61 303 61 348 98.5 c 128,-1,38
 393 136 393 136 393 214 c 2,39,-1
 393 262 l 1,40,-1
 314 259 l 2,30,31
EndSplineSet
EndChar

StartChar: Agrave
Encoding: 192 192 50
Width: 258
Flags: W
LayerCount: 2
Fore
SplineSet
173 0 m 1,0,-1
 85 0 l 1,1,-1
 85 760 l 1,2,-1
 173 760 l 1,3,-1
 173 0 l 1,0,-1
EndSplineSet
EndChar

StartChar: Aring
Encoding: 197 197 51
Width: 615
Flags: W
LayerCount: 2
Fore
SplineSet
173 575 m 2,0,1
 173 541 173 541 171.5 511.5 c 128,-1,2
 170 482 170 482 168 465 c 1,3,-1
 173 465 l 1,4,5
 196 499 196 499 236 522 c 128,-1,6
 276 545 276 545 339 545 c 0,7,8
 439 545 439 545 499.5 475.5 c 128,-1,9
 560 406 560 406 560 268 c 0,10,11
 560 176 560 176 532.5 114 c 128,-1,12
 505 52 505 52 455 21 c 128,-1,13
 405 -10 405 -10 339 -10 c 0,14,15
 276 -10 276 -10 236 13 c 128,-1,16
 196 36 196 36 173 68 c 1,17,-1
 166 68 l 1,18,-1
 148 0 l 1,19,-1
 85 0 l 1,20,-1
 85 760 l 1,21,-1
 173 760 l 1,22,-1
 173 575 l 2,0,1
324 472 m 0,23,24
 267 472 267 472 234 450.5 c 128,-1,25
 201 429 201 429 187 384.5 c 128,-1,26
 173 340 173 340 173 271 c 2,27,-1
 173 267 l 2,28,29
 173 168 173 168 205.5 115.5 c 128,-1,30
 238 63 238 63 326 63 c 0,31,32
 398 63 398 63 433.5 116 c 128,-1,33
 469 169 469 169 469 269 c 0,34,35
 469 370 469 370 433.5 421 c 128,-1,36
 398 472 398 472 324 472 c 0,23,24
EndSplineSet
EndChar

StartChar: Atilde
Encoding: 195 195 52
Width: 741
Flags: W
LayerCount: 2
Fore
SplineSet
643 0 m 1,0,-1
 553 0 l 1,1,-1
 553 333 l 1,2,-1
 187 333 l 1,3,-1
 187 0 l 1,4,-1
 97 0 l 1,5,-1
 97 714 l 1,6,-1
 187 714 l 1,7,-1
 187 412 l 1,8,-1
 553 412 l 1,9,-1
 553 714 l 1,10,-1
 643 714 l 1,11,-1
 643 0 l 1,0,-1
EndSplineSet
EndChar

StartChar: AE
Encoding: 198 198 53
Width: 480
Flags: W
LayerCount: 2
Fore
SplineSet
300 -10 m 0,0,1
 229 -10 229 -10 173.5 19 c 128,-1,2
 118 48 118 48 86.5 109 c 128,-1,3
 55 170 55 170 55 265 c 0,4,5
 55 364 55 364 88 426 c 128,-1,6
 121 488 121 488 177.5 517 c 128,-1,7
 234 546 234 546 306 546 c 0,8,9
 347 546 347 546 385 537.5 c 128,-1,10
 423 529 423 529 447 517 c 1,11,-1
 420 444 l 1,12,13
 396 453 396 453 364 461 c 128,-1,14
 332 469 332 469 304 469 c 0,15,16
 250 469 250 469 215 446 c 128,-1,17
 180 423 180 423 163 378 c 128,-1,18
 146 333 146 333 146 266 c 0,19,20
 146 202 146 202 163 157 c 128,-1,21
 180 112 180 112 214 89 c 128,-1,22
 248 66 248 66 299 66 c 0,23,24
 343 66 343 66 376.5 75 c 128,-1,25
 410 84 410 84 438 97 c 1,26,-1
 438 19 l 1,27,28
 411 5 411 5 378.5 -2.5 c 128,-1,29
 346 -10 346 -10 300 -10 c 0,0,1
EndSplineSet
EndChar

StartChar: B
Encoding: 66 66 54
Width: 650
Flags: W
LayerCount: 2
Fore
SplineSet
301 714 m 2,0,1
 435 714 435 714 503.5 674.5 c 128,-1,2
 572 635 572 635 572 537 c 0,3,4
 572 495 572 495 556.5 462.5 c 128,-1,5
 541 430 541 430 510.5 408.5 c 128,-1,6
 480 387 480 387 436 379 c 1,7,-1
 436 374 l 1,8,9
 481 367 481 367 517.5 348 c 128,-1,10
 554 329 554 329 575 294 c 128,-1,11
 596 259 596 259 596 203 c 0,12,13
 596 138 596 138 566 92.5 c 128,-1,14
 536 47 536 47 480.5 23.5 c 128,-1,15
 425 0 425 0 348 0 c 2,16,-1
 97 0 l 1,17,-1
 97 714 l 1,18,-1
 301 714 l 2,0,1
319 410 m 2,19,20
 411 410 411 410 445 439.5 c 128,-1,21
 479 469 479 469 479 527 c 0,22,23
 479 586 479 586 437.5 611.5 c 128,-1,24
 396 637 396 637 305 637 c 2,25,-1
 187 637 l 1,26,-1
 187 410 l 1,27,-1
 319 410 l 2,19,20
187 335 m 1,28,-1
 187 76 l 1,29,-1
 331 76 l 2,30,31
 426 76 426 76 463 113 c 128,-1,32
 500 150 500 150 500 210 c 0,33,34
 500 248 500 248 483.5 276 c 128,-1,35
 467 304 467 304 428.5 319.5 c 128,-1,36
 390 335 390 335 324 335 c 2,37,-1
 187 335 l 1,28,-1
EndSplineSet
EndChar

StartChar: C
Encoding: 67 67 55
Width: 632
Flags: W
LayerCount: 2
Fore
SplineSet
403 645 m 0,0,1
 346 645 346 645 300 625.5 c 128,-1,2
 254 606 254 606 222 568.5 c 128,-1,3
 190 531 190 531 173 477.5 c 128,-1,4
 156 424 156 424 156 357 c 0,5,6
 156 269 156 269 183.5 204 c 128,-1,7
 211 139 211 139 265.5 104 c 128,-1,8
 320 69 320 69 402 69 c 0,9,10
 449 69 449 69 491 77 c 128,-1,11
 533 85 533 85 573 97 c 1,12,-1
 573 19 l 1,13,14
 533 4 533 4 490.5 -3 c 128,-1,15
 448 -10 448 -10 389 -10 c 0,16,17
 280 -10 280 -10 207 35 c 128,-1,18
 134 80 134 80 97.5 163 c 128,-1,19
 61 246 61 246 61 358 c 0,20,21
 61 439 61 439 83.5 506 c 128,-1,22
 106 573 106 573 149.5 622 c 128,-1,23
 193 671 193 671 257 697.5 c 128,-1,24
 321 724 321 724 404 724 c 0,25,26
 459 724 459 724 510 713 c 128,-1,27
 561 702 561 702 601 682 c 1,28,-1
 565 606 l 1,29,30
 532 621 532 621 491.5 633 c 128,-1,31
 451 645 451 645 403 645 c 0,0,1
EndSplineSet
EndChar

StartChar: Ccedilla
Encoding: 199 199 56
Width: 615
Flags: W
LayerCount: 2
Fore
SplineSet
275 -10 m 0,0,1
 175 -10 175 -10 115 59.5 c 128,-1,2
 55 129 55 129 55 267 c 256,3,4
 55 405 55 405 115.5 475.5 c 128,-1,5
 176 546 176 546 276 546 c 0,6,7
 318 546 318 546 349 535.5 c 128,-1,8
 380 525 380 525 403 507 c 128,-1,9
 426 489 426 489 442 467 c 1,10,-1
 448 467 l 1,11,12
 447 480 447 480 444.5 505.5 c 128,-1,13
 442 531 442 531 442 546 c 2,14,-1
 442 760 l 1,15,-1
 530 760 l 1,16,-1
 530 0 l 1,17,-1
 459 0 l 1,18,-1
 446 72 l 1,19,-1
 442 72 l 1,20,21
 426 49 426 49 403 30.5 c 128,-1,22
 380 12 380 12 348.5 1 c 128,-1,23
 317 -10 317 -10 275 -10 c 0,0,1
289 63 m 0,24,25
 374 63 374 63 408.5 109.5 c 128,-1,26
 443 156 443 156 443 250 c 2,27,-1
 443 266 l 2,28,29
 443 366 443 366 410 419.5 c 128,-1,30
 377 473 377 473 288 473 c 0,31,32
 217 473 217 473 181.5 416.5 c 128,-1,33
 146 360 146 360 146 265 c 0,34,35
 146 169 146 169 181.5 116 c 128,-1,36
 217 63 217 63 289 63 c 0,24,25
EndSplineSet
EndChar

StartChar: D
Encoding: 68 68 57
Width: 765
Flags: W
AnchorPoint: "Anchor-0" 382 -24 basechar 0
LayerCount: 2
Fore
SplineSet
216 -12 m 0,0,1
 138 -12 138 -12 90 46 c 128,-1,2
 42 104 42 104 42 220 c 0,3,4
 42 282 42 282 59.5 334 c 128,-1,5
 77 386 77 386 112 425.5 c 128,-1,6
 147 465 147 465 197 487 c 1,7,-1
 212 474 l 1,8,-1
 42 474 l 1,9,-1
 42 551 l 1,10,-1
 512 551 l 2,11,12
 565 551 565 551 587.5 556 c 128,-1,13
 610 561 610 561 620 569 c 0,14,15
 634 579 634 579 638 591.5 c 128,-1,16
 642 604 642 604 642 618 c 0,17,18
 642 651 642 651 626 682.5 c 128,-1,19
 610 714 610 714 577 747 c 1,20,-1
 642 790 l 1,21,22
 689 738 689 738 706 696.5 c 128,-1,23
 723 655 723 655 723 612 c 0,24,25
 723 593 723 593 715 565.5 c 128,-1,26
 707 538 707 538 682 516 c 0,27,28
 672 507 672 507 657.5 499 c 128,-1,29
 643 491 643 491 625 485.5 c 128,-1,30
 607 480 607 480 583 477 c 1,31,-1
 584 483 l 1,32,33
 627 460 627 460 658 421 c 128,-1,34
 689 382 689 382 706 331 c 128,-1,35
 723 280 723 280 723 220 c 0,36,37
 723 104 723 104 674.5 46 c 128,-1,38
 626 -12 626 -12 545 -12 c 0,39,40
 502 -12 502 -12 470.5 -0.5 c 128,-1,41
 439 11 439 11 414 36.5 c 128,-1,42
 389 62 389 62 366 104 c 1,43,-1
 398 109 l 1,44,45
 375 58 375 58 346.5 32 c 128,-1,46
 318 6 318 6 285 -3 c 128,-1,47
 252 -12 252 -12 216 -12 c 0,0,1
227 67 m 0,48,49
 277 67 277 67 308 102 c 128,-1,50
 339 137 339 137 344 195 c 1,51,-1
 420 195 l 1,52,53
 425 128 425 128 460.5 97.5 c 128,-1,54
 496 67 496 67 537 67 c 0,55,56
 585 67 585 67 613 101 c 128,-1,57
 641 135 641 135 641 217 c 0,58,59
 641 269 641 269 625.5 316 c 128,-1,60
 610 363 610 363 579 399 c 128,-1,61
 548 435 548 435 501.5 455.5 c 128,-1,62
 455 476 455 476 393 476 c 2,63,-1
 376 476 l 2,64,65
 314 476 314 476 267 457 c 128,-1,66
 220 438 220 438 188 403 c 128,-1,67
 156 368 156 368 140 321.5 c 128,-1,68
 124 275 124 275 124 219 c 0,69,70
 124 137 124 137 151 102 c 128,-1,71
 178 67 178 67 227 67 c 0,48,49
EndSplineSet
EndChar

StartChar: Eth
Encoding: 208 208 58
Width: 935
Flags: W
LayerCount: 2
Fore
SplineSet
673 546 m 0,0,1
 764 546 764 546 809 499.5 c 128,-1,2
 854 453 854 453 854 349 c 2,3,-1
 854 0 l 1,4,-1
 767 0 l 1,5,-1
 767 345 l 2,6,7
 767 408 767 408 740.5 440 c 128,-1,8
 714 472 714 472 658 472 c 0,9,10
 580 472 580 472 546.5 427 c 128,-1,11
 513 382 513 382 513 296 c 2,12,-1
 513 0 l 1,13,-1
 426 0 l 1,14,-1
 426 345 l 2,15,16
 426 387 426 387 414 415.5 c 128,-1,17
 402 444 402 444 378 458 c 128,-1,18
 354 472 354 472 316 472 c 0,19,20
 262 472 262 472 231 449.5 c 128,-1,21
 200 427 200 427 186.5 384 c 128,-1,22
 173 341 173 341 173 278 c 2,23,-1
 173 0 l 1,24,-1
 85 0 l 1,25,-1
 85 536 l 1,26,-1
 156 536 l 1,27,-1
 169 463 l 1,28,-1
 174 463 l 1,29,30
 191 491 191 491 215.5 509.5 c 128,-1,31
 240 528 240 528 270 537 c 128,-1,32
 300 546 300 546 332 546 c 0,33,34
 394 546 394 546 435.5 524 c 128,-1,35
 477 502 477 502 496 456 c 1,36,-1
 501 456 l 1,37,38
 528 502 528 502 574.5 524 c 128,-1,39
 621 546 621 546 673 546 c 0,0,1
EndSplineSet
EndChar

StartChar: E
Encoding: 69 69 59
Width: 556
Flags: W
LayerCount: 2
Fore
SplineSet
496 0 m 1,0,-1
 97 0 l 1,1,-1
 97 714 l 1,2,-1
 496 714 l 1,3,-1
 496 635 l 1,4,-1
 187 635 l 1,5,-1
 187 412 l 1,6,-1
 478 412 l 1,7,-1
 478 334 l 1,8,-1
 187 334 l 1,9,-1
 187 79 l 1,10,-1
 496 79 l 1,11,-1
 496 0 l 1,0,-1
EndSplineSet
EndChar

StartChar: Eacute
Encoding: 201 201 60
Width: 344
Flags: W
LayerCount: 2
Fore
SplineSet
332 468 m 1,0,-1
 197 468 l 1,1,-1
 197 0 l 1,2,-1
 109 0 l 1,3,-1
 109 468 l 1,4,-1
 15 468 l 1,5,-1
 15 509 l 1,6,-1
 109 539 l 1,7,-1
 109 570 l 2,8,9
 109 639 109 639 129.5 682 c 128,-1,10
 150 725 150 725 189 745 c 128,-1,11
 228 765 228 765 283 765 c 0,12,13
 315 765 315 765 341.5 759.5 c 128,-1,14
 368 754 368 754 387 747 c 1,15,-1
 364 678 l 1,16,17
 348 683 348 683 327 688 c 128,-1,18
 306 693 306 693 284 693 c 0,19,20
 240 693 240 693 218.5 663.5 c 128,-1,21
 197 634 197 634 197 571 c 2,22,-1
 197 536 l 1,23,-1
 332 536 l 1,24,-1
 332 468 l 1,0,-1
EndSplineSet
EndChar

StartChar: Ecircumflex
Encoding: 202 202 61
Width: 615
Flags: W
LayerCount: 2
Fore
SplineSet
275 546 m 0,0,1
 328 546 328 546 370.5 526 c 128,-1,2
 413 506 413 506 443 465 c 1,3,-1
 448 465 l 1,4,-1
 460 536 l 1,5,-1
 530 536 l 1,6,-1
 530 -9 l 2,7,8
 530 -85 530 -85 504 -136.5 c 128,-1,9
 478 -188 478 -188 425 -214 c 128,-1,10
 372 -240 372 -240 290 -240 c 0,11,12
 232 -240 232 -240 183.5 -231.5 c 128,-1,13
 135 -223 135 -223 97 -206 c 1,14,-1
 97 -125 l 1,15,16
 135 -145 135 -145 186 -156 c 128,-1,17
 237 -167 237 -167 295 -167 c 0,18,19
 364 -167 364 -167 403.5 -126.5 c 128,-1,20
 443 -86 443 -86 443 -16 c 2,21,-1
 443 5 l 2,22,23
 443 17 443 17 444 39.5 c 128,-1,24
 445 62 445 62 446 71 c 1,25,-1
 442 71 l 1,26,27
 414 30 414 30 372.5 10 c 128,-1,28
 331 -10 331 -10 276 -10 c 0,29,30
 172 -10 172 -10 113.5 63 c 128,-1,31
 55 136 55 136 55 267 c 0,32,33
 55 395 55 395 113.5 470.5 c 128,-1,34
 172 546 172 546 275 546 c 0,0,1
287 472 m 0,35,36
 242 472 242 472 210.5 448 c 128,-1,37
 179 424 179 424 162.5 378 c 128,-1,38
 146 332 146 332 146 266 c 0,39,40
 146 167 146 167 182.5 114.5 c 128,-1,41
 219 62 219 62 289 62 c 0,42,43
 330 62 330 62 359 72.5 c 128,-1,44
 388 83 388 83 407 105.5 c 128,-1,45
 426 128 426 128 435 163 c 128,-1,46
 444 198 444 198 444 246 c 2,47,-1
 444 267 l 2,48,49
 444 340 444 340 427.5 385 c 128,-1,50
 411 430 411 430 376 451 c 128,-1,51
 341 472 341 472 287 472 c 0,35,36
EndSplineSet
EndChar

StartChar: Edieresis
Encoding: 203 203 62
Width: 618
Flags: W
LayerCount: 2
Fore
SplineSet
173 537 m 2,0,1
 173 518 173 518 171.5 498 c 128,-1,2
 170 478 170 478 168 462 c 1,3,-1
 174 462 l 1,4,5
 191 490 191 490 217 508 c 128,-1,6
 243 526 243 526 275 535.5 c 128,-1,7
 307 545 307 545 341 545 c 0,8,9
 406 545 406 545 449.5 524.5 c 128,-1,10
 493 504 493 504 515 461 c 128,-1,11
 537 418 537 418 537 349 c 2,12,-1
 537 0 l 1,13,-1
 450 0 l 1,14,-1
 450 343 l 2,15,16
 450 408 450 408 421 440 c 128,-1,17
 392 472 392 472 330 472 c 0,18,19
 270 472 270 472 236 449.5 c 128,-1,20
 202 427 202 427 187.5 383.5 c 128,-1,21
 173 340 173 340 173 277 c 2,22,-1
 173 0 l 1,23,-1
 85 0 l 1,24,-1
 85 760 l 1,25,-1
 173 760 l 1,26,-1
 173 537 l 2,0,1
EndSplineSet
EndChar

StartChar: Egrave
Encoding: 200 200 63
Width: 564
Flags: W
LayerCount: 2
Fore
SplineSet
292 546 m 0,0,1
 361 546 361 546 410.5 516 c 128,-1,2
 460 486 460 486 486.5 431.5 c 128,-1,3
 513 377 513 377 513 304 c 2,4,-1
 513 251 l 1,5,-1
 146 251 l 1,6,7
 148 160 148 160 192.5 112.5 c 128,-1,8
 237 65 237 65 317 65 c 0,9,10
 368 65 368 65 407.5 74.5 c 128,-1,11
 447 84 447 84 489 102 c 1,12,-1
 489 25 l 1,13,14
 448 7 448 7 408 -1.5 c 128,-1,15
 368 -10 368 -10 313 -10 c 0,16,17
 237 -10 237 -10 178.5 21 c 128,-1,18
 120 52 120 52 87.5 113.5 c 128,-1,19
 55 175 55 175 55 264 c 0,20,21
 55 352 55 352 84.5 415 c 128,-1,22
 114 478 114 478 167.5 512 c 128,-1,23
 221 546 221 546 292 546 c 0,0,1
291 474 m 0,24,25
 228 474 228 474 191.5 433.5 c 128,-1,26
 155 393 155 393 148 321 c 1,27,-1
 421 321 l 1,28,29
 421 367 421 367 407 401 c 128,-1,30
 393 435 393 435 364.5 454.5 c 128,-1,31
 336 474 336 474 291 474 c 0,24,25
EndSplineSet
EndChar

StartChar: F
Encoding: 70 70 64
Width: 519
Flags: W
LayerCount: 2
Fore
SplineSet
187 0 m 1,0,-1
 97 0 l 1,1,-1
 97 714 l 1,2,-1
 496 714 l 1,3,-1
 496 635 l 1,4,-1
 187 635 l 1,5,-1
 187 382 l 1,6,-1
 477 382 l 1,7,-1
 477 303 l 1,8,-1
 187 303 l 1,9,-1
 187 0 l 1,0,-1
EndSplineSet
EndChar

StartChar: G
Encoding: 71 71 65
Width: 728
Flags: W
LayerCount: 2
Fore
SplineSet
407 377 m 1,0,-1
 654 377 l 1,1,-1
 654 27 l 1,2,3
 596 8 596 8 537 -1 c 128,-1,4
 478 -10 478 -10 403 -10 c 0,5,6
 292 -10 292 -10 216 34.5 c 128,-1,7
 140 79 140 79 100.5 161.5 c 128,-1,8
 61 244 61 244 61 357 c 0,9,10
 61 469 61 469 105 551 c 128,-1,11
 149 633 149 633 231.5 678.5 c 128,-1,12
 314 724 314 724 431 724 c 0,13,14
 491 724 491 724 544.5 713 c 128,-1,15
 598 702 598 702 644 682 c 1,16,-1
 610 604 l 1,17,18
 572 621 572 621 524.5 633 c 128,-1,19
 477 645 477 645 426 645 c 0,20,21
 341 645 341 645 280 610 c 128,-1,22
 219 575 219 575 187 510.5 c 128,-1,23
 155 446 155 446 155 357 c 0,24,25
 155 272 155 272 182.5 206.5 c 128,-1,26
 210 141 210 141 269 104.5 c 128,-1,27
 328 68 328 68 424 68 c 0,28,29
 471 68 471 68 504 73 c 128,-1,30
 537 78 537 78 564 85 c 1,31,-1
 564 297 l 1,32,-1
 407 297 l 1,33,-1
 407 377 l 1,0,-1
EndSplineSet
EndChar

StartChar: H
Encoding: 72 72 66
Width: 801
Flags: W
AnchorPoint: "Anchor-0" 400 -24 basechar 0
LayerCount: 2
Fore
SplineSet
231 -12 m 0,0,1
 140 -12 140 -12 86.5 39 c 128,-1,2
 33 90 33 90 33 181 c 0,3,4
 33 267 33 267 86 321 c 128,-1,5
 139 375 139 375 236 375 c 0,6,7
 265 375 265 375 289.5 368 c 128,-1,8
 314 361 314 361 333.5 348 c 128,-1,9
 353 335 353 335 367 316 c 1,10,-1
 363 315 l 2,11,12
 364 317 364 317 364.5 324.5 c 128,-1,13
 365 332 365 332 365 335 c 0,14,15
 365 364 365 364 353 389.5 c 128,-1,16
 341 415 341 415 319 434.5 c 128,-1,17
 297 454 297 454 268.5 466 c 128,-1,18
 240 478 240 478 207 481 c 1,19,-1
 361 486 l 1,20,21
 384 474 384 474 402 454 c 128,-1,22
 420 434 420 434 430.5 406.5 c 128,-1,23
 441 379 441 379 441 343 c 0,24,25
 441 336 441 336 440 327.5 c 128,-1,26
 439 319 439 319 438 315 c 1,27,-1
 436 316 l 1,28,29
 453 335 453 335 473.5 348 c 128,-1,30
 494 361 494 361 519.5 368 c 128,-1,31
 545 375 545 375 576 375 c 0,32,33
 670 375 670 375 719 320 c 128,-1,34
 768 265 768 265 768 181 c 256,35,36
 768 97 768 97 715.5 42.5 c 128,-1,37
 663 -12 663 -12 566 -12 c 0,38,39
 521 -12 521 -12 486 1.5 c 128,-1,40
 451 15 451 15 427 41 c 128,-1,41
 403 67 403 67 390 102 c 1,42,-1
 409 101 l 1,43,44
 396 68 396 68 371.5 42.5 c 128,-1,45
 347 17 347 17 312 2.5 c 128,-1,46
 277 -12 277 -12 231 -12 c 0,0,1
237 63 m 0,47,48
 302 63 302 63 332 96.5 c 128,-1,49
 362 130 362 130 362 181 c 0,50,51
 362 236 362 236 330 268 c 128,-1,52
 298 300 298 300 241 300 c 0,53,54
 197 300 197 300 169 284.5 c 128,-1,55
 141 269 141 269 128 242.5 c 128,-1,56
 115 216 115 216 115 183 c 0,57,58
 115 128 115 128 148 95.5 c 128,-1,59
 181 63 181 63 237 63 c 0,47,48
561 63 m 0,60,61
 625 63 625 63 655.5 96.5 c 128,-1,62
 686 130 686 130 686 181 c 0,63,64
 686 218 686 218 671.5 244.5 c 128,-1,65
 657 271 657 271 630 285.5 c 128,-1,66
 603 300 603 300 564 300 c 0,67,68
 501 300 501 300 470 266.5 c 128,-1,69
 439 233 439 233 439 183 c 0,70,71
 439 128 439 128 471.5 95.5 c 128,-1,72
 504 63 504 63 561 63 c 0,60,61
34 474 m 1,73,-1
 34 551 l 1,74,-1
 557 551 l 2,75,76
 610 551 610 551 632 556 c 128,-1,77
 654 561 654 561 665 569 c 0,78,79
 678 579 678 579 682.5 591.5 c 128,-1,80
 687 604 687 604 687 618 c 0,81,82
 687 651 687 651 671 682.5 c 128,-1,83
 655 714 655 714 622 747 c 1,84,-1
 687 790 l 1,85,86
 734 738 734 738 751 696.5 c 128,-1,87
 768 655 768 655 768 612 c 0,88,89
 768 593 768 593 760 565.5 c 128,-1,90
 752 538 752 538 727 516 c 0,91,92
 701 494 701 494 666.5 484 c 128,-1,93
 632 474 632 474 575 474 c 2,94,-1
 34 474 l 1,73,-1
EndSplineSet
EndChar

StartChar: I
Encoding: 73 73 67
Width: 339
Flags: W
LayerCount: 2
Fore
SplineSet
298 0 m 1,0,-1
 40 0 l 1,1,-1
 40 52 l 1,2,-1
 124 71 l 1,3,-1
 124 642 l 1,4,-1
 40 662 l 1,5,-1
 40 714 l 1,6,-1
 298 714 l 1,7,-1
 298 662 l 1,8,-1
 214 642 l 1,9,-1
 214 71 l 1,10,-1
 298 52 l 1,11,-1
 298 0 l 1,0,-1
EndSplineSet
EndChar

StartChar: Iacute
Encoding: 205 205 68
Width: 258
Flags: W
LayerCount: 2
Fore
SplineSet
22 -240 m 0,0,1
 -3 -240 -3 -240 -22 -236.5 c 128,-1,2
 -41 -233 -41 -233 -55 -228 c 1,3,-1
 -55 -157 l 1,4,5
 -40 -161 -40 -161 -24 -164 c 128,-1,6
 -8 -167 -8 -167 11 -167 c 0,7,8
 43 -167 43 -167 64 -149.5 c 128,-1,9
 85 -132 85 -132 85 -83 c 2,10,-1
 85 536 l 1,11,-1
 173 536 l 1,12,-1
 173 -80 l 2,13,14
 173 -130 173 -130 157 -166 c 128,-1,15
 141 -202 141 -202 108 -221 c 128,-1,16
 75 -240 75 -240 22 -240 c 0,0,1
78 681 m 0,17,18
 78 710 78 710 93 723.5 c 128,-1,19
 108 737 108 737 130 737 c 0,20,21
 150 737 150 737 165.5 723.5 c 128,-1,22
 181 710 181 710 181 681 c 0,23,24
 181 653 181 653 165.5 639 c 128,-1,25
 150 625 150 625 130 625 c 0,26,27
 108 625 108 625 93 639 c 128,-1,28
 78 653 78 653 78 681 c 0,17,18
EndSplineSet
EndChar

StartChar: Icircumflex
Encoding: 206 206 69
Width: 534
Flags: W
LayerCount: 2
Fore
SplineSet
172 363 m 2,0,1
 172 347 172 347 170.5 321 c 128,-1,2
 169 295 169 295 168 276 c 1,3,-1
 172 276 l 1,4,5
 178 284 178 284 190 299 c 128,-1,6
 202 314 202 314 214.5 329.5 c 128,-1,7
 227 345 227 345 236 355 c 2,8,-1
 407 536 l 1,9,-1
 510 536 l 1,10,-1
 293 307 l 1,11,-1
 525 0 l 1,12,-1
 419 0 l 1,13,-1
 233 250 l 1,14,-1
 172 197 l 1,15,-1
 172 0 l 1,16,-1
 85 0 l 1,17,-1
 85 760 l 1,18,-1
 172 760 l 1,19,-1
 172 363 l 2,0,1
EndSplineSet
EndChar

StartChar: Idieresis
Encoding: 207 207 70
Width: 258
Flags: W
LayerCount: 2
Fore
SplineSet
173 0 m 1,0,-1
 85 0 l 1,1,-1
 85 760 l 1,2,-1
 173 760 l 1,3,-1
 173 0 l 1,0,-1
EndSplineSet
EndChar

StartChar: Igrave
Encoding: 204 204 71
Width: 258
Flags: W
LayerCount: 2
Fore
SplineSet
173 536 m 1,0,-1
 173 0 l 1,1,-1
 85 0 l 1,2,-1
 85 536 l 1,3,-1
 173 536 l 1,0,-1
130 737 m 0,4,5
 150 737 150 737 165.5 723.5 c 128,-1,6
 181 710 181 710 181 681 c 0,7,8
 181 653 181 653 165.5 639 c 128,-1,9
 150 625 150 625 130 625 c 0,10,11
 108 625 108 625 93 639 c 128,-1,12
 78 653 78 653 78 681 c 0,13,14
 78 710 78 710 93 723.5 c 128,-1,15
 108 737 108 737 130 737 c 0,4,5
EndSplineSet
EndChar

StartChar: J
Encoding: 74 74 72
Width: 572
Flags: W
LayerCount: 2
Fore
SplineSet
232 -3 m 4,0,1
 177 -3 177 -3 133 9 c 132,-1,2
 89 21 89 21 55 38 c 5,3,-1
 86 108 l 5,4,5
 116 94 116 94 152.5 82 c 132,-1,6
 189 70 189 70 230 70 c 4,7,8
 287 70 287 70 317 99.5 c 132,-1,9
 347 129 347 129 347 195 c 6,10,-1
 347 334 l 5,11,-1
 143 334 l 5,12,-1
 143 400 l 5,13,-1
 347 400 l 5,14,-1
 347 504 l 6,15,16
 347 544 347 544 356.5 570.5 c 132,-1,17
 366 597 366 597 381.5 613 c 132,-1,18
 397 629 397 629 415 640 c 5,19,-1
 31 640 l 5,20,-1
 31 720 l 5,21,-1
 534 720 l 5,22,-1
 534 646 l 5,23,24
 505 639 505 639 483 622.5 c 132,-1,25
 461 606 461 606 448 577.5 c 132,-1,26
 435 549 435 549 435 505 c 6,27,-1
 435 400 l 5,28,-1
 531 400 l 5,29,-1
 531 334 l 5,30,-1
 435 334 l 5,31,-1
 435 186 l 6,32,33
 435 126 435 126 410 84 c 132,-1,34
 385 42 385 42 339 19.5 c 132,-1,35
 293 -3 293 -3 232 -3 c 4,0,1
EndSplineSet
EndChar

StartChar: K
Encoding: 75 75 73
Width: 619
Flags: W
LayerCount: 2
Fore
SplineSet
619 0 m 1,0,-1
 513 0 l 1,1,-1
 260 341 l 1,2,-1
 187 277 l 1,3,-1
 187 0 l 1,4,-1
 97 0 l 1,5,-1
 97 714 l 1,6,-1
 187 714 l 1,7,-1
 187 362 l 1,8,9
 217 396 217 396 248 430 c 128,-1,10
 279 464 279 464 310 498 c 2,11,-1
 503 714 l 1,12,-1
 608 714 l 1,13,-1
 325 403 l 1,14,-1
 619 0 l 1,0,-1
EndSplineSet
EndChar

StartChar: L
Encoding: 76 76 74
Width: 572
Flags: W
LayerCount: 2
Fore
SplineSet
334 723 m 0,0,1
 389 723 389 723 433 711 c 128,-1,2
 477 699 477 699 511 682 c 1,3,-1
 480 612 l 1,4,5
 450 626 450 626 413.5 638 c 128,-1,6
 377 650 377 650 336 650 c 0,7,8
 279 650 279 650 249 620.5 c 128,-1,9
 219 591 219 591 219 525 c 2,10,-1
 219 386 l 1,11,-1
 423 386 l 1,12,-1
 423 320 l 1,13,-1
 219 320 l 1,14,-1
 219 216 l 2,15,16
 219 176 219 176 209.5 149.5 c 128,-1,17
 200 123 200 123 184.5 107 c 128,-1,18
 169 91 169 91 151 80 c 1,19,-1
 535 80 l 1,20,-1
 535 0 l 1,21,-1
 32 0 l 1,22,-1
 32 74 l 1,23,24
 61 81 61 81 83 97.5 c 128,-1,25
 105 114 105 114 118 142.5 c 128,-1,26
 131 171 131 171 131 215 c 2,27,-1
 131 320 l 1,28,-1
 35 320 l 1,29,-1
 35 386 l 1,30,-1
 131 386 l 1,31,-1
 131 534 l 2,32,33
 131 594 131 594 156 636 c 128,-1,34
 181 678 181 678 227 700.5 c 128,-1,35
 273 723 273 723 334 723 c 0,0,1
EndSplineSet
EndChar

StartChar: M
Encoding: 77 77 75
Width: 907
Flags: W
LayerCount: 2
Fore
SplineSet
412 0 m 1,0,-1
 177 626 l 1,1,-1
 173 626 l 1,2,3
 175 606 175 606 176.5 575 c 128,-1,4
 178 544 178 544 179 507.5 c 128,-1,5
 180 471 180 471 180 433 c 2,6,-1
 180 0 l 1,7,-1
 97 0 l 1,8,-1
 97 714 l 1,9,-1
 230 714 l 1,10,-1
 450 129 l 1,11,-1
 454 129 l 1,12,-1
 678 714 l 1,13,-1
 810 714 l 1,14,-1
 810 0 l 1,15,-1
 721 0 l 1,16,-1
 721 439 l 2,17,18
 721 474 721 474 722 508.5 c 128,-1,19
 723 543 723 543 725 573.5 c 128,-1,20
 727 604 727 604 728 625 c 1,21,-1
 724 625 l 1,22,-1
 486 0 l 1,23,-1
 412 0 l 1,0,-1
EndSplineSet
EndChar

StartChar: N
Encoding: 78 78 76
Width: 760
Flags: W
LayerCount: 2
Fore
SplineSet
663 0 m 1,0,-1
 558 0 l 1,1,-1
 176 593 l 1,2,-1
 172 593 l 1,3,4
 174 570 174 570 175.5 538.5 c 128,-1,5
 177 507 177 507 178.5 471.5 c 128,-1,6
 180 436 180 436 180 399 c 2,7,-1
 180 0 l 1,8,-1
 97 0 l 1,9,-1
 97 714 l 1,10,-1
 201 714 l 1,11,-1
 582 123 l 1,12,-1
 586 123 l 1,13,14
 585 139 585 139 583.5 171 c 128,-1,15
 582 203 582 203 580.5 241 c 128,-1,16
 579 279 579 279 579 311 c 2,17,-1
 579 714 l 1,18,-1
 663 714 l 1,19,-1
 663 0 l 1,0,-1
EndSplineSet
EndChar

StartChar: Ntilde
Encoding: 209 209 77
Width: 618
Flags: W
LayerCount: 2
Fore
SplineSet
343 546 m 0,0,1
 439 546 439 546 488 499.5 c 128,-1,2
 537 453 537 453 537 349 c 2,3,-1
 537 0 l 1,4,-1
 450 0 l 1,5,-1
 450 343 l 2,6,7
 450 408 450 408 421 440 c 128,-1,8
 392 472 392 472 330 472 c 0,9,10
 241 472 241 472 207 422 c 128,-1,11
 173 372 173 372 173 278 c 2,12,-1
 173 0 l 1,13,-1
 85 0 l 1,14,-1
 85 536 l 1,15,-1
 156 536 l 1,16,-1
 169 463 l 1,17,-1
 174 463 l 1,18,19
 192 491 192 491 218.5 509.5 c 128,-1,20
 245 528 245 528 277 537 c 128,-1,21
 309 546 309 546 343 546 c 0,0,1
EndSplineSet
EndChar

StartChar: O
Encoding: 79 79 78
Width: 781
Flags: W
LayerCount: 2
Fore
SplineSet
720 358 m 0,0,1
 720 275 720 275 699 207.5 c 128,-1,2
 678 140 678 140 636.5 91 c 128,-1,3
 595 42 595 42 533.5 16 c 128,-1,4
 472 -10 472 -10 391 -10 c 0,5,6
 307 -10 307 -10 245 16.5 c 128,-1,7
 183 43 183 43 142 91.5 c 128,-1,8
 101 140 101 140 81 208 c 128,-1,9
 61 276 61 276 61 359 c 0,10,11
 61 469 61 469 97 551 c 128,-1,12
 133 633 133 633 206.5 679 c 128,-1,13
 280 725 280 725 392 725 c 0,14,15
 499 725 499 725 572 679.5 c 128,-1,16
 645 634 645 634 682.5 551.5 c 128,-1,17
 720 469 720 469 720 358 c 0,0,1
156 358 m 256,18,19
 156 268 156 268 181 203 c 128,-1,20
 206 138 206 138 258.5 103 c 128,-1,21
 311 68 311 68 391 68 c 0,22,23
 472 68 472 68 523.5 103 c 128,-1,24
 575 138 575 138 600 203 c 128,-1,25
 625 268 625 268 625 358 c 0,26,27
 625 493 625 493 569 569.5 c 128,-1,28
 513 646 513 646 392 646 c 0,29,30
 311 646 311 646 258.5 611.5 c 128,-1,31
 206 577 206 577 181 512.5 c 128,-1,32
 156 448 156 448 156 358 c 256,18,19
EndSplineSet
EndChar

StartChar: Oacute
Encoding: 211 211 79
Width: 615
Flags: W
LayerCount: 2
Fore
SplineSet
340 546 m 0,0,1
 439 546 439 546 499.5 477 c 128,-1,2
 560 408 560 408 560 269 c 0,3,4
 560 178 560 178 532.5 115.5 c 128,-1,5
 505 53 505 53 455.5 21.5 c 128,-1,6
 406 -10 406 -10 339 -10 c 0,7,8
 298 -10 298 -10 266 1 c 128,-1,9
 234 12 234 12 211.5 29.5 c 128,-1,10
 189 47 189 47 173 68 c 1,11,-1
 167 68 l 1,12,13
 169 51 169 51 171 25 c 128,-1,14
 173 -1 173 -1 173 -20 c 2,15,-1
 173 -240 l 1,16,-1
 85 -240 l 1,17,-1
 85 536 l 1,18,-1
 157 536 l 1,19,-1
 169 463 l 1,20,-1
 173 463 l 1,21,22
 189 486 189 486 211.5 505 c 128,-1,23
 234 524 234 524 265.5 535 c 128,-1,24
 297 546 297 546 340 546 c 0,0,1
324 472 m 0,25,26
 270 472 270 472 237 451.5 c 128,-1,27
 204 431 204 431 189 390 c 128,-1,28
 174 349 174 349 173 286 c 2,29,-1
 173 269 l 2,30,31
 173 203 173 203 187 157 c 128,-1,32
 201 111 201 111 234.5 87 c 128,-1,33
 268 63 268 63 326 63 c 0,34,35
 375 63 375 63 406.5 90 c 128,-1,36
 438 117 438 117 453.5 163.5 c 128,-1,37
 469 210 469 210 469 270 c 0,38,39
 469 362 469 362 433.5 417 c 128,-1,40
 398 472 398 472 324 472 c 0,25,26
EndSplineSet
EndChar

StartChar: Ocircumflex
Encoding: 212 212 80
Width: 615
Flags: W
LayerCount: 2
Fore
SplineSet
442 -11 m 2,0,1
 442 7 442 7 443 31 c 128,-1,2
 444 55 444 55 447 72 c 1,3,-1
 441 72 l 1,4,5
 418 38 418 38 377.5 14 c 128,-1,6
 337 -10 337 -10 273 -10 c 0,7,8
 176 -10 176 -10 115.5 59.5 c 128,-1,9
 55 129 55 129 55 267 c 0,10,11
 55 359 55 359 83 421 c 128,-1,12
 111 483 111 483 161 514.5 c 128,-1,13
 211 546 211 546 276 546 c 0,14,15
 339 546 339 546 379 522 c 128,-1,16
 419 498 419 498 443 463 c 1,17,-1
 447 463 l 1,18,-1
 460 536 l 1,19,-1
 530 536 l 1,20,-1
 530 -240 l 1,21,-1
 442 -240 l 1,22,-1
 442 -11 l 2,0,1
290 63 m 0,23,24
 345 63 345 63 378.5 83 c 128,-1,25
 412 103 412 103 427 144.5 c 128,-1,26
 442 186 442 186 443 248 c 2,27,-1
 443 266 l 2,28,29
 443 368 443 368 409 420.5 c 128,-1,30
 375 473 375 473 288 473 c 0,31,32
 216 473 216 473 181 416.5 c 128,-1,33
 146 360 146 360 146 265 c 256,34,35
 146 170 146 170 181.5 116.5 c 128,-1,36
 217 63 217 63 290 63 c 0,23,24
EndSplineSet
EndChar

StartChar: Odieresis
Encoding: 214 214 81
Width: 479
Flags: W
LayerCount: 2
Fore
SplineSet
434 148 m 0,0,1
 434 96 434 96 408 61 c 128,-1,2
 382 26 382 26 334 8 c 128,-1,3
 286 -10 286 -10 220 -10 c 0,4,5
 164 -10 164 -10 123.5 -1 c 128,-1,6
 83 8 83 8 52 24 c 1,7,-1
 52 104 l 1,8,9
 84 88 84 88 129.5 74.5 c 128,-1,10
 175 61 175 61 222 61 c 0,11,12
 289 61 289 61 319 82.5 c 128,-1,13
 349 104 349 104 349 140 c 0,14,15
 349 160 349 160 338 176 c 128,-1,16
 327 192 327 192 298.5 208 c 128,-1,17
 270 224 270 224 217 244 c 0,18,19
 165 264 165 264 128 284 c 128,-1,20
 91 304 91 304 71 332 c 128,-1,21
 51 360 51 360 51 404 c 0,22,23
 51 472 51 472 106.5 509 c 128,-1,24
 162 546 162 546 252 546 c 0,25,26
 301 546 301 546 343.5 536.5 c 128,-1,27
 386 527 386 527 423 510 c 1,28,-1
 393 440 l 1,29,30
 359 454 359 454 322 464 c 128,-1,31
 285 474 285 474 246 474 c 0,32,33
 192 474 192 474 163.5 456.5 c 128,-1,34
 135 439 135 439 135 409 c 0,35,36
 135 387 135 387 148 371.5 c 128,-1,37
 161 356 161 356 191.5 341.5 c 128,-1,38
 222 327 222 327 273 307 c 0,39,40
 324 288 324 288 360 268 c 128,-1,41
 396 248 396 248 415 219.5 c 128,-1,42
 434 191 434 191 434 148 c 0,0,1
EndSplineSet
EndChar

StartChar: Ograve
Encoding: 210 210 82
Width: 605
Flags: W
LayerCount: 2
Fore
SplineSet
551 269 m 0,0,1
 551 202 551 202 533.5 150.5 c 128,-1,2
 516 99 516 99 483.5 63 c 128,-1,3
 451 27 451 27 404.5 8.5 c 128,-1,4
 358 -10 358 -10 301 -10 c 0,5,6
 248 -10 248 -10 203 8.5 c 128,-1,7
 158 27 158 27 125 63 c 128,-1,8
 92 99 92 99 73.5 150.5 c 128,-1,9
 55 202 55 202 55 269 c 0,10,11
 55 358 55 358 85 419.5 c 128,-1,12
 115 481 115 481 171 513.5 c 128,-1,13
 227 546 227 546 304 546 c 0,14,15
 377 546 377 546 432.5 513.5 c 128,-1,16
 488 481 488 481 519.5 419.5 c 128,-1,17
 551 358 551 358 551 269 c 0,0,1
146 269 m 0,18,19
 146 206 146 206 162.5 159.5 c 128,-1,20
 179 113 179 113 214 88 c 128,-1,21
 249 63 249 63 303 63 c 256,22,23
 357 63 357 63 392 88 c 128,-1,24
 427 113 427 113 443.5 159.5 c 128,-1,25
 460 206 460 206 460 269 c 0,26,27
 460 333 460 333 443 378 c 128,-1,28
 426 423 426 423 391.5 447.5 c 128,-1,29
 357 472 357 472 302 472 c 0,30,31
 220 472 220 472 183 418 c 128,-1,32
 146 364 146 364 146 269 c 0,18,19
EndSplineSet
EndChar

StartChar: Oslash
Encoding: 216 216 83
Width: 618
Flags: W
LayerCount: 2
Fore
SplineSet
533 536 m 1,0,-1
 533 0 l 1,1,-1
 461 0 l 1,2,-1
 448 71 l 1,3,-1
 444 71 l 1,4,5
 427 43 427 43 400 25 c 128,-1,6
 373 7 373 7 341 -1.5 c 128,-1,7
 309 -10 309 -10 274 -10 c 0,8,9
 210 -10 210 -10 166.5 10.5 c 128,-1,10
 123 31 123 31 101 74 c 128,-1,11
 79 117 79 117 79 185 c 2,12,-1
 79 536 l 1,13,-1
 168 536 l 1,14,-1
 168 191 l 2,15,16
 168 127 168 127 197 95 c 128,-1,17
 226 63 226 63 287 63 c 0,18,19
 347 63 347 63 381.5 85.5 c 128,-1,20
 416 108 416 108 430.5 151.5 c 128,-1,21
 445 195 445 195 445 257 c 2,22,-1
 445 536 l 1,23,-1
 533 536 l 1,0,-1
EndSplineSet
EndChar

StartChar: Otilde
Encoding: 213 213 84
Width: 413
Flags: W
LayerCount: 2
Fore
SplineSet
335 546 m 0,0,1
 350 546 350 546 367.5 544.5 c 128,-1,2
 385 543 385 543 398 540 c 1,3,-1
 387 459 l 1,4,5
 374 462 374 462 358.5 464 c 128,-1,6
 343 466 343 466 329 466 c 0,7,8
 298 466 298 466 270 453 c 128,-1,9
 242 440 242 440 220 416.5 c 128,-1,10
 198 393 198 393 185.5 360 c 128,-1,11
 173 327 173 327 173 286 c 2,12,-1
 173 0 l 1,13,-1
 85 0 l 1,14,-1
 85 536 l 1,15,-1
 157 536 l 1,16,-1
 167 438 l 1,17,-1
 171 438 l 1,18,19
 188 468 188 468 212 492.5 c 128,-1,20
 236 517 236 517 267 531.5 c 128,-1,21
 298 546 298 546 335 546 c 0,0,1
EndSplineSet
EndChar

StartChar: P
Encoding: 80 80 85
Width: 605
Flags: W
LayerCount: 2
Fore
SplineSet
286 714 m 2,0,1
 426 714 426 714 490 659 c 128,-1,2
 554 604 554 604 554 504 c 0,3,4
 554 460 554 460 539.5 419.5 c 128,-1,5
 525 379 525 379 492 347 c 128,-1,6
 459 315 459 315 404 296.5 c 128,-1,7
 349 278 349 278 269 278 c 2,8,-1
 187 278 l 1,9,-1
 187 0 l 1,10,-1
 97 0 l 1,11,-1
 97 714 l 1,12,-1
 286 714 l 2,0,1
278 637 m 2,13,-1
 187 637 l 1,14,-1
 187 355 l 1,15,-1
 259 355 l 2,16,17
 327 355 327 355 372 369.5 c 128,-1,18
 417 384 417 384 439 416 c 128,-1,19
 461 448 461 448 461 500 c 0,20,21
 461 569 461 569 417 603 c 128,-1,22
 373 637 373 637 278 637 c 2,13,-1
EndSplineSet
EndChar

StartChar: Thorn
Encoding: 222 222 86
Width: 639
Flags: W
LayerCount: 2
Fore
SplineSet
545 0 m 1,0,-1
 459 221 l 1,1,-1
 176 221 l 1,2,-1
 91 0 l 1,3,-1
 0 0 l 1,4,-1
 279 717 l 1,5,-1
 360 717 l 1,6,-1
 638 0 l 1,7,-1
 545 0 l 1,0,-1
352 517 m 2,8,9
 349 525 349 525 342 546 c 128,-1,10
 335 567 335 567 328.5 589.5 c 128,-1,11
 322 612 322 612 318 624 c 1,12,13
 313 604 313 604 307.5 583.5 c 128,-1,14
 302 563 302 563 296.5 546 c 128,-1,15
 291 529 291 529 287 517 c 2,16,-1
 206 301 l 1,17,-1
 432 301 l 1,18,-1
 352 517 l 2,8,9
EndSplineSet
EndChar

StartChar: Q
Encoding: 81 81 87
Width: 680
Flags: W
LayerCount: 2
Fore
SplineSet
558 -5 m 1,0,1
 538 -5 538 -5 519 2 c 128,-1,2
 500 9 500 9 486 26 c 1,3,-1
 486 291 l 5,4,5
 458 266 458 266 421 250.5 c 132,-1,6
 384 235 384 235 334 235 c 4,7,8
 292 235 292 235 243 258 c 132,-1,9
 194 281 194 281 152 318 c 132,-1,10
 110 355 110 355 82 401 c 132,-1,11
 54 447 54 447 54 493 c 4,12,13
 54 541 54 541 71.5 578 c 132,-1,14
 89 615 89 615 119 640.5 c 132,-1,15
 149 666 149 666 189.5 679 c 132,-1,16
 230 692 230 692 276 692 c 4,17,18
 310 692 310 692 340 684 c 4,19,20
 389 671 389 671 396 662.5 c 4,21,22
 431 622 431 622 444.5 631.5 c 4,23,24
 448 634 448 634 486 718 c 5,25,-1
 484 717 l 5,26,-1
 560 717 l 6,27,-1
 558 -5 l 1,0,1
277 292 m 4,28,29
 315 292 315 292 351 304.5 c 132,-1,30
 387 317 387 317 417 340 c 5,31,-1
 184 580 l 5,32,33
 157 556 157 556 142 521.5 c 132,-1,34
 127 487 127 487 127 442 c 4,35,36
 127 406 127 406 138.5 378 c 132,-1,37
 150 350 150 350 170 331 c 132,-1,38
 190 312 190 312 217.5 302 c 132,-1,39
 245 292 245 292 277 292 c 4,28,29
486 571 m 5,40,41
 451 598 451 598 413.5 613.5 c 132,-1,42
 376 629 376 629 327 629 c 4,43,44
 255 629 255 629 204 596 c 5,45,-1
 435 356 l 5,46,47
 451 371 451 371 464 389 c 132,-1,48
 477 407 477 407 486 427 c 5,49,-1
 486 571 l 5,40,41
EndSplineSet
EndChar

StartChar: R
Encoding: 82 82 88
Width: 622
Flags: W
LayerCount: 2
Fore
SplineSet
294 714 m 2,0,1
 383 714 383 714 440.5 691.5 c 128,-1,2
 498 669 498 669 526 624 c 128,-1,3
 554 579 554 579 554 511 c 0,4,5
 554 454 554 454 533 416 c 128,-1,6
 512 378 512 378 479.5 355.5 c 128,-1,7
 447 333 447 333 411 320 c 1,8,-1
 607 0 l 1,9,-1
 502 0 l 1,10,-1
 329 295 l 1,11,-1
 187 295 l 1,12,-1
 187 0 l 1,13,-1
 97 0 l 1,14,-1
 97 714 l 1,15,-1
 294 714 l 2,0,1
289 636 m 2,16,-1
 187 636 l 1,17,-1
 187 371 l 1,18,-1
 294 371 l 2,19,20
 381 371 381 371 421 405.5 c 128,-1,21
 461 440 461 440 461 507 c 0,22,23
 461 554 461 554 442.5 582 c 128,-1,24
 424 610 424 610 386 623 c 128,-1,25
 348 636 348 636 289 636 c 2,16,-1
EndSplineSet
EndChar

StartChar: S
Encoding: 83 83 89
Width: 549
Flags: W
LayerCount: 2
Fore
SplineSet
502 191 m 0,0,1
 502 127 502 127 471 82.5 c 128,-1,2
 440 38 440 38 382.5 14 c 128,-1,3
 325 -10 325 -10 247 -10 c 0,4,5
 207 -10 207 -10 170.5 -6 c 128,-1,6
 134 -2 134 -2 104 5.5 c 128,-1,7
 74 13 74 13 51 24 c 1,8,-1
 51 110 l 1,9,10
 87 94 87 94 140.5 81 c 128,-1,11
 194 68 194 68 251 68 c 0,12,13
 304 68 304 68 340 82 c 128,-1,14
 376 96 376 96 394 122 c 128,-1,15
 412 148 412 148 412 183 c 256,16,17
 412 218 412 218 397 242 c 128,-1,18
 382 266 382 266 345.5 286.5 c 128,-1,19
 309 307 309 307 244 330 c 0,20,21
 198 347 198 347 163.5 366.5 c 128,-1,22
 129 386 129 386 106 411 c 128,-1,23
 83 436 83 436 71.5 468 c 128,-1,24
 60 500 60 500 60 542 c 0,25,26
 60 599 60 599 89 639.5 c 128,-1,27
 118 680 118 680 169.5 702 c 128,-1,28
 221 724 221 724 288 724 c 0,29,30
 347 724 347 724 396 713 c 128,-1,31
 445 702 445 702 485 684 c 1,32,-1
 457 607 l 1,33,34
 420 623 420 623 376.5 634 c 128,-1,35
 333 645 333 645 286 645 c 0,36,37
 241 645 241 645 211 632 c 128,-1,38
 181 619 181 619 166 595.5 c 128,-1,39
 151 572 151 572 151 541 c 0,40,41
 151 505 151 505 166 481 c 128,-1,42
 181 457 181 457 215 438 c 128,-1,43
 249 419 249 419 307 397 c 0,44,45
 370 374 370 374 413.5 347.5 c 128,-1,46
 457 321 457 321 479.5 284 c 128,-1,47
 502 247 502 247 502 191 c 0,0,1
EndSplineSet
EndChar

StartChar: T
Encoding: 84 84 90
Width: 622
Flags: W
AnchorPoint: "Anchor-0" 316 -24 basechar 0
LayerCount: 2
Fore
SplineSet
308 -12 m 0,0,1
 239 -12 239 -12 187 4 c 128,-1,2
 135 20 135 20 101 49.5 c 128,-1,3
 67 79 67 79 50 117.5 c 128,-1,4
 33 156 33 156 33 201 c 0,5,6
 33 215 33 215 34.5 230.5 c 128,-1,7
 36 246 36 246 39 259 c 1,8,-1
 118 248 l 1,9,10
 116 238 116 238 115 229 c 128,-1,11
 114 220 114 220 114 209 c 0,12,13
 114 183 114 183 122.5 158 c 128,-1,14
 131 133 131 133 152.5 112.5 c 128,-1,15
 174 92 174 92 211.5 79.5 c 128,-1,16
 249 67 249 67 307 67 c 0,17,18
 370 67 370 67 410.5 80 c 128,-1,19
 451 93 451 93 473 114 c 128,-1,20
 495 135 495 135 503.5 159 c 128,-1,21
 512 183 512 183 512 205 c 0,22,23
 512 228 512 228 506.5 249 c 128,-1,24
 501 270 501 270 487 287 c 0,25,26
 483 291 483 291 479 293.5 c 128,-1,27
 475 296 475 296 471 300 c 0,28,29
 452 316 452 316 425.5 325.5 c 128,-1,30
 399 335 399 335 362 335 c 0,31,32
 320 335 320 335 302 324.5 c 128,-1,33
 284 314 284 314 284 294 c 0,34,35
 284 275 284 275 300.5 264.5 c 128,-1,36
 317 254 317 254 349 254 c 0,37,38
 383 254 383 254 405.5 267.5 c 128,-1,39
 428 281 428 281 439.5 305 c 128,-1,40
 451 329 451 329 451 360 c 0,41,42
 451 399 451 399 431.5 425.5 c 128,-1,43
 412 452 412 452 385.5 467 c 128,-1,44
 359 482 359 482 338 486 c 1,45,-1
 457 492 l 1,46,47
 489 471 489 471 507 436.5 c 128,-1,48
 525 402 525 402 525 355 c 0,49,50
 525 347 525 347 524.5 340 c 128,-1,51
 524 333 524 333 523 328 c 2,52,-1
 517 300 l 2,53,54
 505 258 505 258 477.5 232 c 128,-1,55
 450 206 450 206 414.5 193.5 c 128,-1,56
 379 181 379 181 342 181 c 0,57,58
 278 181 278 181 241 209.5 c 128,-1,59
 204 238 204 238 204 293 c 0,60,61
 204 324 204 324 219 348.5 c 128,-1,62
 234 373 234 373 266.5 387.5 c 128,-1,63
 299 402 299 402 351 402 c 0,64,65
 388 402 388 402 419.5 395 c 128,-1,66
 451 388 451 388 476 375 c 0,67,68
 479 374 479 374 482 372.5 c 128,-1,69
 485 371 485 371 488 369.5 c 128,-1,70
 491 368 491 368 494 366 c 0,71,72
 540 339 540 339 562 296.5 c 128,-1,73
 584 254 584 254 584 207 c 0,74,75
 584 156 584 156 567.5 115.5 c 128,-1,76
 551 75 551 75 517 46.5 c 128,-1,77
 483 18 483 18 431 3 c 128,-1,78
 379 -12 379 -12 308 -12 c 0,0,1
39 474 m 1,79,-1
 39 551 l 1,80,-1
 373 551 l 2,81,82
 427 551 427 551 449 556 c 128,-1,83
 471 561 471 561 481 569 c 0,84,85
 495 579 495 579 499 591.5 c 128,-1,86
 503 604 503 604 503 618 c 0,87,88
 503 651 503 651 487 682.5 c 128,-1,89
 471 714 471 714 438 747 c 1,90,-1
 503 790 l 1,91,92
 550 738 550 738 567 696.5 c 128,-1,93
 584 655 584 655 584 612 c 0,94,95
 584 593 584 593 576.5 565.5 c 128,-1,96
 569 538 569 538 543 516 c 0,97,98
 518 494 518 494 483.5 484 c 128,-1,99
 449 474 449 474 391 474 c 2,100,-1
 39 474 l 1,79,-1
EndSplineSet
EndChar

StartChar: U
Encoding: 85 85 91
Width: 731
Flags: W
LayerCount: 2
Fore
SplineSet
640 252 m 2,0,1
 640 178 640 178 610 118.5 c 128,-1,2
 580 59 580 59 518.5 24.5 c 128,-1,3
 457 -10 457 -10 362 -10 c 0,4,5
 229 -10 229 -10 159.5 62.5 c 128,-1,6
 90 135 90 135 90 254 c 2,7,-1
 90 714 l 1,8,-1
 180 714 l 1,9,-1
 180 251 l 2,10,11
 180 164 180 164 226.5 116 c 128,-1,12
 273 68 273 68 367 68 c 0,13,14
 432 68 432 68 472.5 91.5 c 128,-1,15
 513 115 513 115 532 156.5 c 128,-1,16
 551 198 551 198 551 252 c 2,17,-1
 551 714 l 1,18,-1
 640 714 l 1,19,-1
 640 252 l 2,0,1
EndSplineSet
EndChar

StartChar: Uacute
Encoding: 218 218 92
Width: 786
Flags: W
LayerCount: 2
Fore
SplineSet
431 303 m 2,0,1
 425 324 425 324 419 344.5 c 128,-1,2
 413 365 413 365 408.5 383.5 c 128,-1,3
 404 402 404 402 400 418 c 128,-1,4
 396 434 396 434 394 445 c 1,5,-1
 390 445 l 1,6,7
 388 434 388 434 384.5 418 c 128,-1,8
 381 402 381 402 376.5 383 c 128,-1,9
 372 364 372 364 366.5 343.5 c 128,-1,10
 361 323 361 323 354 302 c 2,11,-1
 258 1 l 1,12,-1
 158 1 l 1,13,-1
 11 537 l 1,14,-1
 102 537 l 1,15,-1
 176 251 l 2,16,17
 184 222 184 222 191 192.5 c 128,-1,18
 198 163 198 163 203.5 136.5 c 128,-1,19
 209 110 209 110 211 91 c 1,20,-1
 215 91 l 1,21,22
 218 103 218 103 222 121 c 128,-1,23
 226 139 226 139 230.5 159 c 128,-1,24
 235 179 235 179 240.5 199 c 128,-1,25
 246 219 246 219 251 235 c 2,26,-1
 346 537 l 1,27,-1
 442 537 l 1,28,-1
 534 235 l 2,29,30
 541 212 541 212 548.5 186 c 128,-1,31
 556 160 556 160 562 135.5 c 128,-1,32
 568 111 568 111 570 92 c 1,33,-1
 574 92 l 1,34,35
 576 109 576 109 581.5 134.5 c 128,-1,36
 587 160 587 160 594.5 190.5 c 128,-1,37
 602 221 602 221 610 251 c 2,38,-1
 685 537 l 1,39,-1
 775 537 l 1,40,-1
 626 1 l 1,41,-1
 523 1 l 1,42,-1
 431 303 l 2,0,1
EndSplineSet
EndChar

StartChar: Ucircumflex
Encoding: 219 219 93
Width: 529
Flags: W
LayerCount: 2
Fore
SplineSet
212 274 m 1,0,-1
 27 536 l 1,1,-1
 127 536 l 1,2,-1
 265 334 l 1,3,-1
 402 536 l 1,4,-1
 501 536 l 1,5,-1
 316 274 l 1,6,-1
 511 0 l 1,7,-1
 411 0 l 1,8,-1
 265 214 l 1,9,-1
 117 0 l 1,10,-1
 18 0 l 1,11,-1
 212 274 l 1,0,-1
EndSplineSet
EndChar

StartChar: Udieresis
Encoding: 220 220 94
Width: 510
Flags: W
LayerCount: 2
Fore
SplineSet
1 536 m 1,0,-1
 95 536 l 1,1,-1
 211 231 l 2,2,3
 221 204 221 204 229.5 179 c 128,-1,4
 238 154 238 154 245 130.5 c 128,-1,5
 252 107 252 107 256 85 c 1,6,-1
 260 85 l 1,7,8
 266 110 266 110 279 150.5 c 128,-1,9
 292 191 292 191 306 232 c 2,10,-1
 415 536 l 1,11,-1
 510 536 l 1,12,-1
 279 -74 l 2,13,14
 260 -124 260 -124 234.5 -161.5 c 128,-1,15
 209 -199 209 -199 172.5 -219.5 c 128,-1,16
 136 -240 136 -240 84 -240 c 0,17,18
 60 -240 60 -240 42 -237.5 c 128,-1,19
 24 -235 24 -235 11 -232 c 1,20,-1
 11 -162 l 1,21,22
 22 -164 22 -164 37.5 -166 c 128,-1,23
 53 -168 53 -168 70 -168 c 0,24,25
 101 -168 101 -168 123.5 -156.5 c 128,-1,26
 146 -145 146 -145 162 -123.5 c 128,-1,27
 178 -102 178 -102 189 -73 c 2,28,-1
 217 -2 l 1,29,-1
 1 536 l 1,0,-1
EndSplineSet
EndChar

StartChar: Ugrave
Encoding: 217 217 95
Width: 508
Flags: W
LayerCount: 2
Fore
SplineSet
203 0 m 1,0,-1
 0 536 l 1,1,-1
 94 536 l 1,2,-1
 208 220 l 2,3,4
 216 198 216 198 225 171 c 128,-1,5
 234 144 234 144 241 119.5 c 128,-1,6
 248 95 248 95 251 78 c 1,7,-1
 255 78 l 1,8,9
 259 95 259 95 266.5 120 c 128,-1,10
 274 145 274 145 283.5 172 c 128,-1,11
 293 199 293 199 300 220 c 2,12,-1
 414 536 l 1,13,-1
 508 536 l 1,14,-1
 304 0 l 1,15,-1
 203 0 l 1,0,-1
EndSplineSet
EndChar

StartChar: V
Encoding: 86 86 96
Width: 600
Flags: W
LayerCount: 2
Fore
SplineSet
600 714 m 1,0,-1
 345 0 l 1,1,-1
 255 0 l 1,2,-1
 0 714 l 1,3,-1
 94 714 l 1,4,-1
 255 256 l 2,5,6
 266 227 266 227 274 200 c 128,-1,7
 282 173 282 173 288.5 148.5 c 128,-1,8
 295 124 295 124 300 100 c 1,9,10
 305 124 305 124 311.5 149 c 128,-1,11
 318 174 318 174 326.5 201 c 128,-1,12
 335 228 335 228 345 258 c 2,13,-1
 505 714 l 1,14,-1
 600 714 l 1,0,-1
EndSplineSet
EndChar

StartChar: W
Encoding: 87 87 97
Width: 930
Flags: W
LayerCount: 2
Fore
SplineSet
917 714 m 1,0,-1
 727 0 l 1,1,-1
 636 0 l 1,2,-1
 497 468 l 2,3,4
 491 489 491 489 485 511 c 128,-1,5
 479 533 479 533 474 553 c 128,-1,6
 469 573 469 573 465.5 587.5 c 128,-1,7
 462 602 462 602 461 609 c 1,8,9
 460 602 460 602 457.5 587.5 c 128,-1,10
 455 573 455 573 450 553 c 128,-1,11
 445 533 445 533 439.5 510.5 c 128,-1,12
 434 488 434 488 427 465 c 2,13,-1
 292 0 l 1,14,-1
 201 0 l 1,15,-1
 12 714 l 1,16,-1
 106 714 l 1,17,-1
 217 278 l 2,18,19
 223 255 223 255 228 232.5 c 128,-1,20
 233 210 233 210 237.5 188.5 c 128,-1,21
 242 167 242 167 245 147 c 128,-1,22
 248 127 248 127 251 108 c 1,23,24
 254 128 254 128 257.5 149 c 128,-1,25
 261 170 261 170 266 192.5 c 128,-1,26
 271 215 271 215 277 238 c 128,-1,27
 283 261 283 261 289 283 c 2,28,-1
 415 714 l 1,29,-1
 508 714 l 1,30,-1
 639 280 l 2,31,32
 646 257 646 257 652 233.5 c 128,-1,33
 658 210 658 210 663 188 c 128,-1,34
 668 166 668 166 671.5 145.5 c 128,-1,35
 675 125 675 125 678 108 c 1,36,37
 681 133 681 133 686 160.5 c 128,-1,38
 691 188 691 188 698 218 c 128,-1,39
 705 248 705 248 713 279 c 2,40,-1
 823 714 l 1,41,-1
 917 714 l 1,0,-1
EndSplineSet
EndChar

StartChar: X
Encoding: 88 88 98
Width: 586
Flags: W
LayerCount: 2
Fore
SplineSet
582 0 m 1,0,-1
 480 0 l 1,1,-1
 291 310 l 1,2,-1
 99 0 l 1,3,-1
 4 0 l 1,4,-1
 241 372 l 1,5,-1
 19 714 l 1,6,-1
 119 714 l 1,7,-1
 294 434 l 1,8,-1
 470 714 l 1,9,-1
 565 714 l 1,10,-1
 344 374 l 1,11,-1
 582 0 l 1,0,-1
EndSplineSet
EndChar

StartChar: Y
Encoding: 89 89 99
Width: 566
Flags: W
LayerCount: 2
Fore
SplineSet
283 363 m 1,0,-1
 469 714 l 1,1,-1
 566 714 l 1,2,-1
 328 277 l 1,3,-1
 328 0 l 1,4,-1
 238 0 l 1,5,-1
 238 273 l 1,6,-1
 0 714 l 1,7,-1
 98 714 l 1,8,-1
 283 363 l 1,0,-1
EndSplineSet
EndChar

StartChar: Yacute
Encoding: 221 221 100
Width: 470
Flags: W
LayerCount: 2
Fore
SplineSet
431 0 m 1,0,-1
 39 0 l 1,1,-1
 39 58 l 1,2,-1
 327 468 l 1,3,-1
 56 468 l 1,4,-1
 56 536 l 1,5,-1
 424 536 l 1,6,-1
 424 470 l 1,7,-1
 140 68 l 1,8,-1
 431 68 l 1,9,-1
 431 0 l 1,0,-1
EndSplineSet
EndChar

StartChar: Z
Encoding: 90 90 101
Width: 572
Flags: W
LayerCount: 2
Fore
SplineSet
533 0 m 1,0,-1
 38 0 l 1,1,-1
 38 68 l 1,2,-1
 414 634 l 1,3,-1
 50 634 l 1,4,-1
 50 714 l 1,5,-1
 523 714 l 1,6,-1
 523 646 l 1,7,-1
 147 80 l 1,8,-1
 533 80 l 1,9,-1
 533 0 l 1,0,-1
EndSplineSet
EndChar

StartChar: a
Encoding: 97 97 102
Width: 561
Flags: W
LayerCount: 2
Fore
SplineSet
288 545 m 0,0,1
 386 545 386 545 433 502 c 128,-1,2
 480 459 480 459 480 365 c 2,3,-1
 480 0 l 1,4,-1
 416 0 l 1,5,-1
 399 76 l 1,6,-1
 395 76 l 1,7,8
 372 47 372 47 347.5 27.5 c 128,-1,9
 323 8 323 8 291.5 -1 c 128,-1,10
 260 -10 260 -10 215 -10 c 0,11,12
 167 -10 167 -10 128.5 7 c 128,-1,13
 90 24 90 24 68 59.5 c 128,-1,14
 46 95 46 95 46 149 c 0,15,16
 46 229 46 229 109 272.5 c 128,-1,17
 172 316 172 316 303 320 c 2,18,-1
 394 323 l 1,19,-1
 394 355 l 2,20,21
 394 422 394 422 365 448 c 128,-1,22
 336 474 336 474 283 474 c 0,23,24
 241 474 241 474 203 461.5 c 128,-1,25
 165 449 165 449 132 433 c 1,26,-1
 105 499 l 1,27,28
 140 518 140 518 188 531.5 c 128,-1,29
 236 545 236 545 288 545 c 0,0,1
314 259 m 2,30,31
 214 255 214 255 175.5 227 c 128,-1,32
 137 199 137 199 137 148 c 0,33,34
 137 103 137 103 164.5 82 c 128,-1,35
 192 61 192 61 235 61 c 0,36,37
 303 61 303 61 348 98.5 c 128,-1,38
 393 136 393 136 393 214 c 2,39,-1
 393 262 l 1,40,-1
 314 259 l 2,30,31
EndSplineSet
EndChar

StartChar: aacute
Encoding: 225 225 103
Width: 730
Flags: W
LayerCount: 2
Fore
SplineSet
669 364 m 0,0,1
 669 244 669 244 624.5 163 c 128,-1,2
 580 82 580 82 497 41 c 128,-1,3
 414 0 414 0 296 0 c 2,4,-1
 97 0 l 1,5,-1
 97 714 l 1,6,-1
 317 714 l 2,7,8
 425 714 425 714 504 674 c 128,-1,9
 583 634 583 634 626 556.5 c 128,-1,10
 669 479 669 479 669 364 c 0,0,1
574 361 m 0,11,12
 574 456 574 456 542.5 517 c 128,-1,13
 511 578 511 578 450.5 607.5 c 128,-1,14
 390 637 390 637 304 637 c 2,15,-1
 187 637 l 1,16,-1
 187 77 l 1,17,-1
 284 77 l 2,18,19
 429 77 429 77 501.5 148.5 c 128,-1,20
 574 220 574 220 574 361 c 0,11,12
EndSplineSet
EndChar

StartChar: acircumflex
Encoding: 226 226 104
Width: 556
Flags: W
LayerCount: 2
Fore
SplineSet
496 0 m 1,0,-1
 97 0 l 1,1,-1
 97 714 l 1,2,-1
 496 714 l 1,3,-1
 496 635 l 1,4,-1
 187 635 l 1,5,-1
 187 412 l 1,6,-1
 478 412 l 1,7,-1
 478 334 l 1,8,-1
 187 334 l 1,9,-1
 187 79 l 1,10,-1
 496 79 l 1,11,-1
 496 0 l 1,0,-1
EndSplineSet
EndChar

StartChar: adieresis
Encoding: 228 228 105
Width: 728
Flags: W
LayerCount: 2
Fore
SplineSet
407 377 m 1,0,-1
 654 377 l 1,1,-1
 654 27 l 1,2,3
 596 8 596 8 537 -1 c 128,-1,4
 478 -10 478 -10 403 -10 c 0,5,6
 292 -10 292 -10 216 34.5 c 128,-1,7
 140 79 140 79 100.5 161.5 c 128,-1,8
 61 244 61 244 61 357 c 0,9,10
 61 469 61 469 105 551 c 128,-1,11
 149 633 149 633 231.5 678.5 c 128,-1,12
 314 724 314 724 431 724 c 0,13,14
 491 724 491 724 544.5 713 c 128,-1,15
 598 702 598 702 644 682 c 1,16,-1
 610 604 l 1,17,18
 572 621 572 621 524.5 633 c 128,-1,19
 477 645 477 645 426 645 c 0,20,21
 341 645 341 645 280 610 c 128,-1,22
 219 575 219 575 187 510.5 c 128,-1,23
 155 446 155 446 155 357 c 0,24,25
 155 272 155 272 182.5 206.5 c 128,-1,26
 210 141 210 141 269 104.5 c 128,-1,27
 328 68 328 68 424 68 c 0,28,29
 471 68 471 68 504 73 c 128,-1,30
 537 78 537 78 564 85 c 1,31,-1
 564 297 l 1,32,-1
 407 297 l 1,33,-1
 407 377 l 1,0,-1
EndSplineSet
EndChar

StartChar: agrave
Encoding: 224 224 106
Width: 632
Flags: W
LayerCount: 2
Fore
SplineSet
403 645 m 0,0,1
 346 645 346 645 300 625.5 c 128,-1,2
 254 606 254 606 222 568.5 c 128,-1,3
 190 531 190 531 173 477.5 c 128,-1,4
 156 424 156 424 156 357 c 0,5,6
 156 269 156 269 183.5 204 c 128,-1,7
 211 139 211 139 265.5 104 c 128,-1,8
 320 69 320 69 402 69 c 0,9,10
 449 69 449 69 491 77 c 128,-1,11
 533 85 533 85 573 97 c 1,12,-1
 573 19 l 1,13,14
 533 4 533 4 490.5 -3 c 128,-1,15
 448 -10 448 -10 389 -10 c 0,16,17
 280 -10 280 -10 207 35 c 128,-1,18
 134 80 134 80 97.5 163 c 128,-1,19
 61 246 61 246 61 358 c 0,20,21
 61 439 61 439 83.5 506 c 128,-1,22
 106 573 106 573 149.5 622 c 128,-1,23
 193 671 193 671 257 697.5 c 128,-1,24
 321 724 321 724 404 724 c 0,25,26
 459 724 459 724 510 713 c 128,-1,27
 561 702 561 702 601 682 c 1,28,-1
 565 606 l 1,29,30
 532 621 532 621 491.5 633 c 128,-1,31
 451 645 451 645 403 645 c 0,0,1
EndSplineSet
EndChar

StartChar: aring
Encoding: 229 229 107
Width: 741
Flags: W
LayerCount: 2
Fore
SplineSet
643 0 m 1,0,-1
 553 0 l 1,1,-1
 553 333 l 1,2,-1
 187 333 l 1,3,-1
 187 0 l 1,4,-1
 97 0 l 1,5,-1
 97 714 l 1,6,-1
 187 714 l 1,7,-1
 187 412 l 1,8,-1
 553 412 l 1,9,-1
 553 714 l 1,10,-1
 643 714 l 1,11,-1
 643 0 l 1,0,-1
EndSplineSet
EndChar

StartChar: atilde
Encoding: 227 227 108
Width: 519
Flags: W
LayerCount: 2
Fore
SplineSet
187 0 m 1,0,-1
 97 0 l 1,1,-1
 97 714 l 1,2,-1
 496 714 l 1,3,-1
 496 635 l 1,4,-1
 187 635 l 1,5,-1
 187 382 l 1,6,-1
 477 382 l 1,7,-1
 477 303 l 1,8,-1
 187 303 l 1,9,-1
 187 0 l 1,0,-1
EndSplineSet
EndChar

StartChar: ae
Encoding: 230 230 109
Width: 339
Flags: W
LayerCount: 2
Fore
SplineSet
298 0 m 1,0,-1
 40 0 l 1,1,-1
 40 52 l 1,2,-1
 124 71 l 1,3,-1
 124 642 l 1,4,-1
 40 662 l 1,5,-1
 40 714 l 1,6,-1
 298 714 l 1,7,-1
 298 662 l 1,8,-1
 214 642 l 1,9,-1
 214 71 l 1,10,-1
 298 52 l 1,11,-1
 298 0 l 1,0,-1
EndSplineSet
EndChar

StartChar: b
Encoding: 98 98 110
Width: 800
Flags: W
AnchorPoint: "Anchor-0" 395 -24 basechar 0
LayerCount: 2
Fore
SplineSet
557 -12 m 0,0,1
 518 -12 518 -12 486.5 -0.5 c 128,-1,2
 455 11 455 11 429 37 c 128,-1,3
 403 63 403 63 379 105 c 1,4,-1
 411 104 l 1,5,6
 388 59 388 59 360.5 34 c 128,-1,7
 333 9 333 9 298.5 -1.5 c 128,-1,8
 264 -12 264 -12 218 -12 c 0,9,10
 162 -12 162 -12 124 9.5 c 128,-1,11
 86 31 86 31 67.5 65 c 128,-1,12
 49 99 49 99 49 136 c 0,13,14
 49 179 49 179 65.5 210 c 128,-1,15
 82 241 82 241 113 267.5 c 128,-1,16
 144 294 144 294 187 321 c 0,17,18
 225 346 225 346 248 368 c 128,-1,19
 271 390 271 390 271 422 c 0,20,21
 271 443 271 443 263 458.5 c 128,-1,22
 255 474 255 474 237.5 482 c 128,-1,23
 220 490 220 490 190 490 c 0,24,25
 147 490 147 490 127 471.5 c 128,-1,26
 107 453 107 453 107 422 c 0,27,28
 107 406 107 406 112 391.5 c 128,-1,29
 117 377 117 377 127 363 c 1,30,-1
 57 332 l 1,31,32
 41 357 41 357 33.5 381.5 c 128,-1,33
 26 406 26 406 26 431 c 0,34,35
 26 466 26 466 44 496 c 128,-1,36
 62 526 62 526 98.5 544.5 c 128,-1,37
 135 563 135 563 191 563 c 0,38,39
 253 563 253 563 288 541.5 c 128,-1,40
 323 520 323 520 337.5 488 c 128,-1,41
 352 456 352 456 352 423 c 0,42,43
 352 387 352 387 336.5 358.5 c 128,-1,44
 321 330 321 330 292.5 305 c 128,-1,45
 264 280 264 280 224 254 c 0,46,47
 178 224 178 224 154.5 201 c 128,-1,48
 131 178 131 178 131 141 c 0,49,50
 131 102 131 102 157 84.5 c 128,-1,51
 183 67 183 67 223 67 c 0,52,53
 290 67 290 67 322 102 c 128,-1,54
 354 137 354 137 358 195 c 1,55,-1
 434 195 l 1,56,57
 439 128 439 128 475.5 97.5 c 128,-1,58
 512 67 512 67 561 67 c 0,59,60
 616 67 616 67 648.5 106 c 128,-1,61
 681 145 681 145 681 210 c 0,62,63
 681 280 681 280 656.5 333 c 128,-1,64
 632 386 632 386 588 424.5 c 128,-1,65
 544 463 544 463 485 488 c 1,66,-1
 528 565 l 1,67,68
 596 532 596 532 649 482 c 128,-1,69
 702 432 702 432 732.5 365 c 128,-1,70
 763 298 763 298 763 215 c 0,71,72
 763 147 763 147 739 96 c 128,-1,73
 715 45 715 45 669 16.5 c 128,-1,74
 623 -12 623 -12 557 -12 c 0,0,1
EndSplineSet
EndChar

StartChar: c
Encoding: 99 99 111
Width: 632
Flags: W
LayerCount: 2
Fore
SplineSet
376.888671875 409.82421875 m 6,0,1
 376.888671875 391.015625 376.888671875 391.015625 376.088867188 388.259765625 c 4,2,3
 375.3203125 377 375.3203125 377 374.223632812 368.352539062 c 5,4,-1
 377.421875 368.352539062 l 5,5,6
 386.240234375 383.719726562 386.240234375 383.719726562 400.334960938 393.7890625 c 4,7,8
 413.959960938 403.879882812 413.959960938 403.879882812 431.243164062 408.995117188 c 4,9,10
 448.400390625 414.440429688 448.400390625 414.440429688 466.415039062 414.248046875 c 4,11,12
 501.3203125 414.440429688 501.3203125 414.440429688 524.233398438 402.912109375 c 4,13,14
 547.51953125 391.400390625 547.51953125 391.400390625 559.138671875 367.80078125 c 4,15,16
 570.862304688 344.7109375 570.862304688 344.7109375 570.862304688 305.868164062 c 6,17,-1
 570.862304688 134.004882812 l 5,18,-1
 516.940429688 134.004882812 l 5,19,-1
 516.940429688 263.190429688 l 6,20,21
 517.280273438 299.240234375 517.280273438 299.240234375 501.486328125 316.827148438 c 4,22,23
 486.200195312 334.759765625 486.200195312 334.759765625 452.993164062 334.521484375 c 4,24,25
 420.6796875 334.759765625 420.6796875 334.759765625 402.901367188 322.080078125 c 4,26,27
 384.559570312 309.799804688 384.559570312 309.799804688 377.0546875 285.584960938 c 4,28,29
 369.328125 261.451171875 369.328125 261.451171875 369.328125 226.6953125 c 6,30,-1
 369.328125 134.004882812 l 5,31,-1
 311.513671875 134.004882812 l 5,32,-1
 311.513671875 533.133789062 l 5,33,-1
 376.888671875 533.133789062 l 5,34,-1
 376.888671875 409.82421875 l 6,0,1
403 645 m 0,35,36
 346 645 346 645 300 625.5 c 128,-1,37
 254 606 254 606 222 568.5 c 128,-1,38
 190 531 190 531 173 477.5 c 128,-1,39
 156 424 156 424 156 357 c 0,40,41
 156 269 156 269 183.5 204 c 128,-1,42
 211 139 211 139 265.5 104 c 128,-1,43
 320 69 320 69 402 69 c 0,44,45
 449 69 449 69 491 77 c 128,-1,46
 533 85 533 85 573 97 c 1,47,-1
 573 19 l 1,48,49
 533 4 533 4 490.5 -3 c 128,-1,50
 448 -10 448 -10 389 -10 c 0,51,52
 280 -10 280 -10 207 35 c 128,-1,53
 134 80 134 80 97.5 163 c 128,-1,54
 61 246 61 246 61 358 c 0,55,56
 61 439 61 439 83.5 506 c 128,-1,57
 106 573 106 573 149.5 622 c 128,-1,58
 193 671 193 671 257 697.5 c 128,-1,59
 321 724 321 724 404 724 c 0,60,61
 459 724 459 724 510 713 c 128,-1,62
 561 702 561 702 601 682 c 1,63,-1
 565 606 l 1,64,65
 532 621 532 621 491.5 633 c 128,-1,66
 451 645 451 645 403 645 c 0,35,36
EndSplineSet
EndChar

StartChar: ccedilla
Encoding: 231 231 112
Width: 273
Flags: W
LayerCount: 2
Fore
SplineSet
-4 -190 m 0,0,1
 -28 -190 -28 -190 -46 -186.5 c 128,-1,2
 -64 -183 -64 -183 -78 -177 c 1,3,-1
 -78 -101 l 1,4,5
 -62 -105 -62 -105 -44 -108 c 128,-1,6
 -26 -111 -26 -111 -6 -111 c 0,7,8
 19 -111 19 -111 41.5 -101 c 128,-1,9
 64 -91 64 -91 78 -66 c 128,-1,10
 92 -41 92 -41 92 4 c 2,11,-1
 92 714 l 1,12,-1
 182 714 l 1,13,-1
 182 11 l 2,14,15
 182 -58 182 -58 159 -102.5 c 128,-1,16
 136 -147 136 -147 94 -168.5 c 128,-1,17
 52 -190 52 -190 -4 -190 c 0,0,1
EndSplineSet
EndChar

StartChar: d
Encoding: 100 100 113
Width: 768
Flags: W
AnchorPoint: "Anchor-0" 382 -24 basechar 0
LayerCount: 2
Fore
SplineSet
216 -12 m 0,0,1
 138 -12 138 -12 90 46 c 128,-1,2
 42 104 42 104 42 220 c 0,3,4
 42 282 42 282 59.5 334 c 128,-1,5
 77 386 77 386 112 425.5 c 128,-1,6
 147 465 147 465 197 487 c 1,7,-1
 212 474 l 1,8,-1
 42 474 l 1,9,-1
 42 551 l 1,10,-1
 518 551 l 2,11,12
 571 551 571 551 593.5 556 c 128,-1,13
 616 561 616 561 626 569 c 0,14,15
 640 579 640 579 644 591.5 c 128,-1,16
 648 604 648 604 648 618 c 0,17,18
 648 651 648 651 632 682.5 c 128,-1,19
 616 714 616 714 583 747 c 1,20,-1
 648 790 l 1,21,22
 695 738 695 738 712 696.5 c 128,-1,23
 729 655 729 655 729 612 c 0,24,25
 729 593 729 593 721 565.5 c 128,-1,26
 713 538 713 538 688 516 c 0,27,28
 678 507 678 507 663.5 499 c 128,-1,29
 649 491 649 491 631 485.5 c 128,-1,30
 613 480 613 480 589 477 c 1,31,-1
 592 488 l 1,32,33
 627 474 627 474 649 450 c 128,-1,34
 671 426 671 426 681.5 397 c 128,-1,35
 692 368 692 368 692 337 c 0,36,37
 692 319 692 319 689.5 305 c 128,-1,38
 687 291 687 291 679 275 c 0,39,40
 677 271 677 271 672 268 c 128,-1,41
 667 265 667 265 665 261 c 0,42,43
 648 232 648 232 617 213 c 128,-1,44
 586 194 586 194 542 194 c 0,45,46
 509 194 509 194 481.5 205.5 c 128,-1,47
 454 217 454 217 437 241 c 128,-1,48
 420 265 420 265 420 301 c 0,49,50
 420 353 420 353 454.5 377.5 c 128,-1,51
 489 402 489 402 534 402 c 0,52,53
 568 402 568 402 591.5 393.5 c 128,-1,54
 615 385 615 385 633 372 c 0,55,56
 678 347 678 347 703.5 296.5 c 128,-1,57
 729 246 729 246 729 184 c 0,58,59
 729 125 729 125 705.5 81 c 128,-1,60
 682 37 682 37 642 12.5 c 128,-1,61
 602 -12 602 -12 550 -12 c 0,62,63
 482 -12 482 -12 441.5 14.5 c 128,-1,64
 401 41 401 41 366 104 c 1,65,-1
 398 109 l 1,66,67
 375 58 375 58 346.5 32 c 128,-1,68
 318 6 318 6 285 -3 c 128,-1,69
 252 -12 252 -12 216 -12 c 0,0,1
227 67 m 0,70,71
 277 67 277 67 306 100.5 c 128,-1,72
 335 134 335 134 344 184 c 1,73,-1
 420 184 l 1,74,75
 430 123 430 123 463.5 95 c 128,-1,76
 497 67 497 67 542 67 c 0,77,78
 572 67 572 67 597.5 79 c 128,-1,79
 623 91 623 91 638.5 117 c 128,-1,80
 654 143 654 143 654 185 c 0,81,82
 654 223 654 223 642 258.5 c 128,-1,83
 630 294 630 294 605.5 317.5 c 128,-1,84
 581 341 581 341 543 341 c 0,85,86
 522 341 522 341 508.5 330.5 c 128,-1,87
 495 320 495 320 495 301 c 0,88,89
 495 279 495 279 508 268 c 128,-1,90
 521 257 521 257 547 257 c 0,91,92
 563 257 563 257 580.5 264.5 c 128,-1,93
 598 272 598 272 610 289.5 c 128,-1,94
 622 307 622 307 622 337 c 256,95,96
 622 367 622 367 606.5 392.5 c 128,-1,97
 591 418 591 418 562.5 437 c 128,-1,98
 534 456 534 456 495.5 466 c 128,-1,99
 457 476 457 476 411 476 c 2,100,-1
 376 476 l 2,101,102
 314 476 314 476 267 457 c 128,-1,103
 220 438 220 438 188 403.5 c 128,-1,104
 156 369 156 369 140 322 c 128,-1,105
 124 275 124 275 124 220 c 0,106,107
 124 137 124 137 151 102 c 128,-1,108
 178 67 178 67 227 67 c 0,70,71
EndSplineSet
EndChar

StartChar: eth
Encoding: 240 240 114
Width: 549
Flags: W
LayerCount: 2
Fore
SplineSet
502 191 m 0,0,1
 502 127 502 127 471 82.5 c 128,-1,2
 440 38 440 38 382.5 14 c 128,-1,3
 325 -10 325 -10 247 -10 c 0,4,5
 207 -10 207 -10 170.5 -6 c 128,-1,6
 134 -2 134 -2 104 5.5 c 128,-1,7
 74 13 74 13 51 24 c 1,8,-1
 51 110 l 1,9,10
 87 94 87 94 140.5 81 c 128,-1,11
 194 68 194 68 251 68 c 0,12,13
 304 68 304 68 340 82 c 128,-1,14
 376 96 376 96 394 122 c 128,-1,15
 412 148 412 148 412 183 c 256,16,17
 412 218 412 218 397 242 c 128,-1,18
 382 266 382 266 345.5 286.5 c 128,-1,19
 309 307 309 307 244 330 c 0,20,21
 198 347 198 347 163.5 366.5 c 128,-1,22
 129 386 129 386 106 411 c 128,-1,23
 83 436 83 436 71.5 468 c 128,-1,24
 60 500 60 500 60 542 c 0,25,26
 60 599 60 599 89 639.5 c 128,-1,27
 118 680 118 680 169.5 702 c 128,-1,28
 221 724 221 724 288 724 c 0,29,30
 347 724 347 724 396 713 c 128,-1,31
 445 702 445 702 485 684 c 1,32,-1
 457 607 l 1,33,34
 420 623 420 623 376.5 634 c 128,-1,35
 333 645 333 645 286 645 c 0,36,37
 241 645 241 645 211 632 c 128,-1,38
 181 619 181 619 166 595.5 c 128,-1,39
 151 572 151 572 151 541 c 0,40,41
 151 505 151 505 166 481 c 128,-1,42
 181 457 181 457 215 438 c 128,-1,43
 249 419 249 419 307 397 c 0,44,45
 370 374 370 374 413.5 347.5 c 128,-1,46
 457 321 457 321 479.5 284 c 128,-1,47
 502 247 502 247 502 191 c 0,0,1
EndSplineSet
EndChar

StartChar: e
Encoding: 101 101 115
Width: 564
Flags: W
LayerCount: 2
Fore
SplineSet
292 546 m 0,0,1
 361 546 361 546 410.5 516 c 128,-1,2
 460 486 460 486 486.5 431.5 c 128,-1,3
 513 377 513 377 513 304 c 2,4,-1
 513 251 l 1,5,-1
 146 251 l 1,6,7
 148 160 148 160 192.5 112.5 c 128,-1,8
 237 65 237 65 317 65 c 0,9,10
 368 65 368 65 407.5 74.5 c 128,-1,11
 447 84 447 84 489 102 c 1,12,-1
 489 25 l 1,13,14
 448 7 448 7 408 -1.5 c 128,-1,15
 368 -10 368 -10 313 -10 c 0,16,17
 237 -10 237 -10 178.5 21 c 128,-1,18
 120 52 120 52 87.5 113.5 c 128,-1,19
 55 175 55 175 55 264 c 0,20,21
 55 352 55 352 84.5 415 c 128,-1,22
 114 478 114 478 167.5 512 c 128,-1,23
 221 546 221 546 292 546 c 0,0,1
291 474 m 0,24,25
 228 474 228 474 191.5 433.5 c 128,-1,26
 155 393 155 393 148 321 c 1,27,-1
 421 321 l 1,28,29
 421 367 421 367 407 401 c 128,-1,30
 393 435 393 435 364.5 454.5 c 128,-1,31
 336 474 336 474 291 474 c 0,24,25
EndSplineSet
EndChar

StartChar: eacute
Encoding: 233 233 116
Width: 524
Flags: W
LayerCount: 2
Fore
SplineSet
97 0 m 1,0,-1
 97 714 l 1,1,-1
 187 714 l 1,2,-1
 187 80 l 1,3,-1
 499 80 l 1,4,-1
 499 0 l 1,5,-1
 97 0 l 1,0,-1
EndSplineSet
EndChar

StartChar: ecircumflex
Encoding: 234 234 117
Width: 907
Flags: W
LayerCount: 2
Fore
SplineSet
412 0 m 1,0,-1
 177 626 l 1,1,-1
 173 626 l 1,2,3
 175 606 175 606 176.5 575 c 128,-1,4
 178 544 178 544 179 507.5 c 128,-1,5
 180 471 180 471 180 433 c 2,6,-1
 180 0 l 1,7,-1
 97 0 l 1,8,-1
 97 714 l 1,9,-1
 230 714 l 1,10,-1
 450 129 l 1,11,-1
 454 129 l 1,12,-1
 678 714 l 1,13,-1
 810 714 l 1,14,-1
 810 0 l 1,15,-1
 721 0 l 1,16,-1
 721 439 l 2,17,18
 721 474 721 474 722 508.5 c 128,-1,19
 723 543 723 543 725 573.5 c 128,-1,20
 727 604 727 604 728 625 c 1,21,-1
 724 625 l 1,22,-1
 486 0 l 1,23,-1
 412 0 l 1,0,-1
EndSplineSet
EndChar

StartChar: edieresis
Encoding: 235 235 118
Width: 760
Flags: W
LayerCount: 2
Fore
SplineSet
663 0 m 1,0,-1
 558 0 l 1,1,-1
 176 593 l 1,2,-1
 172 593 l 1,3,4
 174 570 174 570 175.5 538.5 c 128,-1,5
 177 507 177 507 178.5 471.5 c 128,-1,6
 180 436 180 436 180 399 c 2,7,-1
 180 0 l 1,8,-1
 97 0 l 1,9,-1
 97 714 l 1,10,-1
 201 714 l 1,11,-1
 582 123 l 1,12,-1
 586 123 l 1,13,14
 585 139 585 139 583.5 171 c 128,-1,15
 582 203 582 203 580.5 241 c 128,-1,16
 579 279 579 279 579 311 c 2,17,-1
 579 714 l 1,18,-1
 663 714 l 1,19,-1
 663 0 l 1,0,-1
EndSplineSet
EndChar

StartChar: egrave
Encoding: 232 232 119
Width: 619
Flags: W
LayerCount: 2
Fore
SplineSet
619 0 m 1,0,-1
 513 0 l 1,1,-1
 260 341 l 1,2,-1
 187 277 l 1,3,-1
 187 0 l 1,4,-1
 97 0 l 1,5,-1
 97 714 l 1,6,-1
 187 714 l 1,7,-1
 187 362 l 1,8,9
 217 396 217 396 248 430 c 128,-1,10
 279 464 279 464 310 498 c 2,11,-1
 503 714 l 1,12,-1
 608 714 l 1,13,-1
 325 403 l 1,14,-1
 619 0 l 1,0,-1
EndSplineSet
EndChar

StartChar: f
Encoding: 102 102 120
Width: 792
Flags: W
AnchorPoint: "Anchor-0" 410 -24 basechar 0
LayerCount: 2
Fore
SplineSet
226 -12 m 0,0,1
 170 -12 170 -12 125.5 10 c 128,-1,2
 81 32 81 32 56 72 c 128,-1,3
 31 112 31 112 31 167 c 0,4,5
 31 211 31 211 49 246.5 c 128,-1,6
 67 282 67 282 101 303 c 128,-1,7
 135 324 135 324 183 324 c 0,8,9
 236 324 236 324 268 299 c 128,-1,10
 300 274 300 274 300 231 c 0,11,12
 300 215 300 215 297 199 c 128,-1,13
 294 183 294 183 287 172 c 1,14,-1
 219 178 l 1,15,16
 221 186 221 186 223 194.5 c 128,-1,17
 225 203 225 203 225 210 c 0,18,19
 225 232 225 232 213 243 c 128,-1,20
 201 254 201 254 180 254 c 0,21,22
 149 254 149 254 128.5 232.5 c 128,-1,23
 108 211 108 211 108 170 c 0,24,25
 108 125 108 125 139 96 c 128,-1,26
 170 67 170 67 234 67 c 0,27,28
 303 67 303 67 335 102 c 128,-1,29
 367 137 367 137 372 195 c 1,30,-1
 448 195 l 1,31,32
 453 128 453 128 487.5 97.5 c 128,-1,33
 522 67 522 67 570 67 c 0,34,35
 606 67 606 67 628 83 c 128,-1,36
 650 99 650 99 660 127.5 c 128,-1,37
 670 156 670 156 670 191 c 0,38,39
 670 237 670 237 652 284.5 c 128,-1,40
 634 332 634 332 586 387 c 1,41,-1
 657 435 l 1,42,43
 703 384 703 384 727.5 326.5 c 128,-1,44
 752 269 752 269 752 198 c 0,45,46
 752 126 752 126 727.5 79.5 c 128,-1,47
 703 33 703 33 663 10.5 c 128,-1,48
 623 -12 623 -12 577 -12 c 0,49,50
 526 -12 526 -12 494 1 c 128,-1,51
 462 14 462 14 440 39.5 c 128,-1,52
 418 65 418 65 396 101 c 1,53,-1
 427 105 l 1,54,55
 401 57 401 57 371.5 32 c 128,-1,56
 342 7 342 7 306.5 -2.5 c 128,-1,57
 271 -12 271 -12 226 -12 c 0,0,1
364 -144 m 1,58,-1
 372 15 l 1,59,-1
 449 15 l 1,60,-1
 457 -144 l 1,61,-1
 364 -144 l 1,58,-1
401 297 m 0,62,63
 377 297 377 297 360.5 314 c 128,-1,64
 344 331 344 331 344 355 c 0,65,66
 344 381 344 381 360.5 398 c 128,-1,67
 377 415 377 415 401 415 c 0,68,69
 426 415 426 415 443 398 c 128,-1,70
 460 381 460 381 460 355 c 0,71,72
 460 331 460 331 443 314 c 128,-1,73
 426 297 426 297 401 297 c 0,62,63
31 474 m 1,74,-1
 31 551 l 1,75,-1
 541 551 l 2,76,77
 595 551 595 551 617 556 c 128,-1,78
 639 561 639 561 649 569 c 0,79,80
 663 579 663 579 667 591.5 c 128,-1,81
 671 604 671 604 671 618 c 0,82,83
 671 651 671 651 655 682.5 c 128,-1,84
 639 714 639 714 606 747 c 1,85,-1
 671 790 l 1,86,87
 718 738 718 738 735 696.5 c 128,-1,88
 752 655 752 655 752 612 c 0,89,90
 752 593 752 593 744.5 565.5 c 128,-1,91
 737 538 737 538 711 516 c 0,92,93
 686 494 686 494 651.5 484 c 128,-1,94
 617 474 617 474 559 474 c 2,95,-1
 31 474 l 1,74,-1
EndSplineSet
EndChar

StartChar: g
Encoding: 103 103 121
Width: 615
Flags: W
LayerCount: 2
Fore
SplineSet
275 546 m 0,0,1
 328 546 328 546 370.5 526 c 128,-1,2
 413 506 413 506 443 465 c 1,3,-1
 448 465 l 1,4,-1
 460 536 l 1,5,-1
 530 536 l 1,6,-1
 530 -9 l 2,7,8
 530 -85 530 -85 504 -136.5 c 128,-1,9
 478 -188 478 -188 425 -214 c 128,-1,10
 372 -240 372 -240 290 -240 c 0,11,12
 232 -240 232 -240 183.5 -231.5 c 128,-1,13
 135 -223 135 -223 97 -206 c 1,14,-1
 97 -125 l 1,15,16
 135 -145 135 -145 186 -156 c 128,-1,17
 237 -167 237 -167 295 -167 c 0,18,19
 364 -167 364 -167 403.5 -126.5 c 128,-1,20
 443 -86 443 -86 443 -16 c 2,21,-1
 443 5 l 2,22,23
 443 17 443 17 444 39.5 c 128,-1,24
 445 62 445 62 446 71 c 1,25,-1
 442 71 l 1,26,27
 414 30 414 30 372.5 10 c 128,-1,28
 331 -10 331 -10 276 -10 c 0,29,30
 172 -10 172 -10 113.5 63 c 128,-1,31
 55 136 55 136 55 267 c 0,32,33
 55 395 55 395 113.5 470.5 c 128,-1,34
 172 546 172 546 275 546 c 0,0,1
287 472 m 0,35,36
 242 472 242 472 210.5 448 c 128,-1,37
 179 424 179 424 162.5 378 c 128,-1,38
 146 332 146 332 146 266 c 0,39,40
 146 167 146 167 182.5 114.5 c 128,-1,41
 219 62 219 62 289 62 c 0,42,43
 330 62 330 62 359 72.5 c 128,-1,44
 388 83 388 83 407 105.5 c 128,-1,45
 426 128 426 128 435 163 c 128,-1,46
 444 198 444 198 444 246 c 2,47,-1
 444 267 l 2,48,49
 444 340 444 340 427.5 385 c 128,-1,50
 411 430 411 430 376 451 c 128,-1,51
 341 472 341 472 287 472 c 0,35,36
EndSplineSet
EndChar

StartChar: h
Encoding: 104 104 122
Width: 618
Flags: W
LayerCount: 2
Fore
SplineSet
173 537 m 2,0,1
 173 518 173 518 171.5 498 c 128,-1,2
 170 478 170 478 168 462 c 1,3,-1
 174 462 l 1,4,5
 191 490 191 490 217 508 c 128,-1,6
 243 526 243 526 275 535.5 c 128,-1,7
 307 545 307 545 341 545 c 0,8,9
 406 545 406 545 449.5 524.5 c 128,-1,10
 493 504 493 504 515 461 c 128,-1,11
 537 418 537 418 537 349 c 2,12,-1
 537 0 l 1,13,-1
 450 0 l 1,14,-1
 450 343 l 2,15,16
 450 408 450 408 421 440 c 128,-1,17
 392 472 392 472 330 472 c 0,18,19
 270 472 270 472 236 449.5 c 128,-1,20
 202 427 202 427 187.5 383.5 c 128,-1,21
 173 340 173 340 173 277 c 2,22,-1
 173 0 l 1,23,-1
 85 0 l 1,24,-1
 85 760 l 1,25,-1
 173 760 l 1,26,-1
 173 537 l 2,0,1
EndSplineSet
EndChar

StartChar: i
Encoding: 105 105 123
Width: 258
Flags: W
LayerCount: 2
Fore
SplineSet
173 536 m 1,0,-1
 173 0 l 1,1,-1
 85 0 l 1,2,-1
 85 536 l 1,3,-1
 173 536 l 1,0,-1
130 737 m 0,4,5
 150 737 150 737 165.5 723.5 c 128,-1,6
 181 710 181 710 181 681 c 0,7,8
 181 653 181 653 165.5 639 c 128,-1,9
 150 625 150 625 130 625 c 0,10,11
 108 625 108 625 93 639 c 128,-1,12
 78 653 78 653 78 681 c 0,13,14
 78 710 78 710 93 723.5 c 128,-1,15
 108 737 108 737 130 737 c 0,4,5
EndSplineSet
Substitution2: "Single Substitution lookup 193 subtable" dotlessi
Substitution2: "Single Substitution lookup 192 subtable" dotlessi
EndChar

StartChar: iacute
Encoding: 237 237 124
Width: 605
Flags: W
LayerCount: 2
Fore
SplineSet
286 714 m 2,0,1
 426 714 426 714 490 659 c 128,-1,2
 554 604 554 604 554 504 c 0,3,4
 554 460 554 460 539.5 419.5 c 128,-1,5
 525 379 525 379 492 347 c 128,-1,6
 459 315 459 315 404 296.5 c 128,-1,7
 349 278 349 278 269 278 c 2,8,-1
 187 278 l 1,9,-1
 187 0 l 1,10,-1
 97 0 l 1,11,-1
 97 714 l 1,12,-1
 286 714 l 2,0,1
278 637 m 2,13,-1
 187 637 l 1,14,-1
 187 355 l 1,15,-1
 259 355 l 2,16,17
 327 355 327 355 372 369.5 c 128,-1,18
 417 384 417 384 439 416 c 128,-1,19
 461 448 461 448 461 500 c 0,20,21
 461 569 461 569 417 603 c 128,-1,22
 373 637 373 637 278 637 c 2,13,-1
EndSplineSet
EndChar

StartChar: icircumflex
Encoding: 238 238 125
Width: 781
Flags: W
LayerCount: 2
Fore
SplineSet
720 358 m 0,0,1
 720 271 720 271 696.5 200 c 128,-1,2
 673 129 673 129 627 80 c 128,-1,3
 581 31 581 31 512 8 c 1,4,-1
 683 -170 l 1,5,-1
 554 -170 l 1,6,-1
 416 -9 l 1,7,8
 410 -9 410 -9 403.5 -9.5 c 128,-1,9
 397 -10 397 -10 391 -10 c 0,10,11
 307 -10 307 -10 245 16.5 c 128,-1,12
 183 43 183 43 142 91.5 c 128,-1,13
 101 140 101 140 81 208 c 128,-1,14
 61 276 61 276 61 359 c 0,15,16
 61 469 61 469 97 551 c 128,-1,17
 133 633 133 633 206.5 679 c 128,-1,18
 280 725 280 725 392 725 c 0,19,20
 499 725 499 725 572 679.5 c 128,-1,21
 645 634 645 634 682.5 551.5 c 128,-1,22
 720 469 720 469 720 358 c 0,0,1
156 358 m 256,23,24
 156 268 156 268 181 203 c 128,-1,25
 206 138 206 138 258.5 103 c 128,-1,26
 311 68 311 68 391 68 c 0,27,28
 472 68 472 68 523.5 103 c 128,-1,29
 575 138 575 138 600 203 c 128,-1,30
 625 268 625 268 625 358 c 0,31,32
 625 493 625 493 569 569.5 c 128,-1,33
 513 646 513 646 392 646 c 0,34,35
 311 646 311 646 258.5 611.5 c 128,-1,36
 206 577 206 577 181 512.5 c 128,-1,37
 156 448 156 448 156 358 c 256,23,24
EndSplineSet
EndChar

StartChar: idieresis
Encoding: 239 239 126
Width: 622
Flags: W
LayerCount: 2
Fore
SplineSet
294 714 m 2,0,1
 383 714 383 714 440.5 691.5 c 128,-1,2
 498 669 498 669 526 624 c 128,-1,3
 554 579 554 579 554 511 c 0,4,5
 554 454 554 454 533 416 c 128,-1,6
 512 378 512 378 479.5 355.5 c 128,-1,7
 447 333 447 333 411 320 c 1,8,-1
 607 0 l 1,9,-1
 502 0 l 1,10,-1
 329 295 l 1,11,-1
 187 295 l 1,12,-1
 187 0 l 1,13,-1
 97 0 l 1,14,-1
 97 714 l 1,15,-1
 294 714 l 2,0,1
289 636 m 2,16,-1
 187 636 l 1,17,-1
 187 371 l 1,18,-1
 294 371 l 2,19,20
 381 371 381 371 421 405.5 c 128,-1,21
 461 440 461 440 461 507 c 0,22,23
 461 554 461 554 442.5 582 c 128,-1,24
 424 610 424 610 386 623 c 128,-1,25
 348 636 348 636 289 636 c 2,16,-1
EndSplineSet
EndChar

StartChar: igrave
Encoding: 236 236 127
Width: 781
Flags: W
LayerCount: 2
Fore
SplineSet
720 358 m 0,0,1
 720 275 720 275 699 207.5 c 128,-1,2
 678 140 678 140 636.5 91 c 128,-1,3
 595 42 595 42 533.5 16 c 128,-1,4
 472 -10 472 -10 391 -10 c 0,5,6
 307 -10 307 -10 245 16.5 c 128,-1,7
 183 43 183 43 142 91.5 c 128,-1,8
 101 140 101 140 81 208 c 128,-1,9
 61 276 61 276 61 359 c 0,10,11
 61 469 61 469 97 551 c 128,-1,12
 133 633 133 633 206.5 679 c 128,-1,13
 280 725 280 725 392 725 c 0,14,15
 499 725 499 725 572 679.5 c 128,-1,16
 645 634 645 634 682.5 551.5 c 128,-1,17
 720 469 720 469 720 358 c 0,0,1
156 358 m 256,18,19
 156 268 156 268 181 203 c 128,-1,20
 206 138 206 138 258.5 103 c 128,-1,21
 311 68 311 68 391 68 c 0,22,23
 472 68 472 68 523.5 103 c 128,-1,24
 575 138 575 138 600 203 c 128,-1,25
 625 268 625 268 625 358 c 0,26,27
 625 493 625 493 569 569.5 c 128,-1,28
 513 646 513 646 392 646 c 0,29,30
 311 646 311 646 258.5 611.5 c 128,-1,31
 206 577 206 577 181 512.5 c 128,-1,32
 156 448 156 448 156 358 c 256,18,19
EndSplineSet
EndChar

StartChar: j
Encoding: 106 106 128
Width: 470
Flags: W
LayerCount: 2
Fore
SplineSet
280 606 m 4,0,1
 231 606 231 606 201 634 c 132,-1,2
 171 662 171 662 171 712 c 260,3,4
 171 762 171 762 201 789.5 c 132,-1,5
 231 817 231 817 280 817 c 4,6,7
 327 817 327 817 359 789.5 c 132,-1,8
 391 762 391 762 391 713 c 4,9,10
 391 662 391 662 359.5 634 c 132,-1,11
 328 606 328 606 280 606 c 4,0,1
280 656 m 4,12,13
 305 656 305 656 320.5 671 c 132,-1,14
 336 686 336 686 336 712 c 260,15,16
 336 738 336 738 320 753 c 132,-1,17
 304 768 304 768 280 768 c 260,18,19
 256 768 256 768 240 753 c 132,-1,20
 224 738 224 738 224 712 c 260,21,22
 224 686 224 686 238.5 671 c 132,-1,23
 253 656 253 656 280 656 c 4,12,13
431 0 m 1,24,-1
 39 0 l 1,25,-1
 39 58 l 1,26,-1
 327 468 l 1,27,-1
 56 468 l 1,28,-1
 56 536 l 1,29,-1
 424 536 l 1,30,-1
 424 470 l 1,31,-1
 140 68 l 1,32,-1
 431 68 l 1,33,-1
 431 0 l 1,24,-1
EndSplineSet
Substitution2: "Single Substitution lookup 193 subtable" uni0237
Substitution2: "Single Substitution lookup 192 subtable" uni0237
EndChar

StartChar: k
Encoding: 107 107 129
Width: 574
Flags: W
AnchorPoint: "Anchor-0" 287 -24 basechar 0
LayerCount: 2
Fore
SplineSet
283 -12 m 0,0,1
 213 -12 213 -12 162.5 11 c 128,-1,2
 112 34 112 34 85 75.5 c 128,-1,3
 58 117 58 117 58 172 c 0,4,5
 58 204 58 204 68.5 232 c 128,-1,6
 79 260 79 260 100 282.5 c 128,-1,7
 121 305 121 305 152 321 c 1,8,-1
 166 307 l 1,9,-1
 36 306 l 1,10,-1
 36 375 l 1,11,-1
 244 375 l 1,12,13
 255 383 255 383 262.5 395.5 c 128,-1,14
 270 408 270 408 270 424 c 0,15,16
 270 438 270 438 265.5 451 c 128,-1,17
 261 464 261 464 253 475 c 1,18,-1
 298 487 l 1,19,-1
 333 475 l 1,20,21
 341 462 341 462 345 448 c 128,-1,22
 349 434 349 434 349 423 c 0,23,24
 349 407 349 407 345.5 395.5 c 128,-1,25
 342 384 342 384 336 375 c 1,26,-1
 539 375 l 1,27,-1
 539 306 l 1,28,-1
 405 308 l 1,29,-1
 420 318 l 1,30,31
 449 307 449 307 470.5 286 c 128,-1,32
 492 265 492 265 504 236.5 c 128,-1,33
 516 208 516 208 516 174 c 0,34,35
 516 119 516 119 490 77 c 128,-1,36
 464 35 464 35 412.5 11.5 c 128,-1,37
 361 -12 361 -12 283 -12 c 0,0,1
287 66 m 0,38,39
 367 66 367 66 401.5 100.5 c 128,-1,40
 436 135 436 135 436 184 c 0,41,42
 436 221 436 221 419 248.5 c 128,-1,43
 402 276 402 276 369 291 c 128,-1,44
 336 306 336 306 287 306 c 0,45,46
 237 306 237 306 203.5 290.5 c 128,-1,47
 170 275 170 275 154 247.5 c 128,-1,48
 138 220 138 220 138 184 c 0,49,50
 138 131 138 131 175 98.5 c 128,-1,51
 212 66 212 66 287 66 c 0,38,39
36 474 m 1,52,-1
 36 551 l 1,53,-1
 334 551 l 2,54,55
 388 551 388 551 410 556 c 128,-1,56
 432 561 432 561 442 569 c 0,57,58
 455 579 455 579 459.5 591.5 c 128,-1,59
 464 604 464 604 464 618 c 0,60,61
 464 651 464 651 448 682.5 c 128,-1,62
 432 714 432 714 399 747 c 1,63,-1
 464 790 l 1,64,65
 511 738 511 738 528 696.5 c 128,-1,66
 545 655 545 655 545 612 c 0,67,68
 545 593 545 593 537.5 565.5 c 128,-1,69
 530 538 530 538 504 516 c 0,70,71
 479 494 479 494 444.5 484 c 128,-1,72
 410 474 410 474 352 474 c 2,73,-1
 36 474 l 1,52,-1
EndSplineSet
EndChar

StartChar: l
Encoding: 108 108 130
Width: 759
Flags: W
AnchorPoint: "Anchor-0" 379 -24 basechar 0
LayerCount: 2
Fore
SplineSet
375 -12 m 0,0,1
 267 -12 267 -12 191.5 29 c 128,-1,2
 116 70 116 70 76.5 142.5 c 128,-1,3
 37 215 37 215 37 308 c 0,4,5
 37 387 37 387 62.5 444 c 128,-1,6
 88 501 88 501 134.5 532 c 128,-1,7
 181 563 181 563 242 563 c 0,8,9
 287 563 287 563 319 547 c 128,-1,10
 351 531 351 531 368 501 c 128,-1,11
 385 471 385 471 385 429 c 0,12,13
 385 386 385 386 365.5 352 c 128,-1,14
 346 318 346 318 307.5 298 c 128,-1,15
 269 278 269 278 212 278 c 0,16,17
 190 278 190 278 171 282 c 128,-1,18
 152 286 152 286 136.5 293.5 c 128,-1,19
 121 301 121 301 108 309 c 1,20,-1
 118 380 l 1,21,22
 128 373 128 373 141.5 365.5 c 128,-1,23
 155 358 155 358 171 353 c 128,-1,24
 187 348 187 348 206 348 c 0,25,26
 259 348 259 348 283 370.5 c 128,-1,27
 307 393 307 393 307 427 c 0,28,29
 307 459 307 459 289 476 c 128,-1,30
 271 493 271 493 242 493 c 0,31,32
 209 493 209 493 180 475 c 128,-1,33
 151 457 151 457 133 416 c 128,-1,34
 115 375 115 375 115 306 c 0,35,36
 115 241 115 241 145 187 c 128,-1,37
 175 133 175 133 233.5 101 c 128,-1,38
 292 69 292 69 378 69 c 0,39,40
 462 69 462 69 520.5 94 c 128,-1,41
 579 119 579 119 609.5 166.5 c 128,-1,42
 640 214 640 214 640 281 c 0,43,44
 640 352 640 352 600 403.5 c 128,-1,45
 560 455 560 455 492 491 c 1,46,-1
 538 565 l 1,47,48
 625 518 625 518 673.5 448 c 128,-1,49
 722 378 722 378 722 281 c 0,50,51
 722 201 722 201 686.5 134.5 c 128,-1,52
 651 68 651 68 574.5 28 c 128,-1,53
 498 -12 498 -12 375 -12 c 0,0,1
EndSplineSet
EndChar

StartChar: m
Encoding: 109 109 131
Width: 1156
Flags: W
AnchorPoint: "Anchor-0" 578 -24 basechar 0
LayerCount: 2
Fore
SplineSet
226 -12 m 0,0,1
 170 -12 170 -12 125.5 10 c 128,-1,2
 81 32 81 32 56 72 c 128,-1,3
 31 112 31 112 31 167 c 0,4,5
 31 211 31 211 49 246.5 c 128,-1,6
 67 282 67 282 101 303 c 128,-1,7
 135 324 135 324 183 324 c 0,8,9
 236 324 236 324 268 299 c 128,-1,10
 300 274 300 274 300 231 c 0,11,12
 300 215 300 215 297 199 c 128,-1,13
 294 183 294 183 287 172 c 1,14,-1
 219 178 l 1,15,16
 221 184 221 184 223 193.5 c 128,-1,17
 225 203 225 203 225 210 c 0,18,19
 225 232 225 232 213 243 c 128,-1,20
 201 254 201 254 180 254 c 0,21,22
 149 254 149 254 128 232.5 c 128,-1,23
 107 211 107 211 107 170 c 0,24,25
 107 125 107 125 138.5 96 c 128,-1,26
 170 67 170 67 234 67 c 0,27,28
 303 67 303 67 335 102 c 128,-1,29
 367 137 367 137 372 195 c 1,30,-1
 448 195 l 1,31,32
 453 128 453 128 487.5 97.5 c 128,-1,33
 522 67 522 67 570 67 c 0,34,35
 626 67 626 67 648 103.5 c 128,-1,36
 670 140 670 140 670 191 c 0,37,38
 670 250 670 250 649.5 299.5 c 128,-1,39
 629 349 629 349 595 387 c 128,-1,40
 561 425 561 425 520 448 c 128,-1,41
 479 471 479 471 438 477 c 1,42,-1
 591 483 l 1,43,44
 642 451 642 451 678 407 c 128,-1,45
 714 363 714 363 733 310.5 c 128,-1,46
 752 258 752 258 752 198 c 0,47,48
 752 126 752 126 727.5 79.5 c 128,-1,49
 703 33 703 33 663 10.5 c 128,-1,50
 623 -12 623 -12 577 -12 c 0,51,52
 526 -12 526 -12 494 1 c 128,-1,53
 462 14 462 14 440 39.5 c 128,-1,54
 418 65 418 65 396 101 c 1,55,-1
 427 105 l 1,56,57
 401 57 401 57 371.5 32 c 128,-1,58
 342 7 342 7 306.5 -2.5 c 128,-1,59
 271 -12 271 -12 226 -12 c 0,0,1
31 474 m 1,60,-1
 31 551 l 1,61,-1
 541 551 l 2,62,63
 595 551 595 551 617 556 c 128,-1,64
 639 561 639 561 649 569 c 0,65,66
 663 579 663 579 667 591.5 c 128,-1,67
 671 604 671 604 671 618 c 0,68,69
 671 651 671 651 655 682.5 c 128,-1,70
 639 714 639 714 606 747 c 1,71,-1
 671 790 l 1,72,73
 718 738 718 738 735 696.5 c 128,-1,74
 752 655 752 655 752 612 c 0,75,76
 752 593 752 593 744.5 565.5 c 128,-1,77
 737 538 737 538 711 516 c 0,78,79
 686 494 686 494 651.5 484 c 128,-1,80
 617 474 617 474 559 474 c 2,81,-1
 31 474 l 1,60,-1
908 -12 m 0,82,83
 832 -12 832 -12 775 26.5 c 128,-1,84
 718 65 718 65 673 123 c 1,85,-1
 724 177 l 1,86,87
 766 124 766 124 809.5 95.5 c 128,-1,88
 853 67 853 67 911 67 c 0,89,90
 971 67 971 67 1004 106 c 128,-1,91
 1037 145 1037 145 1037 210 c 0,92,93
 1037 280 1037 280 1012 333 c 128,-1,94
 987 386 987 386 943 424.5 c 128,-1,95
 899 463 899 463 841 488 c 1,96,-1
 884 565 l 1,97,98
 952 532 952 532 1005 482 c 128,-1,99
 1058 432 1058 432 1088.5 365 c 128,-1,100
 1119 298 1119 298 1119 215 c 0,101,102
 1119 150 1119 150 1096 98.5 c 128,-1,103
 1073 47 1073 47 1026 17.5 c 128,-1,104
 979 -12 979 -12 908 -12 c 0,82,83
EndSplineSet
EndChar

StartChar: n
Encoding: 110 110 132
Width: 711
Flags: W
AnchorPoint: "Anchor-0" 355 -24 basechar 0
LayerCount: 2
Fore
SplineSet
483 -12 m 0,0,1
 430 -12 430 -12 395.5 8 c 128,-1,2
 361 28 361 28 337.5 59.5 c 128,-1,3
 314 91 314 91 294 125 c 0,4,5
 269 169 269 169 251 191 c 128,-1,6
 233 213 233 213 217.5 221 c 128,-1,7
 202 229 202 229 182 229 c 0,8,9
 148 229 148 229 129.5 207.5 c 128,-1,10
 111 186 111 186 111 148 c 0,11,12
 111 116 111 116 125 82.5 c 128,-1,13
 139 49 139 49 162 17 c 1,14,-1
 84 -14 l 1,15,16
 61 18 61 18 46 60 c 128,-1,17
 31 102 31 102 31 145 c 0,18,19
 31 192 31 192 51 228 c 128,-1,20
 71 264 71 264 105 284.5 c 128,-1,21
 139 305 139 305 181 305 c 0,22,23
 243 305 243 305 279 276 c 128,-1,24
 315 247 315 247 349 187 c 0,25,26
 372 148 372 148 391 121 c 128,-1,27
 410 94 410 94 433.5 80.5 c 128,-1,28
 457 67 457 67 492 67 c 0,29,30
 544 67 544 67 565.5 103.5 c 128,-1,31
 587 140 587 140 587 190 c 0,32,33
 587 260 587 260 557.5 320 c 128,-1,34
 528 380 528 380 478.5 420.5 c 128,-1,35
 429 461 429 461 367 474 c 1,36,-1
 33 474 l 1,37,-1
 33 551 l 1,38,-1
 458 551 l 2,39,40
 512 551 512 551 533.5 556 c 128,-1,41
 555 561 555 561 566 569 c 0,42,43
 579 579 579 579 583.5 591.5 c 128,-1,44
 588 604 588 604 588 618 c 0,45,46
 588 651 588 651 572 682.5 c 128,-1,47
 556 714 556 714 523 747 c 1,48,-1
 588 790 l 1,49,50
 635 738 635 738 652 696.5 c 128,-1,51
 669 655 669 655 669 612 c 0,52,53
 669 593 669 593 661 565.5 c 128,-1,54
 653 538 653 538 628 516 c 256,55,56
 603 494 603 494 568 484 c 128,-1,57
 533 474 533 474 475 474 c 2,58,-1
 451 474 l 1,59,-1
 508 483 l 1,60,61
 559 451 559 451 595 407 c 128,-1,62
 631 363 631 363 650 310.5 c 128,-1,63
 669 258 669 258 669 198 c 0,64,65
 669 100 669 100 620.5 44 c 128,-1,66
 572 -12 572 -12 483 -12 c 0,0,1
EndSplineSet
EndChar

StartChar: ntilde
Encoding: 241 241 133
Width: 556
Flags: W
LayerCount: 2
Fore
SplineSet
323 0 m 1,0,-1
 233 0 l 1,1,-1
 233 635 l 1,2,-1
 10 635 l 1,3,-1
 10 714 l 1,4,-1
 545 714 l 1,5,-1
 545 635 l 1,6,-1
 323 635 l 1,7,-1
 323 0 l 1,0,-1
EndSplineSet
EndChar

StartChar: o
Encoding: 111 111 134
Width: 605
Flags: W
LayerCount: 2
Fore
SplineSet
551 269 m 0,0,1
 551 202 551 202 533.5 150.5 c 128,-1,2
 516 99 516 99 483.5 63 c 128,-1,3
 451 27 451 27 404.5 8.5 c 128,-1,4
 358 -10 358 -10 301 -10 c 0,5,6
 248 -10 248 -10 203 8.5 c 128,-1,7
 158 27 158 27 125 63 c 128,-1,8
 92 99 92 99 73.5 150.5 c 128,-1,9
 55 202 55 202 55 269 c 0,10,11
 55 358 55 358 85 419.5 c 128,-1,12
 115 481 115 481 171 513.5 c 128,-1,13
 227 546 227 546 304 546 c 0,14,15
 377 546 377 546 432.5 513.5 c 128,-1,16
 488 481 488 481 519.5 419.5 c 128,-1,17
 551 358 551 358 551 269 c 0,0,1
146 269 m 0,18,19
 146 206 146 206 162.5 159.5 c 128,-1,20
 179 113 179 113 214 88 c 128,-1,21
 249 63 249 63 303 63 c 256,22,23
 357 63 357 63 392 88 c 128,-1,24
 427 113 427 113 443.5 159.5 c 128,-1,25
 460 206 460 206 460 269 c 0,26,27
 460 333 460 333 443 378 c 128,-1,28
 426 423 426 423 391.5 447.5 c 128,-1,29
 357 472 357 472 302 472 c 0,30,31
 220 472 220 472 183 418 c 128,-1,32
 146 364 146 364 146 269 c 0,18,19
EndSplineSet
EndChar

StartChar: oacute
Encoding: 243 243 135
Width: 600
Flags: W
LayerCount: 2
Fore
SplineSet
600 714 m 1,0,-1
 345 0 l 1,1,-1
 255 0 l 1,2,-1
 0 714 l 1,3,-1
 94 714 l 1,4,-1
 255 256 l 2,5,6
 266 227 266 227 274 200 c 128,-1,7
 282 173 282 173 288.5 148.5 c 128,-1,8
 295 124 295 124 300 100 c 1,9,10
 305 124 305 124 311.5 149 c 128,-1,11
 318 174 318 174 326.5 201 c 128,-1,12
 335 228 335 228 345 258 c 2,13,-1
 505 714 l 1,14,-1
 600 714 l 1,0,-1
EndSplineSet
EndChar

StartChar: ograve
Encoding: 242 242 136
Width: 561
Flags: W
LayerCount: 2
Fore
SplineSet
640 252 m 2,0,1
 640 178 640 178 610 118.5 c 128,-1,2
 580 59 580 59 518.5 24.5 c 128,-1,3
 457 -10 457 -10 362 -10 c 0,4,5
 229 -10 229 -10 159.5 62.5 c 128,-1,6
 90 135 90 135 90 254 c 2,7,-1
 90 714 l 1,8,-1
 180 714 l 1,9,-1
 180 251 l 2,10,11
 180 164 180 164 226.5 116 c 128,-1,12
 273 68 273 68 367 68 c 0,13,14
 432 68 432 68 472.5 91.5 c 128,-1,15
 513 115 513 115 532 156.5 c 128,-1,16
 551 198 551 198 551 252 c 2,17,-1
 551 714 l 1,18,-1
 640 714 l 1,19,-1
 640 252 l 2,0,1
EndSplineSet
EndChar

StartChar: p
Encoding: 112 112 137
Width: 792
Flags: W
AnchorPoint: "Anchor-0" 410 -24 basechar 0
LayerCount: 2
Fore
SplineSet
226 -12 m 0,0,1
 170 -12 170 -12 125.5 10 c 128,-1,2
 81 32 81 32 56 72 c 128,-1,3
 31 112 31 112 31 167 c 0,4,5
 31 211 31 211 49 246.5 c 128,-1,6
 67 282 67 282 101 303 c 128,-1,7
 135 324 135 324 183 324 c 0,8,9
 236 324 236 324 268 299 c 128,-1,10
 300 274 300 274 300 231 c 0,11,12
 300 215 300 215 297 199 c 128,-1,13
 294 183 294 183 287 172 c 1,14,-1
 219 178 l 1,15,16
 221 186 221 186 223 194.5 c 128,-1,17
 225 203 225 203 225 210 c 0,18,19
 225 232 225 232 213 243 c 128,-1,20
 201 254 201 254 180 254 c 0,21,22
 149 254 149 254 128.5 232.5 c 128,-1,23
 108 211 108 211 108 170 c 0,24,25
 108 125 108 125 139 96 c 128,-1,26
 170 67 170 67 234 67 c 0,27,28
 303 67 303 67 335 102 c 128,-1,29
 367 137 367 137 372 195 c 1,30,-1
 448 195 l 1,31,32
 453 128 453 128 487.5 97.5 c 128,-1,33
 522 67 522 67 570 67 c 0,34,35
 606 67 606 67 628 83 c 128,-1,36
 650 99 650 99 660 127.5 c 128,-1,37
 670 156 670 156 670 191 c 0,38,39
 670 237 670 237 652 284.5 c 128,-1,40
 634 332 634 332 586 387 c 1,41,-1
 657 435 l 1,42,43
 703 384 703 384 727.5 326.5 c 128,-1,44
 752 269 752 269 752 198 c 0,45,46
 752 126 752 126 727.5 79.5 c 128,-1,47
 703 33 703 33 663 10.5 c 128,-1,48
 623 -12 623 -12 577 -12 c 0,49,50
 526 -12 526 -12 494 1 c 128,-1,51
 462 14 462 14 440 39.5 c 128,-1,52
 418 65 418 65 396 101 c 1,53,-1
 427 105 l 1,54,55
 401 57 401 57 371.5 32 c 128,-1,56
 342 7 342 7 306.5 -2.5 c 128,-1,57
 271 -12 271 -12 226 -12 c 0,0,1
401 297 m 0,58,59
 377 297 377 297 360.5 314 c 128,-1,60
 344 331 344 331 344 355 c 0,61,62
 344 381 344 381 360.5 398 c 128,-1,63
 377 415 377 415 401 415 c 0,64,65
 426 415 426 415 443 398 c 128,-1,66
 460 381 460 381 460 355 c 0,67,68
 460 331 460 331 443 314 c 128,-1,69
 426 297 426 297 401 297 c 0,58,59
31 474 m 1,70,-1
 31 551 l 1,71,-1
 541 551 l 2,72,73
 595 551 595 551 617 556 c 128,-1,74
 639 561 639 561 649 569 c 0,75,76
 663 579 663 579 667 591.5 c 128,-1,77
 671 604 671 604 671 618 c 0,78,79
 671 651 671 651 655 682.5 c 128,-1,80
 639 714 639 714 606 747 c 1,81,-1
 671 790 l 1,82,83
 718 738 718 738 735 696.5 c 128,-1,84
 752 655 752 655 752 612 c 0,85,86
 752 593 752 593 744.5 565.5 c 128,-1,87
 737 538 737 538 711 516 c 0,88,89
 686 494 686 494 651.5 484 c 128,-1,90
 617 474 617 474 559 474 c 2,91,-1
 31 474 l 1,70,-1
EndSplineSet
EndChar

StartChar: q
Encoding: 113 113 138
Width: 534
Flags: W
LayerCount: 2
Fore
SplineSet
272 578 m 4,0,1
 223 578 223 578 193 606 c 132,-1,2
 163 634 163 634 163 684 c 260,3,4
 163 734 163 734 193 761.5 c 132,-1,5
 223 789 223 789 272 789 c 4,6,7
 319 789 319 789 351 761.5 c 132,-1,8
 383 734 383 734 383 685 c 4,9,10
 383 634 383 634 351.5 606 c 132,-1,11
 320 578 320 578 272 578 c 4,0,1
272 628 m 4,12,13
 297 628 297 628 312.5 643 c 132,-1,14
 328 658 328 658 328 684 c 260,15,16
 328 710 328 710 312 725 c 132,-1,17
 296 740 296 740 272 740 c 260,18,19
 248 740 248 740 232 725 c 132,-1,20
 216 710 216 710 216 684 c 260,21,22
 216 658 216 658 230.5 643 c 132,-1,23
 245 628 245 628 272 628 c 4,12,13
172 363 m 2,24,25
 172 347 172 347 170.5 321 c 128,-1,26
 169 295 169 295 168 276 c 1,27,-1
 172 276 l 1,28,29
 178 284 178 284 190 299 c 128,-1,30
 202 314 202 314 214.5 329.5 c 0,31,32
 235 353 235 353 236 355 c 2,33,-1
 407 536 l 1,34,-1
 510 536 l 1,35,-1
 293 307 l 1,36,-1
 525 0 l 1,37,-1
 419 0 l 1,38,-1
 233 250 l 1,39,-1
 172 197 l 1,40,-1
 172 0 l 1,41,-1
 85 0 l 1,42,-1
 85 535 l 1,43,-1
 172 535 l 1,44,-1
 172 363 l 2,24,25
EndSplineSet
EndChar

StartChar: r
Encoding: 114 114 139
Width: 651
Flags: W
AnchorPoint: "Anchor-0" 326 -24 basechar 0
LayerCount: 2
Fore
SplineSet
326 -12 m 0,0,1
 245 -12 245 -12 180.5 19 c 128,-1,2
 116 50 116 50 79 109.5 c 128,-1,3
 42 169 42 169 42 255 c 0,4,5
 42 312 42 312 57.5 356 c 128,-1,6
 73 400 73 400 101 433 c 128,-1,7
 129 466 129 466 168 488 c 1,8,-1
 186 474 l 1,9,-1
 42 474 l 1,10,-1
 42 551 l 1,11,-1
 398 551 l 2,12,13
 452 551 452 551 474 556 c 128,-1,14
 496 561 496 561 507 569 c 0,15,16
 520 579 520 579 524.5 591.5 c 128,-1,17
 529 604 529 604 529 618 c 0,18,19
 529 651 529 651 513 682.5 c 128,-1,20
 497 714 497 714 464 747 c 1,21,-1
 529 790 l 1,22,23
 576 738 576 738 593 696.5 c 128,-1,24
 610 655 610 655 610 612 c 0,25,26
 610 593 610 593 602 565.5 c 128,-1,27
 594 538 594 538 569 516 c 0,28,29
 556 504 556 504 538 494.5 c 128,-1,30
 520 485 520 485 496 480 c 1,31,-1
 491 488 l 1,32,33
 529 464 529 464 555.5 431.5 c 128,-1,34
 582 399 582 399 596 356 c 128,-1,35
 610 313 610 313 610 255 c 0,36,37
 610 177 610 177 576 117 c 128,-1,38
 542 57 542 57 478.5 22.5 c 128,-1,39
 415 -12 415 -12 326 -12 c 0,0,1
327 69 m 0,40,41
 395 69 395 69 439.5 96 c 128,-1,42
 484 123 484 123 506 169.5 c 128,-1,43
 528 216 528 216 528 272 c 0,44,45
 528 337 528 337 501.5 382.5 c 128,-1,46
 475 428 475 428 430 452 c 128,-1,47
 385 476 385 476 328 476 c 0,48,49
 266 476 266 476 220 450.5 c 128,-1,50
 174 425 174 425 149 379.5 c 128,-1,51
 124 334 124 334 124 272 c 0,52,53
 124 175 124 175 179.5 122 c 128,-1,54
 235 69 235 69 327 69 c 0,40,41
EndSplineSet
EndChar

StartChar: s
Encoding: 115 115 140
Width: 709
Flags: W
AnchorPoint: "Anchor-0" 354 -24 basechar 0
LayerCount: 2
Fore
SplineSet
483 -12 m 0,0,1
 430 -12 430 -12 395.5 8 c 128,-1,2
 361 28 361 28 337.5 59.5 c 128,-1,3
 314 91 314 91 294 125 c 0,4,5
 269 169 269 169 251 191 c 128,-1,6
 233 213 233 213 217.5 221 c 128,-1,7
 202 229 202 229 182 229 c 0,8,9
 148 229 148 229 129.5 207.5 c 128,-1,10
 111 186 111 186 111 148 c 0,11,12
 111 116 111 116 125 82.5 c 128,-1,13
 139 49 139 49 162 17 c 1,14,-1
 84 -14 l 1,15,16
 61 18 61 18 46 60.5 c 128,-1,17
 31 103 31 103 31 146 c 0,18,19
 31 192 31 192 51 228 c 128,-1,20
 71 264 71 264 105 284.5 c 128,-1,21
 139 305 139 305 181 305 c 256,22,23
 223 305 223 305 252 292 c 128,-1,24
 281 279 281 279 303.5 253 c 128,-1,25
 326 227 326 227 349 187 c 0,26,27
 372 148 372 148 391.5 121 c 128,-1,28
 411 94 411 94 434 80.5 c 128,-1,29
 457 67 457 67 490 67 c 0,30,31
 540 67 540 67 564 103 c 128,-1,32
 588 139 588 139 588 194 c 0,33,34
 588 239 588 239 570 286 c 128,-1,35
 552 333 552 333 504 387 c 1,36,-1
 572 435 l 1,37,38
 619 384 619 384 644.5 327 c 128,-1,39
 670 270 670 270 670 203 c 0,40,41
 670 101 670 101 621 44.5 c 128,-1,42
 572 -12 572 -12 483 -12 c 0,0,1
341 315 m 0,43,44
 317 315 317 315 300 332 c 128,-1,45
 283 349 283 349 283 374 c 256,46,47
 283 399 283 399 300 416 c 128,-1,48
 317 433 317 433 341 433 c 0,49,50
 366 433 366 433 382.5 416 c 128,-1,51
 399 399 399 399 399 374 c 256,52,53
 399 349 399 349 382.5 332 c 128,-1,54
 366 315 366 315 341 315 c 0,43,44
32 474 m 1,55,-1
 32 551 l 1,56,-1
 458 551 l 2,57,58
 512 551 512 551 534 556 c 128,-1,59
 556 561 556 561 567 569 c 0,60,61
 580 579 580 579 584.5 591.5 c 128,-1,62
 589 604 589 604 589 618 c 0,63,64
 589 651 589 651 573 682.5 c 128,-1,65
 557 714 557 714 524 747 c 1,66,-1
 589 790 l 1,67,68
 636 738 636 738 653 696.5 c 128,-1,69
 670 655 670 655 670 612 c 0,70,71
 670 593 670 593 662 565.5 c 128,-1,72
 654 538 654 538 629 516 c 0,73,74
 603 494 603 494 568.5 484 c 128,-1,75
 534 474 534 474 477 474 c 2,76,-1
 32 474 l 1,55,-1
EndSplineSet
EndChar

StartChar: germandbls
Encoding: 223 223 141
Width: 650
Flags: W
LayerCount: 2
Fore
SplineSet
301 714 m 2,0,1
 435 714 435 714 503.5 674.5 c 128,-1,2
 572 635 572 635 572 537 c 0,3,4
 572 495 572 495 556.5 462.5 c 128,-1,5
 541 430 541 430 510.5 408.5 c 128,-1,6
 480 387 480 387 436 379 c 1,7,-1
 436 374 l 1,8,9
 481 367 481 367 517.5 348 c 128,-1,10
 554 329 554 329 575 294 c 128,-1,11
 596 259 596 259 596 203 c 0,12,13
 596 138 596 138 566 92.5 c 128,-1,14
 536 47 536 47 480.5 23.5 c 128,-1,15
 425 0 425 0 348 0 c 2,16,-1
 97 0 l 1,17,-1
 97 714 l 1,18,-1
 301 714 l 2,0,1
319 410 m 2,19,20
 411 410 411 410 445 439.5 c 128,-1,21
 479 469 479 469 479 527 c 0,22,23
 479 586 479 586 437.5 611.5 c 128,-1,24
 396 637 396 637 305 637 c 2,25,-1
 187 637 l 1,26,-1
 187 410 l 1,27,-1
 319 410 l 2,19,20
187 335 m 1,28,-1
 187 76 l 1,29,-1
 331 76 l 2,30,31
 426 76 426 76 463 113 c 128,-1,32
 500 150 500 150 500 210 c 0,33,34
 500 248 500 248 483.5 276 c 128,-1,35
 467 304 467 304 428.5 319.5 c 128,-1,36
 390 335 390 335 324 335 c 2,37,-1
 187 335 l 1,28,-1
EndSplineSet
EndChar

StartChar: t
Encoding: 116 116 142
Width: 815
Flags: W
AnchorPoint: "Anchor-0" 432 -24 basechar 0
LayerCount: 2
Fore
SplineSet
243 -12 m 0,0,1
 198 -12 198 -12 161 2.5 c 128,-1,2
 124 17 124 17 96.5 46 c 128,-1,3
 69 75 69 75 54.5 117.5 c 128,-1,4
 40 160 40 160 40 216 c 0,5,6
 40 288 40 288 65 344 c 128,-1,7
 90 400 90 400 135.5 432 c 128,-1,8
 181 464 181 464 243 464 c 0,9,10
 284 464 284 464 314.5 449 c 128,-1,11
 345 434 345 434 362 407 c 128,-1,12
 379 380 379 380 379 342 c 0,13,14
 379 303 379 303 360.5 273 c 128,-1,15
 342 243 342 243 305.5 226 c 128,-1,16
 269 209 269 209 215 209 c 0,17,18
 163 209 163 209 128 230 c 128,-1,19
 93 251 93 251 74 274 c 1,20,-1
 94 340 l 1,21,22
 107 322 107 322 135 300.5 c 128,-1,23
 163 279 163 279 208 279 c 0,24,25
 257 279 257 279 279 295 c 128,-1,26
 301 311 301 311 301 338 c 256,27,28
 301 365 301 365 284 379.5 c 128,-1,29
 267 394 267 394 241 394 c 0,30,31
 199 394 199 394 172 369 c 128,-1,32
 145 344 145 344 132.5 303 c 128,-1,33
 120 262 120 262 120 215 c 2,34,-1
 120 205 l 2,35,36
 120 165 120 165 130.5 138.5 c 128,-1,37
 141 112 141 112 159 96.5 c 128,-1,38
 177 81 177 81 201.5 74 c 128,-1,39
 226 67 226 67 253 67 c 0,40,41
 320 67 320 67 352.5 103.5 c 128,-1,42
 385 140 385 140 394 195 c 1,43,-1
 471 195 l 1,44,45
 477 128 477 128 513 97.5 c 128,-1,46
 549 67 549 67 597 67 c 0,47,48
 652 67 652 67 675.5 95 c 128,-1,49
 699 123 699 123 699 162 c 256,50,51
 699 201 699 201 680.5 231 c 128,-1,52
 662 261 662 261 632 280.5 c 128,-1,53
 602 300 602 300 566 307 c 1,54,-1
 634 352 l 1,55,56
 684 332 684 332 716.5 303 c 128,-1,57
 749 274 749 274 765 237 c 128,-1,58
 781 200 781 200 781 156 c 0,59,60
 781 83 781 83 737.5 35.5 c 128,-1,61
 694 -12 694 -12 602 -12 c 0,62,63
 559 -12 559 -12 526 0 c 128,-1,64
 493 12 493 12 466.5 37.5 c 128,-1,65
 440 63 440 63 417 102 c 1,66,-1
 450 103 l 1,67,68
 420 60 420 60 390.5 34.5 c 128,-1,69
 361 9 361 9 325.5 -1.5 c 128,-1,70
 290 -12 290 -12 243 -12 c 0,0,1
189 412 m 1,71,72
 135 429 135 429 110 465 c 128,-1,73
 85 501 85 501 85 536 c 0,74,75
 85 567 85 567 100.5 592.5 c 128,-1,76
 116 618 116 618 152 634.5 c 128,-1,77
 188 651 188 651 248 653 c 1,78,-1
 256 575 l 1,79,80
 207 574 207 574 185.5 561.5 c 128,-1,81
 164 549 164 549 164 525 c 0,82,83
 164 502 164 502 184.5 485 c 128,-1,84
 205 468 205 468 246 458 c 1,85,-1
 189 412 l 1,71,72
498 306 m 1,86,-1
 498 381 l 1,87,-1
 555 381 l 2,88,89
 598 381 598 381 622 387 c 128,-1,90
 646 393 646 393 659 406 c 0,91,92
 670 417 670 417 675 430.5 c 128,-1,93
 680 444 680 444 680 460 c 0,94,95
 680 493 680 493 658.5 520 c 128,-1,96
 637 547 637 547 570 560 c 1,97,-1
 598 636 l 1,98,99
 681 618 681 618 721.5 573 c 128,-1,100
 762 528 762 528 762 469 c 0,101,102
 762 425 762 425 737 383 c 128,-1,103
 712 341 712 341 653 320 c 0,104,105
 640 316 640 316 630 312.5 c 128,-1,106
 620 309 620 309 608.5 307.5 c 128,-1,107
 597 306 597 306 577 306 c 2,108,-1
 498 306 l 1,86,-1
EndSplineSet
EndChar

StartChar: u
Encoding: 117 117 143
Width: 618
Flags: W
LayerCount: 2
Fore
SplineSet
533 536 m 1,0,-1
 533 0 l 1,1,-1
 461 0 l 1,2,-1
 448 71 l 1,3,-1
 444 71 l 1,4,5
 427 43 427 43 400 25 c 128,-1,6
 373 7 373 7 341 -1.5 c 128,-1,7
 309 -10 309 -10 274 -10 c 0,8,9
 210 -10 210 -10 166.5 10.5 c 128,-1,10
 123 31 123 31 101 74 c 128,-1,11
 79 117 79 117 79 185 c 2,12,-1
 79 536 l 1,13,-1
 168 536 l 1,14,-1
 168 191 l 2,15,16
 168 127 168 127 197 95 c 128,-1,17
 226 63 226 63 287 63 c 0,18,19
 347 63 347 63 381.5 85.5 c 128,-1,20
 416 108 416 108 430.5 151.5 c 128,-1,21
 445 195 445 195 445 257 c 2,22,-1
 445 536 l 1,23,-1
 533 536 l 1,0,-1
EndSplineSet
EndChar

StartChar: v
Encoding: 118 118 144
Width: 794
Flags: W
AnchorPoint: "Anchor-0" 410 -24 basechar 0
LayerCount: 2
Fore
SplineSet
226 -12 m 0,0,1
 170 -12 170 -12 125.5 10 c 128,-1,2
 81 32 81 32 56 72 c 128,-1,3
 31 112 31 112 31 167 c 0,4,5
 31 211 31 211 49 246.5 c 128,-1,6
 67 282 67 282 101 303 c 128,-1,7
 135 324 135 324 183 324 c 0,8,9
 236 324 236 324 268 299 c 128,-1,10
 300 274 300 274 300 231 c 0,11,12
 300 215 300 215 297 199 c 128,-1,13
 294 183 294 183 287 172 c 1,14,-1
 219 178 l 1,15,16
 221 184 221 184 223 193.5 c 128,-1,17
 225 203 225 203 225 210 c 0,18,19
 225 232 225 232 213 243 c 128,-1,20
 201 254 201 254 180 254 c 0,21,22
 149 254 149 254 128.5 232.5 c 128,-1,23
 108 211 108 211 108 170 c 0,24,25
 108 125 108 125 139 96 c 128,-1,26
 170 67 170 67 234 67 c 0,27,28
 303 67 303 67 335 102 c 128,-1,29
 367 137 367 137 372 195 c 1,30,-1
 448 195 l 1,31,32
 453 128 453 128 487.5 97.5 c 128,-1,33
 522 67 522 67 570 67 c 0,34,35
 626 67 626 67 648 103.5 c 128,-1,36
 670 140 670 140 670 191 c 0,37,38
 670 250 670 250 649.5 299.5 c 128,-1,39
 629 349 629 349 595 387 c 128,-1,40
 561 425 561 425 520 448 c 128,-1,41
 479 471 479 471 438 477 c 1,42,-1
 591 483 l 1,43,44
 642 451 642 451 678 407 c 128,-1,45
 714 363 714 363 733 310.5 c 128,-1,46
 752 258 752 258 752 198 c 0,47,48
 752 126 752 126 727.5 79.5 c 128,-1,49
 703 33 703 33 663 10.5 c 128,-1,50
 623 -12 623 -12 577 -12 c 0,51,52
 526 -12 526 -12 494 1 c 128,-1,53
 462 14 462 14 440 39.5 c 128,-1,54
 418 65 418 65 396 101 c 1,55,-1
 427 105 l 1,56,57
 401 57 401 57 371.5 32 c 128,-1,58
 342 7 342 7 306.5 -2.5 c 128,-1,59
 271 -12 271 -12 226 -12 c 0,0,1
31 474 m 1,60,-1
 31 551 l 1,61,-1
 541 551 l 2,62,63
 595 551 595 551 617 556 c 128,-1,64
 639 561 639 561 649 569 c 0,65,66
 663 579 663 579 667 591.5 c 128,-1,67
 671 604 671 604 671 618 c 0,68,69
 671 651 671 651 655 682.5 c 128,-1,70
 639 714 639 714 606 747 c 1,71,-1
 671 790 l 1,72,73
 718 738 718 738 735 696.5 c 128,-1,74
 752 655 752 655 752 612 c 0,75,76
 752 593 752 593 744.5 565.5 c 128,-1,77
 737 538 737 538 711 516 c 0,78,79
 686 494 686 494 651.5 484 c 128,-1,80
 617 474 617 474 559 474 c 2,81,-1
 31 474 l 1,60,-1
EndSplineSet
EndChar

StartChar: w
Encoding: 119 119 145
Width: 786
Flags: W
LayerCount: 2
Fore
SplineSet
431 303 m 2,0,1
 425 324 425 324 419 344.5 c 128,-1,2
 413 365 413 365 408.5 383.5 c 128,-1,3
 404 402 404 402 400 418 c 128,-1,4
 396 434 396 434 394 445 c 1,5,-1
 390 445 l 1,6,7
 388 434 388 434 384.5 418 c 128,-1,8
 381 402 381 402 376.5 383 c 128,-1,9
 372 364 372 364 366.5 343.5 c 128,-1,10
 361 323 361 323 354 302 c 2,11,-1
 258 1 l 1,12,-1
 158 1 l 1,13,-1
 11 537 l 1,14,-1
 102 537 l 1,15,-1
 176 251 l 2,16,17
 184 222 184 222 191 192.5 c 128,-1,18
 198 163 198 163 203.5 136.5 c 128,-1,19
 209 110 209 110 211 91 c 1,20,-1
 215 91 l 1,21,22
 218 103 218 103 222 121 c 128,-1,23
 226 139 226 139 230.5 159 c 128,-1,24
 235 179 235 179 240.5 199 c 128,-1,25
 246 219 246 219 251 235 c 2,26,-1
 346 537 l 1,27,-1
 442 537 l 1,28,-1
 534 235 l 2,29,30
 541 212 541 212 548.5 186 c 128,-1,31
 556 160 556 160 562 135.5 c 128,-1,32
 568 111 568 111 570 92 c 1,33,-1
 574 92 l 1,34,35
 576 109 576 109 581.5 134.5 c 128,-1,36
 587 160 587 160 594.5 190.5 c 128,-1,37
 602 221 602 221 610 251 c 2,38,-1
 685 537 l 1,39,-1
 775 537 l 1,40,-1
 626 1 l 1,41,-1
 523 1 l 1,42,-1
 431 303 l 2,0,1
EndSplineSet
EndChar

StartChar: x
Encoding: 120 120 146
Width: 529
Flags: W
LayerCount: 2
Fore
SplineSet
212 274 m 1,0,-1
 27 536 l 1,1,-1
 127 536 l 1,2,-1
 265 334 l 1,3,-1
 402 536 l 1,4,-1
 501 536 l 1,5,-1
 316 274 l 1,6,-1
 511 0 l 1,7,-1
 411 0 l 1,8,-1
 265 214 l 1,9,-1
 117 0 l 1,10,-1
 18 0 l 1,11,-1
 212 274 l 1,0,-1
EndSplineSet
EndChar

StartChar: y
Encoding: 121 121 147
Width: 1336
Flags: W
AnchorPoint: "Anchor-0" 669 -24 basechar 0
LayerCount: 2
Fore
SplineSet
308 -12 m 0,0,1
 234 -12 234 -12 183 14 c 128,-1,2
 132 40 132 40 100.5 83 c 128,-1,3
 69 126 69 126 54.5 177 c 128,-1,4
 40 228 40 228 40 279 c 0,5,6
 40 360 40 360 73 424.5 c 128,-1,7
 106 489 106 489 166 526 c 128,-1,8
 226 563 226 563 306 563 c 0,9,10
 381 563 381 563 432 536.5 c 128,-1,11
 483 510 483 510 514 467 c 128,-1,12
 545 424 545 424 558.5 373.5 c 128,-1,13
 572 323 572 323 572 276 c 0,14,15
 572 191 572 191 539 126 c 128,-1,16
 506 61 506 61 447 24.5 c 128,-1,17
 388 -12 388 -12 308 -12 c 0,0,1
306 67 m 0,18,19
 362 67 362 67 403 91.5 c 128,-1,20
 444 116 444 116 467 163.5 c 128,-1,21
 490 211 490 211 490 279 c 0,22,23
 490 340 490 340 469 386 c 128,-1,24
 448 432 448 432 407 458 c 128,-1,25
 366 484 366 484 305 484 c 0,26,27
 253 484 253 484 211.5 461 c 128,-1,28
 170 438 170 438 146 392 c 128,-1,29
 122 346 122 346 122 277 c 0,30,31
 122 209 122 209 144 162 c 128,-1,32
 166 115 166 115 207.5 91 c 128,-1,33
 249 67 249 67 306 67 c 0,18,19
721 -12 m 0,34,35
 645 -12 645 -12 588 26.5 c 128,-1,36
 531 65 531 65 486 123 c 1,37,-1
 538 177 l 1,38,39
 579 124 579 124 623 95.5 c 128,-1,40
 667 67 667 67 722 67 c 0,41,42
 784 67 784 67 817 106 c 128,-1,43
 850 145 850 145 850 210 c 0,44,45
 850 276 850 276 824.5 329.5 c 128,-1,46
 799 383 799 383 752.5 421 c 128,-1,47
 706 459 706 459 644 477 c 1,48,-1
 782 481 l 1,49,50
 830 451 830 451 863.5 412.5 c 128,-1,51
 897 374 897 374 914.5 325 c 128,-1,52
 932 276 932 276 932 215 c 0,53,54
 932 175 932 175 921.5 134.5 c 128,-1,55
 911 94 911 94 887 61 c 128,-1,56
 863 28 863 28 822 8 c 128,-1,57
 781 -12 781 -12 721 -12 c 0,34,35
1088 -12 m 0,58,59
 1012 -12 1012 -12 955.5 26.5 c 128,-1,60
 899 65 899 65 853 123 c 1,61,-1
 904 177 l 1,62,63
 946 124 946 124 990 95.5 c 128,-1,64
 1034 67 1034 67 1091 67 c 0,65,66
 1151 67 1151 67 1184 106 c 128,-1,67
 1217 145 1217 145 1217 210 c 0,68,69
 1217 280 1217 280 1192 333 c 128,-1,70
 1167 386 1167 386 1123 424.5 c 128,-1,71
 1079 463 1079 463 1021 488 c 1,72,-1
 1064 565 l 1,73,74
 1132 532 1132 532 1185 482 c 128,-1,75
 1238 432 1238 432 1268.5 365 c 128,-1,76
 1299 298 1299 298 1299 215 c 0,77,78
 1299 150 1299 150 1276 98.5 c 128,-1,79
 1253 47 1253 47 1206.5 17.5 c 128,-1,80
 1160 -12 1160 -12 1088 -12 c 0,58,59
923 612 m 0,81,82
 923 593 923 593 915.5 565.5 c 128,-1,83
 908 538 908 538 882 516 c 0,84,85
 857 494 857 494 822.5 484 c 128,-1,86
 788 474 788 474 730 474 c 2,87,-1
 600 474 l 1,88,-1
 600 551 l 1,89,-1
 712 551 l 2,90,91
 766 551 766 551 788 556 c 128,-1,92
 810 561 810 561 820 569 c 0,93,94
 833 579 833 579 837.5 591.5 c 128,-1,95
 842 604 842 604 842 618 c 0,96,97
 842 651 842 651 826 682.5 c 128,-1,98
 810 714 810 714 777 747 c 1,99,-1
 842 790 l 1,100,101
 889 738 889 738 906 696.5 c 128,-1,102
 923 655 923 655 923 612 c 0,81,82
EndSplineSet
EndChar

StartChar: z
Encoding: 122 122 148
Width: 775
Flags: W
AnchorPoint: "Anchor-0" 395 -24 basechar 0
LayerCount: 2
Fore
SplineSet
561 -12 m 0,0,1
 500 -12 500 -12 457.5 14.5 c 128,-1,2
 415 41 415 41 380 104 c 1,3,-1
 411 104 l 1,4,5
 388 59 388 59 360.5 34 c 128,-1,6
 333 9 333 9 298.5 -1.5 c 128,-1,7
 264 -12 264 -12 218 -12 c 0,8,9
 162 -12 162 -12 124 9.5 c 128,-1,10
 86 31 86 31 67.5 65 c 128,-1,11
 49 99 49 99 49 136 c 0,12,13
 49 179 49 179 65.5 210 c 128,-1,14
 82 241 82 241 113 267.5 c 128,-1,15
 144 294 144 294 187 321 c 0,16,17
 225 346 225 346 248 368 c 128,-1,18
 271 390 271 390 271 422 c 0,19,20
 271 443 271 443 263 458.5 c 128,-1,21
 255 474 255 474 237.5 482 c 128,-1,22
 220 490 220 490 190 490 c 0,23,24
 147 490 147 490 127 471.5 c 128,-1,25
 107 453 107 453 107 422 c 0,26,27
 107 406 107 406 112 391.5 c 128,-1,28
 117 377 117 377 127 363 c 1,29,-1
 57 332 l 1,30,31
 41 357 41 357 33.5 381.5 c 128,-1,32
 26 406 26 406 26 431 c 0,33,34
 26 466 26 466 44 496 c 128,-1,35
 62 526 62 526 98.5 544.5 c 128,-1,36
 135 563 135 563 191 563 c 0,37,38
 253 563 253 563 288 542 c 128,-1,39
 323 521 323 521 337 489 c 128,-1,40
 351 457 351 457 351 423 c 0,41,42
 351 387 351 387 336 358.5 c 128,-1,43
 321 330 321 330 292.5 305 c 128,-1,44
 264 280 264 280 224 254 c 0,45,46
 178 224 178 224 154.5 201 c 128,-1,47
 131 178 131 178 131 141 c 0,48,49
 131 102 131 102 157 84.5 c 128,-1,50
 183 67 183 67 223 67 c 0,51,52
 290 67 290 67 322 102 c 128,-1,53
 354 137 354 137 358 195 c 1,54,-1
 434 195 l 1,55,56
 439 128 439 128 475.5 97.5 c 128,-1,57
 512 67 512 67 561 67 c 0,58,59
 617 67 617 67 640 93.5 c 128,-1,60
 663 120 663 120 663 155 c 0,61,62
 663 184 663 184 651.5 209.5 c 128,-1,63
 640 235 640 235 620 257 c 1,64,-1
 691 303 l 1,65,66
 715 273 715 273 730 234 c 128,-1,67
 745 195 745 195 745 151 c 0,68,69
 745 104 745 104 725.5 67 c 128,-1,70
 706 30 706 30 665.5 9 c 128,-1,71
 625 -12 625 -12 561 -12 c 0,0,1
517 311 m 0,72,73
 459 311 459 311 416 330 c 128,-1,74
 373 349 373 349 343.5 378 c 128,-1,75
 314 407 314 407 296 438 c 2,76,-1
 278 469 l 1,77,-1
 316 511 l 1,78,79
 368 438 368 438 417 411.5 c 128,-1,80
 466 385 466 385 510 385 c 256,81,82
 554 385 554 385 579.5 404 c 128,-1,83
 605 423 605 423 605 464 c 0,84,85
 605 486 605 486 599.5 507 c 128,-1,86
 594 528 594 528 587 540 c 1,87,-1
 665 563 l 1,88,89
 674 547 674 547 680.5 520 c 128,-1,90
 687 493 687 493 687 468 c 0,91,92
 687 419 687 419 667 383.5 c 128,-1,93
 647 348 647 348 609.5 329.5 c 128,-1,94
 572 311 572 311 517 311 c 0,72,73
EndSplineSet
EndChar

StartChar: ordfeminine
Encoding: 170 170 149
Width: 792
Flags: W
AnchorPoint: "Anchor-0" 410 -24 basechar 0
LayerCount: 2
Fore
SplineSet
226 -12 m 0,0,1
 170 -12 170 -12 125.5 10 c 128,-1,2
 81 32 81 32 56 72 c 128,-1,3
 31 112 31 112 31 167 c 0,4,5
 31 211 31 211 49 246.5 c 128,-1,6
 67 282 67 282 101 303 c 128,-1,7
 135 324 135 324 183 324 c 0,8,9
 236 324 236 324 268 299 c 128,-1,10
 300 274 300 274 300 231 c 0,11,12
 300 215 300 215 297 199 c 128,-1,13
 294 183 294 183 287 172 c 1,14,-1
 219 178 l 1,15,16
 221 186 221 186 223 194.5 c 128,-1,17
 225 203 225 203 225 210 c 0,18,19
 225 232 225 232 213 243 c 128,-1,20
 201 254 201 254 180 254 c 0,21,22
 149 254 149 254 128.5 232.5 c 128,-1,23
 108 211 108 211 108 170 c 0,24,25
 108 125 108 125 139 96 c 128,-1,26
 170 67 170 67 234 67 c 0,27,28
 303 67 303 67 335 102 c 128,-1,29
 367 137 367 137 372 195 c 1,30,-1
 448 195 l 1,31,32
 453 128 453 128 487.5 97.5 c 128,-1,33
 522 67 522 67 570 67 c 0,34,35
 606 67 606 67 628 83 c 128,-1,36
 650 99 650 99 660 127.5 c 128,-1,37
 670 156 670 156 670 191 c 0,38,39
 670 237 670 237 652 284.5 c 128,-1,40
 634 332 634 332 586 387 c 1,41,-1
 657 435 l 1,42,43
 703 384 703 384 727.5 326.5 c 128,-1,44
 752 269 752 269 752 198 c 0,45,46
 752 126 752 126 727.5 79.5 c 128,-1,47
 703 33 703 33 663 10.5 c 128,-1,48
 623 -12 623 -12 577 -12 c 0,49,50
 526 -12 526 -12 494 1 c 128,-1,51
 462 14 462 14 440 39.5 c 128,-1,52
 418 65 418 65 396 101 c 1,53,-1
 427 105 l 1,54,55
 401 57 401 57 371.5 32 c 128,-1,56
 342 7 342 7 306.5 -2.5 c 128,-1,57
 271 -12 271 -12 226 -12 c 0,0,1
364 -144 m 1,58,-1
 372 15 l 1,59,-1
 449 15 l 1,60,-1
 457 -144 l 1,61,-1
 364 -144 l 1,58,-1
401 297 m 0,62,63
 377 297 377 297 360.5 314 c 128,-1,64
 344 331 344 331 344 355 c 0,65,66
 344 381 344 381 360.5 398 c 128,-1,67
 377 415 377 415 401 415 c 0,68,69
 426 415 426 415 443 398 c 128,-1,70
 460 381 460 381 460 355 c 0,71,72
 460 331 460 331 443 314 c 128,-1,73
 426 297 426 297 401 297 c 0,62,63
31 474 m 1,74,-1
 31 551 l 1,75,-1
 541 551 l 2,76,77
 595 551 595 551 617 556 c 128,-1,78
 639 561 639 561 649 569 c 0,79,80
 663 579 663 579 667 591.5 c 128,-1,81
 671 604 671 604 671 618 c 0,82,83
 671 651 671 651 655 682.5 c 128,-1,84
 639 714 639 714 606 747 c 1,85,-1
 671 790 l 1,86,87
 718 738 718 738 735 696.5 c 128,-1,88
 752 655 752 655 752 612 c 0,89,90
 752 593 752 593 744.5 565.5 c 128,-1,91
 737 538 737 538 711 516 c 0,92,93
 686 494 686 494 651.5 484 c 128,-1,94
 617 474 617 474 559 474 c 2,95,-1
 31 474 l 1,74,-1
EndSplineSet
EndChar

StartChar: ordmasculine
Encoding: 186 186 150
Width: 615
Flags: W
LayerCount: 2
Fore
SplineSet
340 546 m 0,0,1
 439 546 439 546 499.5 477 c 128,-1,2
 560 408 560 408 560 269 c 0,3,4
 560 178 560 178 532.5 115.5 c 128,-1,5
 505 53 505 53 455.5 21.5 c 128,-1,6
 406 -10 406 -10 339 -10 c 0,7,8
 298 -10 298 -10 266 1 c 128,-1,9
 234 12 234 12 211.5 29.5 c 128,-1,10
 189 47 189 47 173 68 c 1,11,-1
 167 68 l 1,12,13
 169 51 169 51 171 25 c 128,-1,14
 173 -1 173 -1 173 -20 c 2,15,-1
 173 -240 l 1,16,-1
 85 -240 l 1,17,-1
 85 536 l 1,18,-1
 157 536 l 1,19,-1
 169 463 l 1,20,-1
 173 463 l 1,21,22
 189 486 189 486 211.5 505 c 128,-1,23
 234 524 234 524 265.5 535 c 128,-1,24
 297 546 297 546 340 546 c 0,0,1
324 472 m 0,25,26
 270 472 270 472 237 451.5 c 128,-1,27
 204 431 204 431 189 390 c 128,-1,28
 174 349 174 349 173 286 c 2,29,-1
 173 269 l 2,30,31
 173 203 173 203 187 157 c 128,-1,32
 201 111 201 111 234.5 87 c 128,-1,33
 268 63 268 63 326 63 c 0,34,35
 375 63 375 63 406.5 90 c 128,-1,36
 438 117 438 117 453.5 163.5 c 128,-1,37
 469 210 469 210 469 270 c 0,38,39
 469 362 469 362 433.5 417 c 128,-1,40
 398 472 398 472 324 472 c 0,25,26
EndSplineSet
EndChar

StartChar: questiondown
Encoding: 191 191 151
Width: 413
Flags: W
LayerCount: 2
Fore
SplineSet
335 546 m 0,0,1
 350 546 350 546 367.5 544.5 c 128,-1,2
 385 543 385 543 398 540 c 1,3,-1
 387 459 l 1,4,5
 374 462 374 462 358.5 464 c 128,-1,6
 343 466 343 466 329 466 c 0,7,8
 298 466 298 466 270 453 c 128,-1,9
 242 440 242 440 220 416.5 c 128,-1,10
 198 393 198 393 185.5 360 c 128,-1,11
 173 327 173 327 173 286 c 2,12,-1
 173 0 l 1,13,-1
 85 0 l 1,14,-1
 85 536 l 1,15,-1
 157 536 l 1,16,-1
 167 438 l 1,17,-1
 171 438 l 1,18,19
 188 468 188 468 212 492.5 c 128,-1,20
 236 517 236 517 267 531.5 c 128,-1,21
 298 546 298 546 335 546 c 0,0,1
EndSplineSet
EndChar

StartChar: periodcentered
Encoding: 183 183 152
Width: 556
Flags: W
LayerCount: 2
Fore
SplineSet
323 0 m 1,0,-1
 233 0 l 1,1,-1
 233 635 l 1,2,-1
 10 635 l 1,3,-1
 10 714 l 1,4,-1
 545 714 l 1,5,-1
 545 635 l 1,6,-1
 323 635 l 1,7,-1
 323 0 l 1,0,-1
EndSplineSet
EndChar

StartChar: at
Encoding: 64 64 153
Width: 899
Flags: W
LayerCount: 2
Fore
SplineSet
841 357 m 0,0,1
 841 311 841 311 830.5 267 c 128,-1,2
 820 223 820 223 798 187.5 c 128,-1,3
 776 152 776 152 744 130.5 c 128,-1,4
 712 109 712 109 668 109 c 0,5,6
 622 109 622 109 595.5 135.5 c 128,-1,7
 569 162 569 162 563 196 c 1,8,-1
 558 196 l 1,9,10
 540 159 540 159 505 134 c 128,-1,11
 470 109 470 109 417 109 c 0,12,13
 341 109 341 109 299.5 160 c 128,-1,14
 258 211 258 211 258 295 c 0,15,16
 258 361 258 361 284 411.5 c 128,-1,17
 310 462 310 462 357.5 491 c 128,-1,18
 405 520 405 520 470 520 c 0,19,20
 514 520 514 520 556.5 512.5 c 128,-1,21
 599 505 599 505 623 496 c 1,22,-1
 613 293 l 2,23,24
 612 275 612 275 612 267.5 c 128,-1,25
 612 260 612 260 612 257 c 0,26,27
 612 205 612 205 630.5 188 c 128,-1,28
 649 171 649 171 674 171 c 0,29,30
 705 171 705 171 726.5 196.5 c 128,-1,31
 748 222 748 222 759.5 264.5 c 128,-1,32
 771 307 771 307 771 358 c 0,33,34
 771 451 771 451 733.5 515.5 c 128,-1,35
 696 580 696 580 630.5 614 c 128,-1,36
 565 648 565 648 482 648 c 0,37,38
 397 648 397 648 331 621 c 128,-1,39
 265 594 265 594 220.5 545 c 128,-1,40
 176 496 176 496 153 429.5 c 128,-1,41
 130 363 130 363 130 283 c 0,42,43
 130 185 130 185 165 116.5 c 128,-1,44
 200 48 200 48 267.5 12.5 c 128,-1,45
 335 -23 335 -23 433 -23 c 0,46,47
 494 -23 494 -23 549.5 -9.5 c 128,-1,48
 605 4 605 4 648 20 c 1,49,-1
 648 -48 l 1,50,51
 605 -66 605 -66 551.5 -77.5 c 128,-1,52
 498 -89 498 -89 433 -89 c 0,53,54
 315 -89 315 -89 231 -45 c 128,-1,55
 147 -1 147 -1 102.5 81.5 c 128,-1,56
 58 164 58 164 58 280 c 0,57,58
 58 373 58 373 87 452.5 c 128,-1,59
 116 532 116 532 171 590.5 c 128,-1,60
 226 649 226 649 304.5 681.5 c 128,-1,61
 383 714 383 714 482 714 c 0,62,63
 560 714 560 714 625.5 689.5 c 128,-1,64
 691 665 691 665 739.5 618.5 c 128,-1,65
 788 572 788 572 814.5 506 c 128,-1,66
 841 440 841 440 841 357 c 0,0,1
336 293 m 0,67,68
 336 229 336 229 361.5 200 c 128,-1,69
 387 171 387 171 430 171 c 0,70,71
 486 171 486 171 510.5 213 c 128,-1,72
 535 255 535 255 539 322 c 2,73,-1
 545 447 l 1,74,75
 532 451 532 451 512 454 c 128,-1,76
 492 457 492 457 471 457 c 0,77,78
 422 457 422 457 392 433 c 128,-1,79
 362 409 362 409 349 371.5 c 128,-1,80
 336 334 336 334 336 293 c 0,67,68
EndSplineSet
EndChar

StartChar: ampersand
Encoding: 38 38 154
Width: 732
Flags: W
LayerCount: 2
Fore
SplineSet
304 725 m 0,0,1
 358 725 358 725 396.5 706.5 c 128,-1,2
 435 688 435 688 456 654 c 128,-1,3
 477 620 477 620 477 571 c 0,4,5
 477 508 477 508 436.5 464 c 128,-1,6
 396 420 396 420 334 384 c 1,7,-1
 527 198 l 1,8,9
 553 229 553 229 569.5 269.5 c 128,-1,10
 586 310 586 310 597 357 c 1,11,-1
 686 357 l 1,12,13
 670 293 670 293 646 238 c 128,-1,14
 622 183 622 183 584 142 c 1,15,-1
 730 0 l 1,16,-1
 611 0 l 1,17,-1
 524 84 l 1,18,19
 493 56 493 56 457 35 c 128,-1,20
 421 14 421 14 377.5 2 c 128,-1,21
 334 -10 334 -10 278 -10 c 0,22,23
 209 -10 209 -10 158.5 12.5 c 128,-1,24
 108 35 108 35 80.5 79 c 128,-1,25
 53 123 53 123 53 186 c 0,26,27
 53 237 53 237 71.5 274 c 128,-1,28
 90 311 90 311 125 340 c 128,-1,29
 160 369 160 369 207 396 c 1,30,31
 186 420 186 420 166 446 c 128,-1,32
 146 472 146 472 133 502.5 c 128,-1,33
 120 533 120 533 120 569 c 0,34,35
 120 618 120 618 142 653 c 128,-1,36
 164 688 164 688 205.5 706.5 c 128,-1,37
 247 725 247 725 304 725 c 0,0,1
260 341 m 1,38,39
 224 320 224 320 198.5 298.5 c 128,-1,40
 173 277 173 277 159 251 c 128,-1,41
 145 225 145 225 145 189 c 0,42,43
 145 134 145 134 182 101 c 128,-1,44
 219 68 219 68 281 68 c 0,45,46
 345 68 345 68 391 89 c 128,-1,47
 437 110 437 110 468 139 c 1,48,-1
 260 341 l 1,38,39
301 653 m 0,49,50
 259 653 259 653 232.5 631 c 128,-1,51
 206 609 206 609 206 570 c 0,52,53
 206 534 206 534 225 503.5 c 128,-1,54
 244 473 244 473 280 436 c 1,55,56
 339 470 339 470 364.5 500.5 c 128,-1,57
 390 531 390 531 390 571 c 0,58,59
 390 607 390 607 366 630 c 128,-1,60
 342 653 342 653 301 653 c 0,49,50
EndSplineSet
EndChar

StartChar: paragraph
Encoding: 182 182 155
Width: 615
Flags: W
LayerCount: 2
Fore
SplineSet
275 -10 m 0,0,1
 175 -10 175 -10 115 59.5 c 128,-1,2
 55 129 55 129 55 267 c 256,3,4
 55 405 55 405 115.5 475.5 c 128,-1,5
 176 546 176 546 276 546 c 0,6,7
 318 546 318 546 349 535.5 c 128,-1,8
 380 525 380 525 403 507 c 128,-1,9
 426 489 426 489 442 467 c 1,10,-1
 448 467 l 1,11,12
 447 480 447 480 444.5 505.5 c 128,-1,13
 442 531 442 531 442 546 c 2,14,-1
 442 760 l 1,15,-1
 530 760 l 1,16,-1
 530 0 l 1,17,-1
 459 0 l 1,18,-1
 446 72 l 1,19,-1
 442 72 l 1,20,21
 426 49 426 49 403 30.5 c 128,-1,22
 380 12 380 12 348.5 1 c 128,-1,23
 317 -10 317 -10 275 -10 c 0,0,1
289 63 m 0,24,25
 374 63 374 63 408.5 109.5 c 128,-1,26
 443 156 443 156 443 250 c 2,27,-1
 443 266 l 2,28,29
 443 366 443 366 410 419.5 c 128,-1,30
 377 473 377 473 288 473 c 0,31,32
 217 473 217 473 181.5 416.5 c 128,-1,33
 146 360 146 360 146 265 c 0,34,35
 146 169 146 169 181.5 116 c 128,-1,36
 217 63 217 63 289 63 c 0,24,25
EndSplineSet
EndChar

StartChar: section
Encoding: 167 167 156
Width: 765
Flags: W
AnchorPoint: "Anchor-0" 382 -24 basechar 0
LayerCount: 2
Fore
SplineSet
216 -12 m 0,0,1
 138 -12 138 -12 90 46 c 128,-1,2
 42 104 42 104 42 220 c 0,3,4
 42 282 42 282 59.5 334 c 128,-1,5
 77 386 77 386 112 425.5 c 128,-1,6
 147 465 147 465 197 487 c 1,7,-1
 212 474 l 1,8,-1
 42 474 l 1,9,-1
 42 551 l 1,10,-1
 512 551 l 2,11,12
 565 551 565 551 587.5 556 c 128,-1,13
 610 561 610 561 620 569 c 0,14,15
 634 579 634 579 638 591.5 c 128,-1,16
 642 604 642 604 642 618 c 0,17,18
 642 651 642 651 626 682.5 c 128,-1,19
 610 714 610 714 577 747 c 1,20,-1
 642 790 l 1,21,22
 689 738 689 738 706 696.5 c 128,-1,23
 723 655 723 655 723 612 c 0,24,25
 723 593 723 593 715 565.5 c 128,-1,26
 707 538 707 538 682 516 c 0,27,28
 672 507 672 507 657.5 499 c 128,-1,29
 643 491 643 491 625 485.5 c 128,-1,30
 607 480 607 480 583 477 c 1,31,-1
 584 483 l 1,32,33
 627 460 627 460 658 421 c 128,-1,34
 689 382 689 382 706 331 c 128,-1,35
 723 280 723 280 723 220 c 0,36,37
 723 104 723 104 674.5 46 c 128,-1,38
 626 -12 626 -12 545 -12 c 0,39,40
 502 -12 502 -12 470.5 -0.5 c 128,-1,41
 439 11 439 11 414 36.5 c 128,-1,42
 389 62 389 62 366 104 c 1,43,-1
 398 109 l 1,44,45
 375 58 375 58 346.5 32 c 128,-1,46
 318 6 318 6 285 -3 c 128,-1,47
 252 -12 252 -12 216 -12 c 0,0,1
227 67 m 0,48,49
 277 67 277 67 308 102 c 128,-1,50
 339 137 339 137 344 195 c 1,51,-1
 420 195 l 1,52,53
 425 128 425 128 460.5 97.5 c 128,-1,54
 496 67 496 67 537 67 c 0,55,56
 585 67 585 67 613 101 c 128,-1,57
 641 135 641 135 641 217 c 0,58,59
 641 269 641 269 625.5 316 c 128,-1,60
 610 363 610 363 579 399 c 128,-1,61
 548 435 548 435 501.5 455.5 c 128,-1,62
 455 476 455 476 393 476 c 2,63,-1
 376 476 l 2,64,65
 314 476 314 476 267 457 c 128,-1,66
 220 438 220 438 188 403 c 128,-1,67
 156 368 156 368 140 321.5 c 128,-1,68
 124 275 124 275 124 219 c 0,69,70
 124 137 124 137 151 102 c 128,-1,71
 178 67 178 67 227 67 c 0,48,49
EndSplineSet
EndChar

StartChar: registered
Encoding: 174 174 157
Width: 651
Flags: W
AnchorPoint: "Anchor-0" 326 -24 basechar 0
LayerCount: 2
Fore
SplineSet
326 -12 m 0,0,1
 245 -12 245 -12 180.5 19 c 128,-1,2
 116 50 116 50 79 109.5 c 128,-1,3
 42 169 42 169 42 255 c 0,4,5
 42 312 42 312 57.5 356 c 128,-1,6
 73 400 73 400 101 433 c 128,-1,7
 129 466 129 466 168 488 c 1,8,-1
 186 474 l 1,9,-1
 42 474 l 1,10,-1
 42 551 l 1,11,-1
 398 551 l 2,12,13
 452 551 452 551 474 556 c 128,-1,14
 496 561 496 561 507 569 c 0,15,16
 520 579 520 579 524.5 591.5 c 128,-1,17
 529 604 529 604 529 618 c 0,18,19
 529 651 529 651 513 682.5 c 128,-1,20
 497 714 497 714 464 747 c 1,21,-1
 529 790 l 1,22,23
 576 738 576 738 593 696.5 c 128,-1,24
 610 655 610 655 610 612 c 0,25,26
 610 593 610 593 602 565.5 c 128,-1,27
 594 538 594 538 569 516 c 0,28,29
 556 504 556 504 538 494.5 c 128,-1,30
 520 485 520 485 496 480 c 1,31,-1
 491 488 l 1,32,33
 529 464 529 464 555.5 431.5 c 128,-1,34
 582 399 582 399 596 356 c 128,-1,35
 610 313 610 313 610 255 c 0,36,37
 610 177 610 177 576 117 c 128,-1,38
 542 57 542 57 478.5 22.5 c 128,-1,39
 415 -12 415 -12 326 -12 c 0,0,1
327 69 m 0,40,41
 395 69 395 69 439.5 96 c 128,-1,42
 484 123 484 123 506 169.5 c 128,-1,43
 528 216 528 216 528 272 c 0,44,45
 528 337 528 337 501.5 382.5 c 128,-1,46
 475 428 475 428 430 452 c 128,-1,47
 385 476 385 476 328 476 c 0,48,49
 266 476 266 476 220 450.5 c 128,-1,50
 174 425 174 425 149 379.5 c 128,-1,51
 124 334 124 334 124 272 c 0,52,53
 124 175 124 175 179.5 122 c 128,-1,54
 235 69 235 69 327 69 c 0,40,41
EndSplineSet
EndChar

StartChar: degree
Encoding: 176 176 158
Width: 794
Flags: W
AnchorPoint: "Anchor-0" 410 -24 basechar 0
LayerCount: 2
Fore
SplineSet
226 -12 m 0,0,1
 170 -12 170 -12 125.5 10 c 128,-1,2
 81 32 81 32 56 72 c 128,-1,3
 31 112 31 112 31 167 c 0,4,5
 31 211 31 211 49 246.5 c 128,-1,6
 67 282 67 282 101 303 c 128,-1,7
 135 324 135 324 183 324 c 0,8,9
 236 324 236 324 268 299 c 128,-1,10
 300 274 300 274 300 231 c 0,11,12
 300 215 300 215 297 199 c 128,-1,13
 294 183 294 183 287 172 c 1,14,-1
 219 178 l 1,15,16
 221 184 221 184 223 193.5 c 128,-1,17
 225 203 225 203 225 210 c 0,18,19
 225 232 225 232 213 243 c 128,-1,20
 201 254 201 254 180 254 c 0,21,22
 149 254 149 254 128.5 232.5 c 128,-1,23
 108 211 108 211 108 170 c 0,24,25
 108 125 108 125 139 96 c 128,-1,26
 170 67 170 67 234 67 c 0,27,28
 303 67 303 67 335 102 c 128,-1,29
 367 137 367 137 372 195 c 1,30,-1
 448 195 l 1,31,32
 453 128 453 128 487.5 97.5 c 128,-1,33
 522 67 522 67 570 67 c 0,34,35
 626 67 626 67 648 103.5 c 128,-1,36
 670 140 670 140 670 191 c 0,37,38
 670 250 670 250 649.5 299.5 c 128,-1,39
 629 349 629 349 595 387 c 128,-1,40
 561 425 561 425 520 448 c 128,-1,41
 479 471 479 471 438 477 c 1,42,-1
 591 483 l 1,43,44
 642 451 642 451 678 407 c 128,-1,45
 714 363 714 363 733 310.5 c 128,-1,46
 752 258 752 258 752 198 c 0,47,48
 752 126 752 126 727.5 79.5 c 128,-1,49
 703 33 703 33 663 10.5 c 128,-1,50
 623 -12 623 -12 577 -12 c 0,51,52
 526 -12 526 -12 494 1 c 128,-1,53
 462 14 462 14 440 39.5 c 128,-1,54
 418 65 418 65 396 101 c 1,55,-1
 427 105 l 1,56,57
 401 57 401 57 371.5 32 c 128,-1,58
 342 7 342 7 306.5 -2.5 c 128,-1,59
 271 -12 271 -12 226 -12 c 0,0,1
31 474 m 1,60,-1
 31 551 l 1,61,-1
 541 551 l 2,62,63
 595 551 595 551 617 556 c 128,-1,64
 639 561 639 561 649 569 c 0,65,66
 663 579 663 579 667 591.5 c 128,-1,67
 671 604 671 604 671 618 c 0,68,69
 671 651 671 651 655 682.5 c 128,-1,70
 639 714 639 714 606 747 c 1,71,-1
 671 790 l 1,72,73
 718 738 718 738 735 696.5 c 128,-1,74
 752 655 752 655 752 612 c 0,75,76
 752 593 752 593 744.5 565.5 c 128,-1,77
 737 538 737 538 711 516 c 0,78,79
 686 494 686 494 651.5 484 c 128,-1,80
 617 474 617 474 559 474 c 2,81,-1
 31 474 l 1,60,-1
EndSplineSet
EndChar

StartChar: cent
Encoding: 162 162 159
Width: 574
Flags: W
AnchorPoint: "Anchor-0" 287 -24 basechar 0
LayerCount: 2
Fore
SplineSet
283 -12 m 0,0,1
 213 -12 213 -12 162.5 11 c 128,-1,2
 112 34 112 34 85 75.5 c 128,-1,3
 58 117 58 117 58 172 c 0,4,5
 58 204 58 204 68.5 232 c 128,-1,6
 79 260 79 260 100 282.5 c 128,-1,7
 121 305 121 305 152 321 c 1,8,-1
 166 307 l 1,9,-1
 36 306 l 1,10,-1
 36 375 l 1,11,-1
 244 375 l 1,12,13
 255 383 255 383 262.5 395.5 c 128,-1,14
 270 408 270 408 270 424 c 0,15,16
 270 438 270 438 265.5 451 c 128,-1,17
 261 464 261 464 253 475 c 1,18,-1
 298 487 l 1,19,-1
 333 475 l 1,20,21
 341 462 341 462 345 448 c 128,-1,22
 349 434 349 434 349 423 c 0,23,24
 349 407 349 407 345.5 395.5 c 128,-1,25
 342 384 342 384 336 375 c 1,26,-1
 539 375 l 1,27,-1
 539 306 l 1,28,-1
 405 308 l 1,29,-1
 420 318 l 1,30,31
 449 307 449 307 470.5 286 c 128,-1,32
 492 265 492 265 504 236.5 c 128,-1,33
 516 208 516 208 516 174 c 0,34,35
 516 119 516 119 490 77 c 128,-1,36
 464 35 464 35 412.5 11.5 c 128,-1,37
 361 -12 361 -12 283 -12 c 0,0,1
287 66 m 0,38,39
 367 66 367 66 401.5 100.5 c 128,-1,40
 436 135 436 135 436 184 c 0,41,42
 436 221 436 221 419 248.5 c 128,-1,43
 402 276 402 276 369 291 c 128,-1,44
 336 306 336 306 287 306 c 0,45,46
 237 306 237 306 203.5 290.5 c 128,-1,47
 170 275 170 275 154 247.5 c 128,-1,48
 138 220 138 220 138 184 c 0,49,50
 138 131 138 131 175 98.5 c 128,-1,51
 212 66 212 66 287 66 c 0,38,39
36 474 m 1,52,-1
 36 551 l 1,53,-1
 334 551 l 2,54,55
 388 551 388 551 410 556 c 128,-1,56
 432 561 432 561 442 569 c 0,57,58
 455 579 455 579 459.5 591.5 c 128,-1,59
 464 604 464 604 464 618 c 0,60,61
 464 651 464 651 448 682.5 c 128,-1,62
 432 714 432 714 399 747 c 1,63,-1
 464 790 l 1,64,65
 511 738 511 738 528 696.5 c 128,-1,66
 545 655 545 655 545 612 c 0,67,68
 545 593 545 593 537.5 565.5 c 128,-1,69
 530 538 530 538 504 516 c 0,70,71
 479 494 479 494 444.5 484 c 128,-1,72
 410 474 410 474 352 474 c 2,73,-1
 36 474 l 1,52,-1
EndSplineSet
EndChar

StartChar: dollar
Encoding: 36 36 160
Width: 572
Flags: W
LayerCount: 2
Fore
SplineSet
253 49 m 1,0,1
 198 50 198 50 146 58.5 c 128,-1,2
 94 67 94 67 62 82 c 1,3,-1
 62 167 l 1,4,5
 96 151 96 151 149 139 c 128,-1,6
 202 127 202 127 253 126 c 1,7,-1
 253 328 l 1,8,9
 187 346 187 346 145 369.5 c 128,-1,10
 103 393 103 393 82.5 427 c 128,-1,11
 62 461 62 461 62 508 c 0,12,13
 62 557 62 557 85.5 592 c 128,-1,14
 109 627 109 627 152 647.5 c 128,-1,15
 195 668 195 668 253 671 c 1,16,-1
 253 759 l 1,17,-1
 317 759 l 1,18,-1
 317 672 l 1,19,20
 370 671 370 671 413.5 660.5 c 128,-1,21
 457 650 457 650 493 635 c 1,22,-1
 466 561 l 1,23,24
 434 574 434 574 395.5 583.5 c 128,-1,25
 357 593 357 593 317 596 c 1,26,-1
 317 395 l 1,27,28
 383 376 383 376 427 354.5 c 128,-1,29
 471 333 471 333 493.5 301.5 c 128,-1,30
 516 270 516 270 516 220 c 0,31,32
 516 150 516 150 464 106.5 c 128,-1,33
 412 63 412 63 317 53 c 1,34,-1
 317 -58 l 1,35,-1
 253 -58 l 1,36,-1
 253 49 l 1,0,1
317 131 m 1,37,38
 376 137 376 137 403 158.5 c 128,-1,39
 430 180 430 180 430 214 c 0,40,41
 430 239 430 239 420 255.5 c 128,-1,42
 410 272 410 272 385.5 284 c 128,-1,43
 361 296 361 296 317 307 c 1,44,-1
 317 131 l 1,37,38
253 594 m 1,45,46
 217 592 217 592 194 581.5 c 128,-1,47
 171 571 171 571 159.5 554 c 128,-1,48
 148 537 148 537 148 515 c 0,49,50
 148 489 148 489 157.5 470.5 c 128,-1,51
 167 452 167 452 190 439.5 c 128,-1,52
 213 427 213 427 253 417 c 1,53,-1
 253 594 l 1,45,46
EndSplineSet
EndChar

StartChar: sterling
Encoding: 163 163 161
Width: 775
Flags: W
AnchorPoint: "Anchor-0" 395 -24 basechar 0
LayerCount: 2
Fore
SplineSet
561 -12 m 0,0,1
 500 -12 500 -12 457.5 14.5 c 128,-1,2
 415 41 415 41 380 104 c 1,3,-1
 411 104 l 1,4,5
 388 59 388 59 360.5 34 c 128,-1,6
 333 9 333 9 298.5 -1.5 c 128,-1,7
 264 -12 264 -12 218 -12 c 0,8,9
 162 -12 162 -12 124 9.5 c 128,-1,10
 86 31 86 31 67.5 65 c 128,-1,11
 49 99 49 99 49 136 c 0,12,13
 49 179 49 179 65.5 210 c 128,-1,14
 82 241 82 241 113 267.5 c 128,-1,15
 144 294 144 294 187 321 c 0,16,17
 225 346 225 346 248 368 c 128,-1,18
 271 390 271 390 271 422 c 0,19,20
 271 443 271 443 263 458.5 c 128,-1,21
 255 474 255 474 237.5 482 c 128,-1,22
 220 490 220 490 190 490 c 0,23,24
 147 490 147 490 127 471.5 c 128,-1,25
 107 453 107 453 107 422 c 0,26,27
 107 406 107 406 112 391.5 c 128,-1,28
 117 377 117 377 127 363 c 1,29,-1
 57 332 l 1,30,31
 41 357 41 357 33.5 381.5 c 128,-1,32
 26 406 26 406 26 431 c 0,33,34
 26 466 26 466 44 496 c 128,-1,35
 62 526 62 526 98.5 544.5 c 128,-1,36
 135 563 135 563 191 563 c 0,37,38
 253 563 253 563 288 542 c 128,-1,39
 323 521 323 521 337 489 c 128,-1,40
 351 457 351 457 351 423 c 0,41,42
 351 387 351 387 336 358.5 c 128,-1,43
 321 330 321 330 292.5 305 c 128,-1,44
 264 280 264 280 224 254 c 0,45,46
 178 224 178 224 154.5 201 c 128,-1,47
 131 178 131 178 131 141 c 0,48,49
 131 102 131 102 157 84.5 c 128,-1,50
 183 67 183 67 223 67 c 0,51,52
 290 67 290 67 322 102 c 128,-1,53
 354 137 354 137 358 195 c 1,54,-1
 434 195 l 1,55,56
 439 128 439 128 475.5 97.5 c 128,-1,57
 512 67 512 67 561 67 c 0,58,59
 617 67 617 67 640 93.5 c 128,-1,60
 663 120 663 120 663 155 c 0,61,62
 663 184 663 184 651.5 209.5 c 128,-1,63
 640 235 640 235 620 257 c 1,64,-1
 691 303 l 1,65,66
 715 273 715 273 730 234 c 128,-1,67
 745 195 745 195 745 151 c 0,68,69
 745 104 745 104 725.5 67 c 128,-1,70
 706 30 706 30 665.5 9 c 128,-1,71
 625 -12 625 -12 561 -12 c 0,0,1
517 311 m 0,72,73
 459 311 459 311 416 330 c 128,-1,74
 373 349 373 349 343.5 378 c 128,-1,75
 314 407 314 407 296 438 c 2,76,-1
 278 469 l 1,77,-1
 316 511 l 1,78,79
 368 438 368 438 417 411.5 c 128,-1,80
 466 385 466 385 510 385 c 256,81,82
 554 385 554 385 579.5 404 c 128,-1,83
 605 423 605 423 605 464 c 0,84,85
 605 486 605 486 599.5 507 c 128,-1,86
 594 528 594 528 587 540 c 1,87,-1
 665 563 l 1,88,89
 674 547 674 547 680.5 520 c 128,-1,90
 687 493 687 493 687 468 c 0,91,92
 687 419 687 419 667 383.5 c 128,-1,93
 647 348 647 348 609.5 329.5 c 128,-1,94
 572 311 572 311 517 311 c 0,72,73
EndSplineSet
EndChar

StartChar: yen
Encoding: 165 165 162
Width: 768
Flags: W
AnchorPoint: "Anchor-0" 382 -24 basechar 0
LayerCount: 2
Fore
SplineSet
216 -12 m 0,0,1
 138 -12 138 -12 90 46 c 128,-1,2
 42 104 42 104 42 220 c 0,3,4
 42 282 42 282 59.5 334 c 128,-1,5
 77 386 77 386 112 425.5 c 128,-1,6
 147 465 147 465 197 487 c 1,7,-1
 212 474 l 1,8,-1
 42 474 l 1,9,-1
 42 551 l 1,10,-1
 518 551 l 2,11,12
 571 551 571 551 593.5 556 c 128,-1,13
 616 561 616 561 626 569 c 0,14,15
 640 579 640 579 644 591.5 c 128,-1,16
 648 604 648 604 648 618 c 0,17,18
 648 651 648 651 632 682.5 c 128,-1,19
 616 714 616 714 583 747 c 1,20,-1
 648 790 l 1,21,22
 695 738 695 738 712 696.5 c 128,-1,23
 729 655 729 655 729 612 c 0,24,25
 729 593 729 593 721 565.5 c 128,-1,26
 713 538 713 538 688 516 c 0,27,28
 678 507 678 507 663.5 499 c 128,-1,29
 649 491 649 491 631 485.5 c 128,-1,30
 613 480 613 480 589 477 c 1,31,-1
 592 488 l 1,32,33
 627 474 627 474 649 450 c 128,-1,34
 671 426 671 426 681.5 397 c 128,-1,35
 692 368 692 368 692 337 c 0,36,37
 692 319 692 319 689.5 305 c 128,-1,38
 687 291 687 291 679 275 c 0,39,40
 677 271 677 271 672 268 c 128,-1,41
 667 265 667 265 665 261 c 0,42,43
 648 232 648 232 617 213 c 128,-1,44
 586 194 586 194 542 194 c 0,45,46
 509 194 509 194 481.5 205.5 c 128,-1,47
 454 217 454 217 437 241 c 128,-1,48
 420 265 420 265 420 301 c 0,49,50
 420 353 420 353 454.5 377.5 c 128,-1,51
 489 402 489 402 534 402 c 0,52,53
 568 402 568 402 591.5 393.5 c 128,-1,54
 615 385 615 385 633 372 c 0,55,56
 678 347 678 347 703.5 296.5 c 128,-1,57
 729 246 729 246 729 184 c 0,58,59
 729 125 729 125 705.5 81 c 128,-1,60
 682 37 682 37 642 12.5 c 128,-1,61
 602 -12 602 -12 550 -12 c 0,62,63
 482 -12 482 -12 441.5 14.5 c 128,-1,64
 401 41 401 41 366 104 c 1,65,-1
 398 109 l 1,66,67
 375 58 375 58 346.5 32 c 128,-1,68
 318 6 318 6 285 -3 c 128,-1,69
 252 -12 252 -12 216 -12 c 0,0,1
227 67 m 0,70,71
 277 67 277 67 306 100.5 c 128,-1,72
 335 134 335 134 344 184 c 1,73,-1
 420 184 l 1,74,75
 430 123 430 123 463.5 95 c 128,-1,76
 497 67 497 67 542 67 c 0,77,78
 572 67 572 67 597.5 79 c 128,-1,79
 623 91 623 91 638.5 117 c 128,-1,80
 654 143 654 143 654 185 c 0,81,82
 654 223 654 223 642 258.5 c 128,-1,83
 630 294 630 294 605.5 317.5 c 128,-1,84
 581 341 581 341 543 341 c 0,85,86
 522 341 522 341 508.5 330.5 c 128,-1,87
 495 320 495 320 495 301 c 0,88,89
 495 279 495 279 508 268 c 128,-1,90
 521 257 521 257 547 257 c 0,91,92
 563 257 563 257 580.5 264.5 c 128,-1,93
 598 272 598 272 610 289.5 c 128,-1,94
 622 307 622 307 622 337 c 256,95,96
 622 367 622 367 606.5 392.5 c 128,-1,97
 591 418 591 418 562.5 437 c 128,-1,98
 534 456 534 456 495.5 466 c 128,-1,99
 457 476 457 476 411 476 c 2,100,-1
 376 476 l 2,101,102
 314 476 314 476 267 457 c 128,-1,103
 220 438 220 438 188 403.5 c 128,-1,104
 156 369 156 369 140 322 c 128,-1,105
 124 275 124 275 124 220 c 0,106,107
 124 137 124 137 151 102 c 128,-1,108
 178 67 178 67 227 67 c 0,70,71
EndSplineSet
EndChar

StartChar: grave
Encoding: 96 96 163
Width: 281
Flags: W
LayerCount: 2
Fore
SplineSet
145 766 m 1,0,1
 156 744 156 744 172.5 716.5 c 128,-1,2
 189 689 189 689 207.5 663 c 128,-1,3
 226 637 226 637 241 618 c 1,4,-1
 241 606 l 1,5,-1
 182 606 l 1,6,7
 165 620 165 620 144 639.5 c 128,-1,8
 123 659 123 659 102.5 680.5 c 128,-1,9
 82 702 82 702 65.5 722 c 128,-1,10
 49 742 49 742 40 756 c 1,11,-1
 40 766 l 1,12,-1
 145 766 l 1,0,1
EndSplineSet
EndChar

StartChar: acute
Encoding: 180 180 164
Width: 470
Flags: W
LayerCount: 2
Fore
SplineSet
431 0 m 1,0,-1
 39 0 l 1,1,-1
 39 58 l 1,2,-1
 327 468 l 1,3,-1
 56 468 l 1,4,-1
 56 536 l 1,5,-1
 424 536 l 1,6,-1
 424 470 l 1,7,-1
 140 68 l 1,8,-1
 431 68 l 1,9,-1
 431 0 l 1,0,-1
EndSplineSet
EndChar

StartChar: overscore
Encoding: 175 175 165
Width: 759
Flags: W
AnchorPoint: "Anchor-0" 379 -24 basechar 0
LayerCount: 2
Fore
SplineSet
375 -12 m 0,0,1
 267 -12 267 -12 191.5 29 c 128,-1,2
 116 70 116 70 76.5 142.5 c 128,-1,3
 37 215 37 215 37 308 c 0,4,5
 37 387 37 387 62.5 444 c 128,-1,6
 88 501 88 501 134.5 532 c 128,-1,7
 181 563 181 563 242 563 c 0,8,9
 287 563 287 563 319 547 c 128,-1,10
 351 531 351 531 368 501 c 128,-1,11
 385 471 385 471 385 429 c 0,12,13
 385 386 385 386 365.5 352 c 128,-1,14
 346 318 346 318 307.5 298 c 128,-1,15
 269 278 269 278 212 278 c 0,16,17
 190 278 190 278 171 282 c 128,-1,18
 152 286 152 286 136.5 293.5 c 128,-1,19
 121 301 121 301 108 309 c 1,20,-1
 118 380 l 1,21,22
 128 373 128 373 141.5 365.5 c 128,-1,23
 155 358 155 358 171 353 c 128,-1,24
 187 348 187 348 206 348 c 0,25,26
 259 348 259 348 283 370.5 c 128,-1,27
 307 393 307 393 307 427 c 0,28,29
 307 459 307 459 289 476 c 128,-1,30
 271 493 271 493 242 493 c 0,31,32
 209 493 209 493 180 475 c 128,-1,33
 151 457 151 457 133 416 c 128,-1,34
 115 375 115 375 115 306 c 0,35,36
 115 241 115 241 145 187 c 128,-1,37
 175 133 175 133 233.5 101 c 128,-1,38
 292 69 292 69 378 69 c 0,39,40
 462 69 462 69 520.5 94 c 128,-1,41
 579 119 579 119 609.5 166.5 c 128,-1,42
 640 214 640 214 640 281 c 0,43,44
 640 352 640 352 600 403.5 c 128,-1,45
 560 455 560 455 492 491 c 1,46,-1
 538 565 l 1,47,48
 625 518 625 518 673.5 448 c 128,-1,49
 722 378 722 378 722 281 c 0,50,51
 722 201 722 201 686.5 134.5 c 128,-1,52
 651 68 651 68 574.5 28 c 128,-1,53
 498 -12 498 -12 375 -12 c 0,0,1
EndSplineSet
EndChar

StartChar: cedilla
Encoding: 184 184 166
Width: 730
Flags: W
LayerCount: 2
Fore
SplineSet
669 364 m 0,0,1
 669 244 669 244 624.5 163 c 128,-1,2
 580 82 580 82 497 41 c 128,-1,3
 414 0 414 0 296 0 c 2,4,-1
 97 0 l 1,5,-1
 97 714 l 1,6,-1
 317 714 l 2,7,8
 425 714 425 714 504 674 c 128,-1,9
 583 634 583 634 626 556.5 c 128,-1,10
 669 479 669 479 669 364 c 0,0,1
574 361 m 0,11,12
 574 456 574 456 542.5 517 c 128,-1,13
 511 578 511 578 450.5 607.5 c 128,-1,14
 390 637 390 637 304 637 c 2,15,-1
 187 637 l 1,16,-1
 187 77 l 1,17,-1
 284 77 l 2,18,19
 429 77 429 77 501.5 148.5 c 128,-1,20
 574 220 574 220 574 361 c 0,11,12
EndSplineSet
EndChar

StartChar: currency
Encoding: 164 164 167
Width: 632
Flags: W
AnchorPoint: "Anchor-0" 432 -24 basechar 0
LayerCount: 2
Fore
SplineSet
243 -12 m 0,0,1
 198 -12 198 -12 161 2.5 c 128,-1,2
 124 17 124 17 96.5 46 c 128,-1,3
 69 75 69 75 54.5 117.5 c 128,-1,4
 40 160 40 160 40 216 c 0,5,6
 40 288 40 288 65 344 c 128,-1,7
 90 400 90 400 135.5 432 c 128,-1,8
 181 464 181 464 243 464 c 0,9,10
 284 464 284 464 314.5 449 c 128,-1,11
 345 434 345 434 362 407 c 128,-1,12
 379 380 379 380 379 342 c 0,13,14
 379 303 379 303 360.5 273 c 128,-1,15
 342 243 342 243 305.5 226 c 128,-1,16
 269 209 269 209 215 209 c 0,17,18
 163 209 163 209 128 230 c 128,-1,19
 93 251 93 251 74 274 c 1,20,-1
 94 340 l 1,21,22
 107 322 107 322 135 300.5 c 128,-1,23
 163 279 163 279 208 279 c 0,24,25
 257 279 257 279 279 295 c 128,-1,26
 301 311 301 311 301 338 c 256,27,28
 301 365 301 365 284 379.5 c 128,-1,29
 267 394 267 394 241 394 c 0,30,31
 199 394 199 394 172 369 c 128,-1,32
 145 344 145 344 132.5 303 c 128,-1,33
 120 262 120 262 120 215 c 2,34,-1
 120 205 l 2,35,36
 120 165 120 165 130.5 138.5 c 128,-1,37
 141 112 141 112 159 96.5 c 128,-1,38
 177 81 177 81 201.5 74 c 128,-1,39
 226 67 226 67 253 67 c 0,40,41
 320 67 320 67 352.5 103.5 c 128,-1,42
 385 140 385 140 394 195 c 1,43,-1
 471 195 l 1,44,45
 477 128 477 128 513 97.5 c 128,-1,46
 549 67 549 67 597 67 c 0,47,48
 652 67 652 67 675.5 95 c 128,-1,49
 699 123 699 123 699 162 c 256,50,51
 699 201 699 201 680.5 231 c 128,-1,52
 662 261 662 261 632 280.5 c 128,-1,53
 602 300 602 300 566 307 c 1,54,-1
 634 352 l 1,55,56
 684 332 684 332 716.5 303 c 128,-1,57
 749 274 749 274 765 237 c 128,-1,58
 781 200 781 200 781 156 c 0,59,60
 781 83 781 83 737.5 35.5 c 128,-1,61
 694 -12 694 -12 602 -12 c 0,62,63
 559 -12 559 -12 526 0 c 128,-1,64
 493 12 493 12 466.5 37.5 c 128,-1,65
 440 63 440 63 417 102 c 1,66,-1
 450 103 l 1,67,68
 420 60 420 60 390.5 34.5 c 128,-1,69
 361 9 361 9 325.5 -1.5 c 128,-1,70
 290 -12 290 -12 243 -12 c 0,0,1
189 412 m 1,71,72
 135 429 135 429 110 465 c 128,-1,73
 85 501 85 501 85 536 c 0,74,75
 85 567 85 567 100.5 592.5 c 128,-1,76
 116 618 116 618 152 634.5 c 128,-1,77
 188 651 188 651 248 653 c 1,78,-1
 256 575 l 1,79,80
 207 574 207 574 185.5 561.5 c 128,-1,81
 164 549 164 549 164 525 c 0,82,83
 164 502 164 502 184.5 485 c 128,-1,84
 205 468 205 468 246 458 c 1,85,-1
 189 412 l 1,71,72
498 306 m 1,86,-1
 498 381 l 1,87,-1
 555 381 l 2,88,89
 598 381 598 381 622 387 c 128,-1,90
 646 393 646 393 659 406 c 0,91,92
 670 417 670 417 675 430.5 c 128,-1,93
 680 444 680 444 680 460 c 0,94,95
 680 493 680 493 658.5 520 c 128,-1,96
 637 547 637 547 570 560 c 1,97,-1
 598 636 l 1,98,99
 681 618 681 618 721.5 573 c 128,-1,100
 762 528 762 528 762 469 c 0,101,102
 762 425 762 425 737 383 c 128,-1,103
 712 341 712 341 653 320 c 0,104,105
 640 316 640 316 630 312.5 c 128,-1,106
 620 309 620 309 608.5 307.5 c 128,-1,107
 597 306 597 306 577 306 c 2,108,-1
 498 306 l 1,86,-1
EndSplineSet
EndChar

StartChar: brokenbar
Encoding: 166 166 168
Width: 622
Flags: W
AnchorPoint: "Anchor-0" 316 -24 basechar 0
LayerCount: 2
Fore
SplineSet
308 -12 m 0,0,1
 239 -12 239 -12 187 4 c 128,-1,2
 135 20 135 20 101 49.5 c 128,-1,3
 67 79 67 79 50 117.5 c 128,-1,4
 33 156 33 156 33 201 c 0,5,6
 33 215 33 215 34.5 230.5 c 128,-1,7
 36 246 36 246 39 259 c 1,8,-1
 118 248 l 1,9,10
 116 238 116 238 115 229 c 128,-1,11
 114 220 114 220 114 209 c 0,12,13
 114 183 114 183 122.5 158 c 128,-1,14
 131 133 131 133 152.5 112.5 c 128,-1,15
 174 92 174 92 211.5 79.5 c 128,-1,16
 249 67 249 67 307 67 c 0,17,18
 370 67 370 67 410.5 80 c 128,-1,19
 451 93 451 93 473 114 c 128,-1,20
 495 135 495 135 503.5 159 c 128,-1,21
 512 183 512 183 512 205 c 0,22,23
 512 228 512 228 506.5 249 c 128,-1,24
 501 270 501 270 487 287 c 0,25,26
 483 291 483 291 479 293.5 c 128,-1,27
 475 296 475 296 471 300 c 0,28,29
 452 316 452 316 425.5 325.5 c 128,-1,30
 399 335 399 335 362 335 c 0,31,32
 320 335 320 335 302 324.5 c 128,-1,33
 284 314 284 314 284 294 c 0,34,35
 284 275 284 275 300.5 264.5 c 128,-1,36
 317 254 317 254 349 254 c 0,37,38
 383 254 383 254 405.5 267.5 c 128,-1,39
 428 281 428 281 439.5 305 c 128,-1,40
 451 329 451 329 451 360 c 0,41,42
 451 399 451 399 431.5 425.5 c 128,-1,43
 412 452 412 452 385.5 467 c 128,-1,44
 359 482 359 482 338 486 c 1,45,-1
 457 492 l 1,46,47
 489 471 489 471 507 436.5 c 128,-1,48
 525 402 525 402 525 355 c 0,49,50
 525 347 525 347 524.5 340 c 128,-1,51
 524 333 524 333 523 328 c 2,52,-1
 517 300 l 2,53,54
 505 258 505 258 477.5 232 c 128,-1,55
 450 206 450 206 414.5 193.5 c 128,-1,56
 379 181 379 181 342 181 c 0,57,58
 278 181 278 181 241 209.5 c 128,-1,59
 204 238 204 238 204 293 c 0,60,61
 204 324 204 324 219 348.5 c 128,-1,62
 234 373 234 373 266.5 387.5 c 128,-1,63
 299 402 299 402 351 402 c 0,64,65
 388 402 388 402 419.5 395 c 128,-1,66
 451 388 451 388 476 375 c 0,67,68
 479 374 479 374 482 372.5 c 128,-1,69
 485 371 485 371 488 369.5 c 128,-1,70
 491 368 491 368 494 366 c 0,71,72
 540 339 540 339 562 296.5 c 128,-1,73
 584 254 584 254 584 207 c 0,74,75
 584 156 584 156 567.5 115.5 c 128,-1,76
 551 75 551 75 517 46.5 c 128,-1,77
 483 18 483 18 431 3 c 128,-1,78
 379 -12 379 -12 308 -12 c 0,0,1
39 474 m 1,79,-1
 39 551 l 1,80,-1
 373 551 l 2,81,82
 427 551 427 551 449 556 c 128,-1,83
 471 561 471 561 481 569 c 0,84,85
 495 579 495 579 499 591.5 c 128,-1,86
 503 604 503 604 503 618 c 0,87,88
 503 651 503 651 487 682.5 c 128,-1,89
 471 714 471 714 438 747 c 1,90,-1
 503 790 l 1,91,92
 550 738 550 738 567 696.5 c 128,-1,93
 584 655 584 655 584 612 c 0,94,95
 584 593 584 593 576.5 565.5 c 128,-1,96
 569 538 569 538 543 516 c 0,97,98
 518 494 518 494 483.5 484 c 128,-1,99
 449 474 449 474 391 474 c 2,100,-1
 39 474 l 1,79,-1
EndSplineSet
EndChar

StartChar: logicalnot
Encoding: 172 172 169
Width: 1156
Flags: W
AnchorPoint: "Anchor-0" 578 -24 basechar 0
LayerCount: 2
Fore
SplineSet
226 -12 m 0,0,1
 170 -12 170 -12 125.5 10 c 128,-1,2
 81 32 81 32 56 72 c 128,-1,3
 31 112 31 112 31 167 c 0,4,5
 31 211 31 211 49 246.5 c 128,-1,6
 67 282 67 282 101 303 c 128,-1,7
 135 324 135 324 183 324 c 0,8,9
 236 324 236 324 268 299 c 128,-1,10
 300 274 300 274 300 231 c 0,11,12
 300 215 300 215 297 199 c 128,-1,13
 294 183 294 183 287 172 c 1,14,-1
 219 178 l 1,15,16
 221 184 221 184 223 193.5 c 128,-1,17
 225 203 225 203 225 210 c 0,18,19
 225 232 225 232 213 243 c 128,-1,20
 201 254 201 254 180 254 c 0,21,22
 149 254 149 254 128 232.5 c 128,-1,23
 107 211 107 211 107 170 c 0,24,25
 107 125 107 125 138.5 96 c 128,-1,26
 170 67 170 67 234 67 c 0,27,28
 303 67 303 67 335 102 c 128,-1,29
 367 137 367 137 372 195 c 1,30,-1
 448 195 l 1,31,32
 453 128 453 128 487.5 97.5 c 128,-1,33
 522 67 522 67 570 67 c 0,34,35
 626 67 626 67 648 103.5 c 128,-1,36
 670 140 670 140 670 191 c 0,37,38
 670 250 670 250 649.5 299.5 c 128,-1,39
 629 349 629 349 595 387 c 128,-1,40
 561 425 561 425 520 448 c 128,-1,41
 479 471 479 471 438 477 c 1,42,-1
 591 483 l 1,43,44
 642 451 642 451 678 407 c 128,-1,45
 714 363 714 363 733 310.5 c 128,-1,46
 752 258 752 258 752 198 c 0,47,48
 752 126 752 126 727.5 79.5 c 128,-1,49
 703 33 703 33 663 10.5 c 128,-1,50
 623 -12 623 -12 577 -12 c 0,51,52
 526 -12 526 -12 494 1 c 128,-1,53
 462 14 462 14 440 39.5 c 128,-1,54
 418 65 418 65 396 101 c 1,55,-1
 427 105 l 1,56,57
 401 57 401 57 371.5 32 c 128,-1,58
 342 7 342 7 306.5 -2.5 c 128,-1,59
 271 -12 271 -12 226 -12 c 0,0,1
31 474 m 1,60,-1
 31 551 l 1,61,-1
 541 551 l 2,62,63
 595 551 595 551 617 556 c 128,-1,64
 639 561 639 561 649 569 c 0,65,66
 663 579 663 579 667 591.5 c 128,-1,67
 671 604 671 604 671 618 c 0,68,69
 671 651 671 651 655 682.5 c 128,-1,70
 639 714 639 714 606 747 c 1,71,-1
 671 790 l 1,72,73
 718 738 718 738 735 696.5 c 128,-1,74
 752 655 752 655 752 612 c 0,75,76
 752 593 752 593 744.5 565.5 c 128,-1,77
 737 538 737 538 711 516 c 0,78,79
 686 494 686 494 651.5 484 c 128,-1,80
 617 474 617 474 559 474 c 2,81,-1
 31 474 l 1,60,-1
908 -12 m 0,82,83
 832 -12 832 -12 775 26.5 c 128,-1,84
 718 65 718 65 673 123 c 1,85,-1
 724 177 l 1,86,87
 766 124 766 124 809.5 95.5 c 128,-1,88
 853 67 853 67 911 67 c 0,89,90
 971 67 971 67 1004 106 c 128,-1,91
 1037 145 1037 145 1037 210 c 0,92,93
 1037 280 1037 280 1012 333 c 128,-1,94
 987 386 987 386 943 424.5 c 128,-1,95
 899 463 899 463 841 488 c 1,96,-1
 884 565 l 1,97,98
 952 532 952 532 1005 482 c 128,-1,99
 1058 432 1058 432 1088.5 365 c 128,-1,100
 1119 298 1119 298 1119 215 c 0,101,102
 1119 150 1119 150 1096 98.5 c 128,-1,103
 1073 47 1073 47 1026 17.5 c 128,-1,104
 979 -12 979 -12 908 -12 c 0,82,83
EndSplineSet
EndChar

StartChar: plusminus
Encoding: 177 177 170
Width: 709
Flags: W
AnchorPoint: "Anchor-0" 354 -24 basechar 0
LayerCount: 2
Fore
SplineSet
483 -12 m 0,0,1
 430 -12 430 -12 395.5 8 c 128,-1,2
 361 28 361 28 337.5 59.5 c 128,-1,3
 314 91 314 91 294 125 c 0,4,5
 269 169 269 169 251 191 c 128,-1,6
 233 213 233 213 217.5 221 c 128,-1,7
 202 229 202 229 182 229 c 0,8,9
 148 229 148 229 129.5 207.5 c 128,-1,10
 111 186 111 186 111 148 c 0,11,12
 111 116 111 116 125 82.5 c 128,-1,13
 139 49 139 49 162 17 c 1,14,-1
 84 -14 l 1,15,16
 61 18 61 18 46 60.5 c 128,-1,17
 31 103 31 103 31 146 c 0,18,19
 31 192 31 192 51 228 c 128,-1,20
 71 264 71 264 105 284.5 c 128,-1,21
 139 305 139 305 181 305 c 256,22,23
 223 305 223 305 252 292 c 128,-1,24
 281 279 281 279 303.5 253 c 128,-1,25
 326 227 326 227 349 187 c 0,26,27
 372 148 372 148 391.5 121 c 128,-1,28
 411 94 411 94 434 80.5 c 128,-1,29
 457 67 457 67 490 67 c 0,30,31
 540 67 540 67 564 103 c 128,-1,32
 588 139 588 139 588 194 c 0,33,34
 588 239 588 239 570 286 c 128,-1,35
 552 333 552 333 504 387 c 1,36,-1
 572 435 l 1,37,38
 619 384 619 384 644.5 327 c 128,-1,39
 670 270 670 270 670 203 c 0,40,41
 670 101 670 101 621 44.5 c 128,-1,42
 572 -12 572 -12 483 -12 c 0,0,1
341 315 m 0,43,44
 317 315 317 315 300 332 c 128,-1,45
 283 349 283 349 283 374 c 256,46,47
 283 399 283 399 300 416 c 128,-1,48
 317 433 317 433 341 433 c 0,49,50
 366 433 366 433 382.5 416 c 128,-1,51
 399 399 399 399 399 374 c 256,52,53
 399 349 399 349 382.5 332 c 128,-1,54
 366 315 366 315 341 315 c 0,43,44
32 474 m 1,55,-1
 32 551 l 1,56,-1
 458 551 l 2,57,58
 512 551 512 551 534 556 c 128,-1,59
 556 561 556 561 567 569 c 0,60,61
 580 579 580 579 584.5 591.5 c 128,-1,62
 589 604 589 604 589 618 c 0,63,64
 589 651 589 651 573 682.5 c 128,-1,65
 557 714 557 714 524 747 c 1,66,-1
 589 790 l 1,67,68
 636 738 636 738 653 696.5 c 128,-1,69
 670 655 670 655 670 612 c 0,70,71
 670 593 670 593 662 565.5 c 128,-1,72
 654 538 654 538 629 516 c 0,73,74
 603 494 603 494 568.5 484 c 128,-1,75
 534 474 534 474 477 474 c 2,76,-1
 32 474 l 1,55,-1
EndSplineSet
EndChar

StartChar: uni00B2
Encoding: 178 178 171
Width: 639
Flags: W
LayerCount: 2
Fore
SplineSet
545 0 m 1,0,-1
 459 221 l 1,1,-1
 176 221 l 1,2,-1
 91 0 l 1,3,-1
 0 0 l 1,4,-1
 279 717 l 1,5,-1
 360 717 l 1,6,-1
 638 0 l 1,7,-1
 545 0 l 1,0,-1
352 517 m 2,8,9
 349 525 349 525 342 546 c 128,-1,10
 335 567 335 567 328.5 589.5 c 128,-1,11
 322 612 322 612 318 624 c 1,12,13
 313 604 313 604 307.5 583.5 c 128,-1,14
 302 563 302 563 296.5 546 c 128,-1,15
 291 529 291 529 287 517 c 2,16,-1
 206 301 l 1,17,-1
 432 301 l 1,18,-1
 352 517 l 2,8,9
EndSplineSet
EndChar

StartChar: uni00B3
Encoding: 179 179 172
Width: 534
Flags: W
LayerCount: 2
Fore
SplineSet
172 363 m 2,0,1
 172 347 172 347 170.5 321 c 128,-1,2
 169 295 169 295 168 276 c 1,3,-1
 172 276 l 1,4,5
 178 284 178 284 190 299 c 128,-1,6
 202 314 202 314 214.5 329.5 c 128,-1,7
 227 345 227 345 236 355 c 2,8,-1
 407 536 l 1,9,-1
 510 536 l 1,10,-1
 293 307 l 1,11,-1
 525 0 l 1,12,-1
 419 0 l 1,13,-1
 233 250 l 1,14,-1
 172 197 l 1,15,-1
 172 0 l 1,16,-1
 85 0 l 1,17,-1
 85 760 l 1,18,-1
 172 760 l 1,19,-1
 172 363 l 2,0,1
EndSplineSet
EndChar

StartChar: mu
Encoding: 181 181 173
Width: 361
Flags: W
LayerCount: 2
Fore
SplineSet
264 62 m 0,0,1
 284 62 284 62 305 65.5 c 128,-1,2
 326 69 326 69 339 73 c 1,3,-1
 339 6 l 1,4,5
 325 -1 325 -1 299 -5.5 c 128,-1,6
 273 -10 273 -10 249 -10 c 0,7,8
 207 -10 207 -10 171.5 4.5 c 128,-1,9
 136 19 136 19 114 55 c 128,-1,10
 92 91 92 91 92 156 c 2,11,-1
 92 468 l 1,12,-1
 16 468 l 1,13,-1
 16 510 l 1,14,-1
 93 545 l 1,15,-1
 128 659 l 1,16,-1
 180 659 l 1,17,-1
 180 536 l 1,18,-1
 335 536 l 1,19,-1
 335 468 l 1,20,-1
 180 468 l 1,21,-1
 180 158 l 2,22,23
 180 109 180 109 203.5 85.5 c 128,-1,24
 227 62 227 62 264 62 c 0,0,1
EndSplineSet
EndChar

StartChar: uni00B9
Encoding: 185 185 174
Width: 618
Flags: W
LayerCount: 2
Fore
SplineSet
343 546 m 0,0,1
 439 546 439 546 488 499.5 c 128,-1,2
 537 453 537 453 537 349 c 2,3,-1
 537 0 l 1,4,-1
 450 0 l 1,5,-1
 450 343 l 2,6,7
 450 408 450 408 421 440 c 128,-1,8
 392 472 392 472 330 472 c 0,9,10
 241 472 241 472 207 422 c 128,-1,11
 173 372 173 372 173 278 c 2,12,-1
 173 0 l 1,13,-1
 85 0 l 1,14,-1
 85 536 l 1,15,-1
 156 536 l 1,16,-1
 169 463 l 1,17,-1
 174 463 l 1,18,19
 192 491 192 491 218.5 509.5 c 128,-1,20
 245 528 245 528 277 537 c 128,-1,21
 309 546 309 546 343 546 c 0,0,1
EndSplineSet
EndChar

StartChar: onequarter
Encoding: 188 188 175
Width: 615
Flags: W
LayerCount: 2
Fore
SplineSet
173 575 m 2,0,1
 173 541 173 541 171.5 511.5 c 128,-1,2
 170 482 170 482 168 465 c 1,3,-1
 173 465 l 1,4,5
 196 499 196 499 236 522 c 128,-1,6
 276 545 276 545 339 545 c 0,7,8
 439 545 439 545 499.5 475.5 c 128,-1,9
 560 406 560 406 560 268 c 0,10,11
 560 176 560 176 532.5 114 c 128,-1,12
 505 52 505 52 455 21 c 128,-1,13
 405 -10 405 -10 339 -10 c 0,14,15
 276 -10 276 -10 236 13 c 128,-1,16
 196 36 196 36 173 68 c 1,17,-1
 166 68 l 1,18,-1
 148 0 l 1,19,-1
 85 0 l 1,20,-1
 85 760 l 1,21,-1
 173 760 l 1,22,-1
 173 575 l 2,0,1
324 472 m 0,23,24
 267 472 267 472 234 450.5 c 128,-1,25
 201 429 201 429 187 384.5 c 128,-1,26
 173 340 173 340 173 271 c 2,27,-1
 173 267 l 2,28,29
 173 168 173 168 205.5 115.5 c 128,-1,30
 238 63 238 63 326 63 c 0,31,32
 398 63 398 63 433.5 116 c 128,-1,33
 469 169 469 169 469 269 c 0,34,35
 469 370 469 370 433.5 421 c 128,-1,36
 398 472 398 472 324 472 c 0,23,24
EndSplineSet
EndChar

StartChar: onehalf
Encoding: 189 189 176
Width: 935
Flags: W
LayerCount: 2
Fore
SplineSet
673 546 m 0,0,1
 764 546 764 546 809 499.5 c 128,-1,2
 854 453 854 453 854 349 c 2,3,-1
 854 0 l 1,4,-1
 767 0 l 1,5,-1
 767 345 l 2,6,7
 767 408 767 408 740.5 440 c 128,-1,8
 714 472 714 472 658 472 c 0,9,10
 580 472 580 472 546.5 427 c 128,-1,11
 513 382 513 382 513 296 c 2,12,-1
 513 0 l 1,13,-1
 426 0 l 1,14,-1
 426 345 l 2,15,16
 426 387 426 387 414 415.5 c 128,-1,17
 402 444 402 444 378 458 c 128,-1,18
 354 472 354 472 316 472 c 0,19,20
 262 472 262 472 231 449.5 c 128,-1,21
 200 427 200 427 186.5 384 c 128,-1,22
 173 341 173 341 173 278 c 2,23,-1
 173 0 l 1,24,-1
 85 0 l 1,25,-1
 85 536 l 1,26,-1
 156 536 l 1,27,-1
 169 463 l 1,28,-1
 174 463 l 1,29,30
 191 491 191 491 215.5 509.5 c 128,-1,31
 240 528 240 528 270 537 c 128,-1,32
 300 546 300 546 332 546 c 0,33,34
 394 546 394 546 435.5 524 c 128,-1,35
 477 502 477 502 496 456 c 1,36,-1
 501 456 l 1,37,38
 528 502 528 502 574.5 524 c 128,-1,39
 621 546 621 546 673 546 c 0,0,1
EndSplineSet
EndChar

StartChar: threequarters
Encoding: 190 190 177
Width: 510
Flags: W
LayerCount: 2
Fore
SplineSet
1 536 m 1,0,-1
 95 536 l 1,1,-1
 211 231 l 2,2,3
 221 204 221 204 229.5 179 c 128,-1,4
 238 154 238 154 245 130.5 c 128,-1,5
 252 107 252 107 256 85 c 1,6,-1
 260 85 l 1,7,8
 266 110 266 110 279 150.5 c 128,-1,9
 292 191 292 191 306 232 c 2,10,-1
 415 536 l 1,11,-1
 510 536 l 1,12,-1
 279 -74 l 2,13,14
 260 -124 260 -124 234.5 -161.5 c 128,-1,15
 209 -199 209 -199 172.5 -219.5 c 128,-1,16
 136 -240 136 -240 84 -240 c 0,17,18
 60 -240 60 -240 42 -237.5 c 128,-1,19
 24 -235 24 -235 11 -232 c 1,20,-1
 11 -162 l 1,21,22
 22 -164 22 -164 37.5 -166 c 128,-1,23
 53 -168 53 -168 70 -168 c 0,24,25
 101 -168 101 -168 123.5 -156.5 c 128,-1,26
 146 -145 146 -145 162 -123.5 c 128,-1,27
 178 -102 178 -102 189 -73 c 2,28,-1
 217 -2 l 1,29,-1
 1 536 l 1,0,-1
EndSplineSet
EndChar

StartChar: uni0080
Encoding: 128 128 178
Width: 480
Flags: W
LayerCount: 2
Fore
SplineSet
40 85 m 0,0,1
 40 103 40 103 55.5 118 c 128,-1,2
 71 133 71 133 99 144.5 c 128,-1,3
 127 156 127 156 164.5 162.5 c 128,-1,4
 202 169 202 169 245 169 c 0,5,6
 289 169 289 169 326.5 162.5 c 128,-1,7
 364 156 364 156 391.5 144.5 c 128,-1,8
 419 133 419 133 435 118 c 128,-1,9
 451 103 451 103 451 85 c 0,10,11
 451 68 451 68 435 53 c 128,-1,12
 419 38 419 38 391.5 27 c 128,-1,13
 364 16 364 16 326.5 9.5 c 128,-1,14
 289 3 289 3 245 3 c 0,15,16
 202 3 202 3 164.5 9.5 c 128,-1,17
 127 16 127 16 99 27 c 128,-1,18
 71 38 71 38 55.5 53 c 128,-1,19
 40 68 40 68 40 85 c 0,0,1
120 85 m 256,20,21
 120 74 120 74 129.5 64.5 c 128,-1,22
 139 55 139 55 156 48.5 c 128,-1,23
 173 42 173 42 196 38 c 128,-1,24
 219 34 219 34 245 34 c 0,25,26
 272 34 272 34 294.5 38 c 128,-1,27
 317 42 317 42 334 48.5 c 128,-1,28
 351 55 351 55 360.5 64.5 c 128,-1,29
 370 74 370 74 370 85 c 256,30,31
 370 96 370 96 360.5 105.5 c 128,-1,32
 351 115 351 115 334 122 c 128,-1,33
 317 129 317 129 294.5 133 c 128,-1,34
 272 137 272 137 245 137 c 0,35,36
 219 137 219 137 196 133 c 128,-1,37
 173 129 173 129 156 122 c 128,-1,38
 139 115 139 115 129.5 105.5 c 128,-1,39
 120 96 120 96 120 85 c 256,20,21
40 272 m 0,40,41
 40 290 40 290 55.5 305 c 128,-1,42
 71 320 71 320 99 331.5 c 128,-1,43
 127 343 127 343 164.5 349 c 128,-1,44
 202 355 202 355 245 355 c 0,45,46
 289 355 289 355 326.5 349 c 128,-1,47
 364 343 364 343 391.5 331.5 c 128,-1,48
 419 320 419 320 435 305 c 128,-1,49
 451 290 451 290 451 272 c 0,50,51
 451 255 451 255 435 240 c 128,-1,52
 419 225 419 225 391.5 214 c 128,-1,53
 364 203 364 203 326.5 196 c 128,-1,54
 289 189 289 189 245 189 c 0,55,56
 202 189 202 189 164.5 196 c 128,-1,57
 127 203 127 203 99 214 c 128,-1,58
 71 225 71 225 55.5 240 c 128,-1,59
 40 255 40 255 40 272 c 0,40,41
120 272 m 256,60,61
 120 261 120 261 129.5 251.5 c 128,-1,62
 139 242 139 242 156 235 c 128,-1,63
 173 228 173 228 196 224 c 128,-1,64
 219 220 219 220 245 220 c 0,65,66
 272 220 272 220 294.5 224 c 128,-1,67
 317 228 317 228 334 235 c 128,-1,68
 351 242 351 242 360.5 251.5 c 128,-1,69
 370 261 370 261 370 272 c 256,70,71
 370 283 370 283 360.5 292.5 c 128,-1,72
 351 302 351 302 334 309 c 128,-1,73
 317 316 317 316 294.5 320 c 128,-1,74
 272 324 272 324 245 324 c 0,75,76
 219 324 219 324 196 320 c 128,-1,77
 173 316 173 316 156 309 c 128,-1,78
 139 302 139 302 129.5 292.5 c 128,-1,79
 120 283 120 283 120 272 c 256,60,61
40 461 m 256,80,81
 40 478 40 478 55.5 493.5 c 128,-1,82
 71 509 71 509 99 520 c 128,-1,83
 127 531 127 531 164.5 537.5 c 128,-1,84
 202 544 202 544 245 544 c 0,85,86
 289 544 289 544 326.5 537.5 c 128,-1,87
 364 531 364 531 391.5 520 c 128,-1,88
 419 509 419 509 435 493.5 c 128,-1,89
 451 478 451 478 451 461 c 256,90,91
 451 444 451 444 435 429 c 128,-1,92
 419 414 419 414 391.5 402.5 c 128,-1,93
 364 391 364 391 326.5 384.5 c 128,-1,94
 289 378 289 378 245 378 c 0,95,96
 202 378 202 378 164.5 384.5 c 128,-1,97
 127 391 127 391 99 402.5 c 128,-1,98
 71 414 71 414 55.5 429 c 128,-1,99
 40 444 40 444 40 461 c 256,80,81
120 461 m 256,100,101
 120 450 120 450 129.5 440.5 c 128,-1,102
 139 431 139 431 156 424 c 128,-1,103
 173 417 173 417 196 413 c 128,-1,104
 219 409 219 409 245 409 c 0,105,106
 272 409 272 409 294.5 413 c 128,-1,107
 317 417 317 417 334 424 c 128,-1,108
 351 431 351 431 360.5 440.5 c 128,-1,109
 370 450 370 450 370 461 c 256,110,111
 370 472 370 472 360.5 481.5 c 128,-1,112
 351 491 351 491 334 498 c 128,-1,113
 317 505 317 505 294.5 509 c 128,-1,114
 272 513 272 513 245 513 c 0,115,116
 219 513 219 513 196 509 c 128,-1,117
 173 505 173 505 156 498 c 128,-1,118
 139 491 139 491 129.5 481.5 c 128,-1,119
 120 472 120 472 120 461 c 256,100,101
40 648 m 256,120,121
 40 665 40 665 55.5 680.5 c 128,-1,122
 71 696 71 696 99 707 c 128,-1,123
 127 718 127 718 164.5 724.5 c 128,-1,124
 202 731 202 731 245 731 c 0,125,126
 289 731 289 731 326.5 724.5 c 128,-1,127
 364 718 364 718 391.5 707 c 128,-1,128
 419 696 419 696 435 680.5 c 128,-1,129
 451 665 451 665 451 648 c 256,130,131
 451 631 451 631 435 616 c 128,-1,132
 419 601 419 601 391.5 589.5 c 128,-1,133
 364 578 364 578 326.5 571.5 c 128,-1,134
 289 565 289 565 245 565 c 0,135,136
 202 565 202 565 164.5 571.5 c 128,-1,137
 127 578 127 578 99 589.5 c 128,-1,138
 71 601 71 601 55.5 616 c 128,-1,139
 40 631 40 631 40 648 c 256,120,121
120 648 m 0,140,141
 120 637 120 637 129.5 627.5 c 128,-1,142
 139 618 139 618 156 611 c 128,-1,143
 173 604 173 604 196 600 c 128,-1,144
 219 596 219 596 245 596 c 0,145,146
 272 596 272 596 294.5 600 c 128,-1,147
 317 604 317 604 334 611 c 128,-1,148
 351 618 351 618 360.5 627.5 c 128,-1,149
 370 637 370 637 370 648 c 0,150,151
 370 658 370 658 360.5 668 c 128,-1,152
 351 678 351 678 334 685 c 128,-1,153
 317 692 317 692 294.5 696 c 128,-1,154
 272 700 272 700 245 700 c 0,155,156
 219 700 219 700 196 696 c 128,-1,157
 173 692 173 692 156 685 c 128,-1,158
 139 678 139 678 129.5 668 c 128,-1,159
 120 658 120 658 120 648 c 0,140,141
EndSplineSet
EndChar

StartChar: uni0081
Encoding: 129 129 179
Width: 480
Flags: W
LayerCount: 2
Fore
SplineSet
40 85 m 0,0,1
 40 103 40 103 55.5 118 c 128,-1,2
 71 133 71 133 99 144.5 c 128,-1,3
 127 156 127 156 164.5 162.5 c 128,-1,4
 202 169 202 169 245 169 c 0,5,6
 289 169 289 169 326.5 162.5 c 128,-1,7
 364 156 364 156 391.5 144.5 c 128,-1,8
 419 133 419 133 435 118 c 128,-1,9
 451 103 451 103 451 85 c 0,10,11
 451 68 451 68 435 53 c 128,-1,12
 419 38 419 38 391.5 27 c 128,-1,13
 364 16 364 16 326.5 9.5 c 128,-1,14
 289 3 289 3 245 3 c 0,15,16
 202 3 202 3 164.5 9.5 c 128,-1,17
 127 16 127 16 99 27 c 128,-1,18
 71 38 71 38 55.5 53 c 128,-1,19
 40 68 40 68 40 85 c 0,0,1
40 272 m 0,20,21
 40 290 40 290 55.5 305 c 128,-1,22
 71 320 71 320 99 331.5 c 128,-1,23
 127 343 127 343 164.5 349 c 128,-1,24
 202 355 202 355 245 355 c 0,25,26
 289 355 289 355 326.5 349 c 128,-1,27
 364 343 364 343 391.5 331.5 c 128,-1,28
 419 320 419 320 435 305 c 128,-1,29
 451 290 451 290 451 272 c 0,30,31
 451 255 451 255 435 240 c 128,-1,32
 419 225 419 225 391.5 214 c 128,-1,33
 364 203 364 203 326.5 196 c 128,-1,34
 289 189 289 189 245 189 c 0,35,36
 202 189 202 189 164.5 196 c 128,-1,37
 127 203 127 203 99 214 c 128,-1,38
 71 225 71 225 55.5 240 c 128,-1,39
 40 255 40 255 40 272 c 0,20,21
120 272 m 256,40,41
 120 261 120 261 129.5 251.5 c 128,-1,42
 139 242 139 242 156 235 c 128,-1,43
 173 228 173 228 196 224 c 128,-1,44
 219 220 219 220 245 220 c 0,45,46
 272 220 272 220 294.5 224 c 128,-1,47
 317 228 317 228 334 235 c 128,-1,48
 351 242 351 242 360.5 251.5 c 128,-1,49
 370 261 370 261 370 272 c 256,50,51
 370 283 370 283 360.5 292.5 c 128,-1,52
 351 302 351 302 334 309 c 128,-1,53
 317 316 317 316 294.5 320 c 128,-1,54
 272 324 272 324 245 324 c 0,55,56
 219 324 219 324 196 320 c 128,-1,57
 173 316 173 316 156 309 c 128,-1,58
 139 302 139 302 129.5 292.5 c 128,-1,59
 120 283 120 283 120 272 c 256,40,41
40 461 m 256,60,61
 40 478 40 478 55.5 493.5 c 128,-1,62
 71 509 71 509 99 520 c 128,-1,63
 127 531 127 531 164.5 537.5 c 128,-1,64
 202 544 202 544 245 544 c 0,65,66
 289 544 289 544 326.5 537.5 c 128,-1,67
 364 531 364 531 391.5 520 c 128,-1,68
 419 509 419 509 435 493.5 c 128,-1,69
 451 478 451 478 451 461 c 256,70,71
 451 444 451 444 435 429 c 128,-1,72
 419 414 419 414 391.5 402.5 c 128,-1,73
 364 391 364 391 326.5 384.5 c 128,-1,74
 289 378 289 378 245 378 c 0,75,76
 202 378 202 378 164.5 384.5 c 128,-1,77
 127 391 127 391 99 402.5 c 128,-1,78
 71 414 71 414 55.5 429 c 128,-1,79
 40 444 40 444 40 461 c 256,60,61
120 461 m 256,80,81
 120 450 120 450 129.5 440.5 c 128,-1,82
 139 431 139 431 156 424 c 128,-1,83
 173 417 173 417 196 413 c 128,-1,84
 219 409 219 409 245 409 c 0,85,86
 272 409 272 409 294.5 413 c 128,-1,87
 317 417 317 417 334 424 c 128,-1,88
 351 431 351 431 360.5 440.5 c 128,-1,89
 370 450 370 450 370 461 c 256,90,91
 370 472 370 472 360.5 481.5 c 128,-1,92
 351 491 351 491 334 498 c 128,-1,93
 317 505 317 505 294.5 509 c 128,-1,94
 272 513 272 513 245 513 c 0,95,96
 219 513 219 513 196 509 c 128,-1,97
 173 505 173 505 156 498 c 128,-1,98
 139 491 139 491 129.5 481.5 c 128,-1,99
 120 472 120 472 120 461 c 256,80,81
40 648 m 256,100,101
 40 665 40 665 55.5 680.5 c 128,-1,102
 71 696 71 696 99 707 c 128,-1,103
 127 718 127 718 164.5 724.5 c 128,-1,104
 202 731 202 731 245 731 c 0,105,106
 289 731 289 731 326.5 724.5 c 128,-1,107
 364 718 364 718 391.5 707 c 128,-1,108
 419 696 419 696 435 680.5 c 128,-1,109
 451 665 451 665 451 648 c 256,110,111
 451 631 451 631 435 616 c 128,-1,112
 419 601 419 601 391.5 589.5 c 128,-1,113
 364 578 364 578 326.5 571.5 c 128,-1,114
 289 565 289 565 245 565 c 0,115,116
 202 565 202 565 164.5 571.5 c 128,-1,117
 127 578 127 578 99 589.5 c 128,-1,118
 71 601 71 601 55.5 616 c 128,-1,119
 40 631 40 631 40 648 c 256,100,101
120 648 m 0,120,121
 120 637 120 637 129.5 627.5 c 128,-1,122
 139 618 139 618 156 611 c 128,-1,123
 173 604 173 604 196 600 c 128,-1,124
 219 596 219 596 245 596 c 0,125,126
 272 596 272 596 294.5 600 c 128,-1,127
 317 604 317 604 334 611 c 128,-1,128
 351 618 351 618 360.5 627.5 c 128,-1,129
 370 637 370 637 370 648 c 0,130,131
 370 658 370 658 360.5 668 c 128,-1,132
 351 678 351 678 334 685 c 128,-1,133
 317 692 317 692 294.5 696 c 128,-1,134
 272 700 272 700 245 700 c 0,135,136
 219 700 219 700 196 696 c 128,-1,137
 173 692 173 692 156 685 c 128,-1,138
 139 678 139 678 129.5 668 c 128,-1,139
 120 658 120 658 120 648 c 0,120,121
EndSplineSet
EndChar

StartChar: uni0082
Encoding: 130 130 180
Width: 480
Flags: W
LayerCount: 2
Fore
SplineSet
40 85 m 0,0,1
 40 103 40 103 55.5 118 c 128,-1,2
 71 133 71 133 99 144.5 c 128,-1,3
 127 156 127 156 164.5 162.5 c 128,-1,4
 202 169 202 169 245 169 c 0,5,6
 289 169 289 169 326.5 162.5 c 128,-1,7
 364 156 364 156 391.5 144.5 c 128,-1,8
 419 133 419 133 435 118 c 128,-1,9
 451 103 451 103 451 85 c 0,10,11
 451 68 451 68 435 53 c 128,-1,12
 419 38 419 38 391.5 27 c 128,-1,13
 364 16 364 16 326.5 9.5 c 128,-1,14
 289 3 289 3 245 3 c 0,15,16
 202 3 202 3 164.5 9.5 c 128,-1,17
 127 16 127 16 99 27 c 128,-1,18
 71 38 71 38 55.5 53 c 128,-1,19
 40 68 40 68 40 85 c 0,0,1
120 85 m 256,20,21
 120 74 120 74 129.5 64.5 c 128,-1,22
 139 55 139 55 156 48.5 c 128,-1,23
 173 42 173 42 196 38 c 128,-1,24
 219 34 219 34 245 34 c 0,25,26
 272 34 272 34 294.5 38 c 128,-1,27
 317 42 317 42 334 48.5 c 128,-1,28
 351 55 351 55 360.5 64.5 c 128,-1,29
 370 74 370 74 370 85 c 256,30,31
 370 96 370 96 360.5 105.5 c 128,-1,32
 351 115 351 115 334 122 c 128,-1,33
 317 129 317 129 294.5 133 c 128,-1,34
 272 137 272 137 245 137 c 0,35,36
 219 137 219 137 196 133 c 128,-1,37
 173 129 173 129 156 122 c 128,-1,38
 139 115 139 115 129.5 105.5 c 128,-1,39
 120 96 120 96 120 85 c 256,20,21
40 272 m 0,40,41
 40 290 40 290 55.5 305 c 128,-1,42
 71 320 71 320 99 331.5 c 128,-1,43
 127 343 127 343 164.5 349 c 128,-1,44
 202 355 202 355 245 355 c 0,45,46
 289 355 289 355 326.5 349 c 128,-1,47
 364 343 364 343 391.5 331.5 c 128,-1,48
 419 320 419 320 435 305 c 128,-1,49
 451 290 451 290 451 272 c 0,50,51
 451 255 451 255 435 240 c 128,-1,52
 419 225 419 225 391.5 214 c 128,-1,53
 364 203 364 203 326.5 196 c 128,-1,54
 289 189 289 189 245 189 c 0,55,56
 202 189 202 189 164.5 196 c 128,-1,57
 127 203 127 203 99 214 c 128,-1,58
 71 225 71 225 55.5 240 c 128,-1,59
 40 255 40 255 40 272 c 0,40,41
40 461 m 256,60,61
 40 478 40 478 55.5 493.5 c 128,-1,62
 71 509 71 509 99 520 c 128,-1,63
 127 531 127 531 164.5 537.5 c 128,-1,64
 202 544 202 544 245 544 c 0,65,66
 289 544 289 544 326.5 537.5 c 128,-1,67
 364 531 364 531 391.5 520 c 128,-1,68
 419 509 419 509 435 493.5 c 128,-1,69
 451 478 451 478 451 461 c 256,70,71
 451 444 451 444 435 429 c 128,-1,72
 419 414 419 414 391.5 402.5 c 128,-1,73
 364 391 364 391 326.5 384.5 c 128,-1,74
 289 378 289 378 245 378 c 0,75,76
 202 378 202 378 164.5 384.5 c 128,-1,77
 127 391 127 391 99 402.5 c 128,-1,78
 71 414 71 414 55.5 429 c 128,-1,79
 40 444 40 444 40 461 c 256,60,61
120 461 m 256,80,81
 120 450 120 450 129.5 440.5 c 128,-1,82
 139 431 139 431 156 424 c 128,-1,83
 173 417 173 417 196 413 c 128,-1,84
 219 409 219 409 245 409 c 0,85,86
 272 409 272 409 294.5 413 c 128,-1,87
 317 417 317 417 334 424 c 128,-1,88
 351 431 351 431 360.5 440.5 c 128,-1,89
 370 450 370 450 370 461 c 256,90,91
 370 472 370 472 360.5 481.5 c 128,-1,92
 351 491 351 491 334 498 c 128,-1,93
 317 505 317 505 294.5 509 c 128,-1,94
 272 513 272 513 245 513 c 0,95,96
 219 513 219 513 196 509 c 128,-1,97
 173 505 173 505 156 498 c 128,-1,98
 139 491 139 491 129.5 481.5 c 128,-1,99
 120 472 120 472 120 461 c 256,80,81
40 648 m 256,100,101
 40 665 40 665 55.5 680.5 c 128,-1,102
 71 696 71 696 99 707 c 128,-1,103
 127 718 127 718 164.5 724.5 c 128,-1,104
 202 731 202 731 245 731 c 0,105,106
 289 731 289 731 326.5 724.5 c 128,-1,107
 364 718 364 718 391.5 707 c 128,-1,108
 419 696 419 696 435 680.5 c 128,-1,109
 451 665 451 665 451 648 c 256,110,111
 451 631 451 631 435 616 c 128,-1,112
 419 601 419 601 391.5 589.5 c 128,-1,113
 364 578 364 578 326.5 571.5 c 128,-1,114
 289 565 289 565 245 565 c 0,115,116
 202 565 202 565 164.5 571.5 c 128,-1,117
 127 578 127 578 99 589.5 c 128,-1,118
 71 601 71 601 55.5 616 c 128,-1,119
 40 631 40 631 40 648 c 256,100,101
120 648 m 0,120,121
 120 637 120 637 129.5 627.5 c 128,-1,122
 139 618 139 618 156 611 c 128,-1,123
 173 604 173 604 196 600 c 128,-1,124
 219 596 219 596 245 596 c 0,125,126
 272 596 272 596 294.5 600 c 128,-1,127
 317 604 317 604 334 611 c 128,-1,128
 351 618 351 618 360.5 627.5 c 128,-1,129
 370 637 370 637 370 648 c 0,130,131
 370 658 370 658 360.5 668 c 128,-1,132
 351 678 351 678 334 685 c 128,-1,133
 317 692 317 692 294.5 696 c 128,-1,134
 272 700 272 700 245 700 c 0,135,136
 219 700 219 700 196 696 c 128,-1,137
 173 692 173 692 156 685 c 128,-1,138
 139 678 139 678 129.5 668 c 128,-1,139
 120 658 120 658 120 648 c 0,120,121
EndSplineSet
EndChar

